<ttFont>
    <TTGlyph name=".notdef" xMin="84" yMin="-387" xMax="763" yMax="1307">
      <contour>
        <pt x="84" y="-387" on="1"/>
        <pt x="84" y="1307" on="1"/>
        <pt x="763" y="1307" on="1"/>
        <pt x="763" y="-387" on="1"/>
      </contour>
      <contour>
        <pt x="169" y="-303" on="1"/>
        <pt x="678" y="-303" on="1"/>
        <pt x="678" y="1223" on="1"/>
        <pt x="169" y="1223" on="1"/>
      </contour>
    </TTGlyph>
    <TTGlyph name="A" xMin="-32" yMin="0" xMax="1187" yMax="1270">
      <contour>
        <pt x="874" y="1270" on="1"/>
        <pt x="1063" y="124" on="1"/>
        <pt x="1187" y="81" on="1"/>
        <pt x="1169" y="0" on="1"/>
        <pt x="684" y="0" on="1"/>
        <pt x="704" y="74" on="1"/>
        <pt x="876" y="129" on="1"/>
        <pt x="820" y="433" on="1"/>
        <pt x="419" y="433" on="1"/>
        <pt x="266" y="124" on="1"/>
        <pt x="436" y="81" on="1"/>
        <pt x="414" y="0" on="1"/>
        <pt x="-32" y="0" on="1"/>
        <pt x="-14" y="74" on="1"/>
        <pt x="135" y="129" on="1"/>
        <pt x="727" y="1239" on="1"/>
      </contour>
      <contour>
        <pt x="471" y="534" on="1"/>
        <pt x="806" y="534" on="1"/>
        <pt x="727" y="1036" on="1"/>
      </contour>
    </TTGlyph>
    <TTGlyph name="AE" xMin="-45" yMin="0" xMax="1707" yMax="1246">
      <contour>
        <pt x="936" y="1060" on="1"/>
        <pt x="566" y="567" on="1"/>
        <pt x="857" y="567" on="1"/>
      </contour>
      <contour>
        <pt x="844" y="473" on="1"/>
        <pt x="501" y="473" on="1"/>
        <pt x="241" y="126" on="1"/>
        <pt x="412" y="83" on="1"/>
        <pt x="390" y="0" on="1"/>
        <pt x="-45" y="0" on="1"/>
        <pt x="-26" y="76" on="1"/>
        <pt x="111" y="131" on="1"/>
        <pt x="968" y="1246" on="1"/>
        <pt x="1707" y="1246" on="1"/>
        <pt x="1628" y="930" on="1"/>
        <pt x="1548" y="943" on="1"/>
        <pt x="1543" y="1155" on="1"/>
        <pt x="1127" y="1155" on="1"/>
        <pt x="1050" y="682" on="1"/>
        <pt x="1297" y="682" on="1"/>
        <pt x="1357" y="804" on="1"/>
        <pt x="1449" y="811" on="1"/>
        <pt x="1357" y="425" on="1"/>
        <pt x="1270" y="410" on="1"/>
        <pt x="1267" y="587" on="1"/>
        <pt x="1036" y="587" on="1"/>
        <pt x="958" y="96" on="1"/>
        <pt x="1401" y="96" on="1"/>
        <pt x="1532" y="329" on="1"/>
        <pt x="1606" y="314" on="1"/>
        <pt x="1529" y="0" on="1"/>
        <pt x="1074" y="0" on="1"/>
        <pt x="652" y="0" on="1"/>
        <pt x="602" y="0" on="1"/>
        <pt x="622" y="74" on="1"/>
        <pt x="784" y="119" on="1"/>
        <pt x="789" y="121" on="1"/>
      </contour>
    </TTGlyph>
    <TTGlyph name="Aacute" xMin="-32" yMin="0" xMax="1187" yMax="1709">
      <contour>
        <pt x="874" y="1270" on="1"/>
        <pt x="1063" y="124" on="1"/>
        <pt x="1187" y="81" on="1"/>
        <pt x="1169" y="0" on="1"/>
        <pt x="684" y="0" on="1"/>
        <pt x="704" y="74" on="1"/>
        <pt x="876" y="129" on="1"/>
        <pt x="820" y="433" on="1"/>
        <pt x="419" y="433" on="1"/>
        <pt x="266" y="124" on="1"/>
        <pt x="436" y="81" on="1"/>
        <pt x="414" y="0" on="1"/>
        <pt x="-32" y="0" on="1"/>
        <pt x="-14" y="74" on="1"/>
        <pt x="135" y="129" on="1"/>
        <pt x="727" y="1239" on="1"/>
      </contour>
      <contour>
        <pt x="471" y="534" on="1"/>
        <pt x="806" y="534" on="1"/>
        <pt x="727" y="1036" on="1"/>
      </contour>
      <contour>
        <pt x="1035" y="1669" on="1"/>
        <pt x="851" y="1352" on="1"/>
        <pt x="800" y="1383" on="1"/>
        <pt x="922" y="1709" on="1"/>
      </contour>
    </TTGlyph>
    <TTGlyph name="Abreve" xMin="-32" yMin="0" xMax="1187" yMax="1588">
      <contour>
        <pt x="874" y="1270" on="1"/>
        <pt x="1063" y="124" on="1"/>
        <pt x="1187" y="81" on="1"/>
        <pt x="1169" y="0" on="1"/>
        <pt x="684" y="0" on="1"/>
        <pt x="704" y="74" on="1"/>
        <pt x="876" y="129" on="1"/>
        <pt x="820" y="433" on="1"/>
        <pt x="419" y="433" on="1"/>
        <pt x="266" y="124" on="1"/>
        <pt x="436" y="81" on="1"/>
        <pt x="414" y="0" on="1"/>
        <pt x="-32" y="0" on="1"/>
        <pt x="-14" y="74" on="1"/>
        <pt x="135" y="129" on="1"/>
        <pt x="727" y="1239" on="1"/>
      </contour>
      <contour>
        <pt x="471" y="534" on="1"/>
        <pt x="806" y="534" on="1"/>
        <pt x="727" y="1036" on="1"/>
      </contour>
      <contour>
        <pt x="618" y="1555" on="1"/>
        <pt x="664" y="1586" on="1"/>
        <pt x="672" y="1570" on="1"/>
        <pt x="690" y="1534" on="0"/>
        <pt x="763" y="1486" on="0"/>
        <pt x="808" y="1486" on="1"/>
        <pt x="897" y="1486" on="0"/>
        <pt x="950" y="1572" on="1"/>
        <pt x="960" y="1588" on="1"/>
        <pt x="1002" y="1560" on="1"/>
        <pt x="995" y="1540" on="1"/>
        <pt x="971" y="1466" on="0"/>
        <pt x="874" y="1376" on="0"/>
        <pt x="808" y="1376" on="1"/>
        <pt x="737" y="1376" on="0"/>
        <pt x="640" y="1465" on="0"/>
        <pt x="623" y="1535" on="1"/>
      </contour>
    </TTGlyph>
    <TTGlyph name="Acaron" xMin="-32" yMin="0" xMax="1187" yMax="1586">
      <contour>
        <pt x="874" y="1270" on="1"/>
        <pt x="1063" y="124" on="1"/>
        <pt x="1187" y="81" on="1"/>
        <pt x="1169" y="0" on="1"/>
        <pt x="684" y="0" on="1"/>
        <pt x="704" y="74" on="1"/>
        <pt x="876" y="129" on="1"/>
        <pt x="820" y="433" on="1"/>
        <pt x="419" y="433" on="1"/>
        <pt x="266" y="124" on="1"/>
        <pt x="436" y="81" on="1"/>
        <pt x="414" y="0" on="1"/>
        <pt x="-32" y="0" on="1"/>
        <pt x="-14" y="74" on="1"/>
        <pt x="135" y="129" on="1"/>
        <pt x="727" y="1239" on="1"/>
      </contour>
      <contour>
        <pt x="471" y="534" on="1"/>
        <pt x="806" y="534" on="1"/>
        <pt x="727" y="1036" on="1"/>
      </contour>
      <contour>
        <pt x="799" y="1360" on="1"/>
        <pt x="619" y="1525" on="1"/>
        <pt x="700" y="1586" on="1"/>
        <pt x="849" y="1443" on="1"/>
        <pt x="859" y="1443" on="1"/>
        <pt x="983" y="1583" on="1"/>
        <pt x="1026" y="1553" on="1"/>
        <pt x="854" y="1373" on="1"/>
      </contour>
    </TTGlyph>
    <TTGlyph name="Acircumflex" xMin="-32" yMin="0" xMax="1187" yMax="1583">
      <contour>
        <pt x="874" y="1270" on="1"/>
        <pt x="1063" y="124" on="1"/>
        <pt x="1187" y="81" on="1"/>
        <pt x="1169" y="0" on="1"/>
        <pt x="684" y="0" on="1"/>
        <pt x="704" y="74" on="1"/>
        <pt x="876" y="129" on="1"/>
        <pt x="820" y="433" on="1"/>
        <pt x="419" y="433" on="1"/>
        <pt x="266" y="124" on="1"/>
        <pt x="436" y="81" on="1"/>
        <pt x="414" y="0" on="1"/>
        <pt x="-32" y="0" on="1"/>
        <pt x="-14" y="74" on="1"/>
        <pt x="135" y="129" on="1"/>
        <pt x="727" y="1239" on="1"/>
      </contour>
      <contour>
        <pt x="471" y="534" on="1"/>
        <pt x="806" y="534" on="1"/>
        <pt x="727" y="1036" on="1"/>
      </contour>
      <contour>
        <pt x="831" y="1583" on="1"/>
        <pt x="1010" y="1397" on="1"/>
        <pt x="960" y="1361" on="1"/>
        <pt x="797" y="1471" on="1"/>
        <pt x="787" y="1471" on="1"/>
        <pt x="646" y="1360" on="1"/>
        <pt x="608" y="1390" on="1"/>
        <pt x="777" y="1570" on="1"/>
      </contour>
    </TTGlyph>
    <TTGlyph name="Adieresis" xMin="-32" yMin="0" xMax="1187" yMax="1545">
      <contour>
        <pt x="874" y="1270" on="1"/>
        <pt x="1063" y="124" on="1"/>
        <pt x="1187" y="81" on="1"/>
        <pt x="1169" y="0" on="1"/>
        <pt x="684" y="0" on="1"/>
        <pt x="704" y="74" on="1"/>
        <pt x="876" y="129" on="1"/>
        <pt x="820" y="433" on="1"/>
        <pt x="419" y="433" on="1"/>
        <pt x="266" y="124" on="1"/>
        <pt x="436" y="81" on="1"/>
        <pt x="414" y="0" on="1"/>
        <pt x="-32" y="0" on="1"/>
        <pt x="-14" y="74" on="1"/>
        <pt x="135" y="129" on="1"/>
        <pt x="727" y="1239" on="1"/>
      </contour>
      <contour>
        <pt x="471" y="534" on="1"/>
        <pt x="806" y="534" on="1"/>
        <pt x="727" y="1036" on="1"/>
      </contour>
      <contour>
        <pt x="1030" y="1467" on="1"/>
        <pt x="1030" y="1432" on="0"/>
        <pt x="978" y="1386" on="0"/>
        <pt x="942" y="1386" on="1"/>
        <pt x="907" y="1386" on="0"/>
        <pt x="858" y="1433" on="0"/>
        <pt x="858" y="1501" on="0"/>
        <pt x="908" y="1545" on="0"/>
        <pt x="942" y="1545" on="1"/>
        <pt x="978" y="1545" on="0"/>
        <pt x="1030" y="1500" on="0"/>
      </contour>
      <contour>
        <pt x="760" y="1467" on="1"/>
        <pt x="760" y="1432" on="0"/>
        <pt x="710" y="1386" on="0"/>
        <pt x="674" y="1386" on="1"/>
        <pt x="639" y="1386" on="0"/>
        <pt x="590" y="1433" on="0"/>
        <pt x="590" y="1501" on="0"/>
        <pt x="640" y="1545" on="0"/>
        <pt x="674" y="1545" on="1"/>
        <pt x="710" y="1545" on="0"/>
        <pt x="760" y="1500" on="0"/>
      </contour>
    </TTGlyph>
    <TTGlyph name="Agrave" xMin="-32" yMin="0" xMax="1187" yMax="1701">
      <contour>
        <pt x="874" y="1270" on="1"/>
        <pt x="1063" y="124" on="1"/>
        <pt x="1187" y="81" on="1"/>
        <pt x="1169" y="0" on="1"/>
        <pt x="684" y="0" on="1"/>
        <pt x="704" y="74" on="1"/>
        <pt x="876" y="129" on="1"/>
        <pt x="820" y="433" on="1"/>
        <pt x="419" y="433" on="1"/>
        <pt x="266" y="124" on="1"/>
        <pt x="436" y="81" on="1"/>
        <pt x="414" y="0" on="1"/>
        <pt x="-32" y="0" on="1"/>
        <pt x="-14" y="74" on="1"/>
        <pt x="135" y="129" on="1"/>
        <pt x="727" y="1239" on="1"/>
      </contour>
      <contour>
        <pt x="471" y="534" on="1"/>
        <pt x="806" y="534" on="1"/>
        <pt x="727" y="1036" on="1"/>
      </contour>
      <contour>
        <pt x="611" y="1663" on="1"/>
        <pt x="727" y="1701" on="1"/>
        <pt x="859" y="1366" on="1"/>
        <pt x="801" y="1332" on="1"/>
      </contour>
    </TTGlyph>
    <TTGlyph name="Amacron" xMin="-32" yMin="0" xMax="1187" yMax="1481">
      <contour>
        <pt x="874" y="1270" on="1"/>
        <pt x="1063" y="124" on="1"/>
        <pt x="1187" y="81" on="1"/>
        <pt x="1169" y="0" on="1"/>
        <pt x="684" y="0" on="1"/>
        <pt x="704" y="74" on="1"/>
        <pt x="876" y="129" on="1"/>
        <pt x="820" y="433" on="1"/>
        <pt x="419" y="433" on="1"/>
        <pt x="266" y="124" on="1"/>
        <pt x="436" y="81" on="1"/>
        <pt x="414" y="0" on="1"/>
        <pt x="-32" y="0" on="1"/>
        <pt x="-14" y="74" on="1"/>
        <pt x="135" y="129" on="1"/>
        <pt x="727" y="1239" on="1"/>
      </contour>
      <contour>
        <pt x="471" y="534" on="1"/>
        <pt x="806" y="534" on="1"/>
        <pt x="727" y="1036" on="1"/>
      </contour>
      <contour>
        <pt x="595" y="1481" on="1"/>
        <pt x="1036" y="1481" on="1"/>
        <pt x="1023" y="1381" on="1"/>
        <pt x="581" y="1381" on="1"/>
      </contour>
    </TTGlyph>
    <TTGlyph name="Aogonek" xMin="-32" yMin="-374" xMax="1225" yMax="1270">
      <contour>
        <pt x="1152" y="0" on="1"/>
        <pt x="1112" y="-44" on="0"/>
        <pt x="1101" y="-136" on="1"/>
        <pt x="1100" y="-139" on="0"/>
        <pt x="1100" y="-146" on="1"/>
        <pt x="1100" y="-189" on="0"/>
        <pt x="1165" y="-289" on="0"/>
        <pt x="1225" y="-323" on="1"/>
        <pt x="1190" y="-374" on="1"/>
        <pt x="1085" y="-363" on="0"/>
        <pt x="952" y="-262" on="0"/>
        <pt x="952" y="-195" on="1"/>
        <pt x="952" y="-150" on="0"/>
        <pt x="1004" y="-63" on="0"/>
        <pt x="1073" y="0" on="1"/>
        <pt x="684" y="0" on="1"/>
        <pt x="704" y="74" on="1"/>
        <pt x="876" y="129" on="1"/>
        <pt x="820" y="433" on="1"/>
        <pt x="419" y="433" on="1"/>
        <pt x="266" y="124" on="1"/>
        <pt x="436" y="81" on="1"/>
        <pt x="414" y="0" on="1"/>
        <pt x="-32" y="0" on="1"/>
        <pt x="-14" y="74" on="1"/>
        <pt x="135" y="129" on="1"/>
        <pt x="727" y="1239" on="1"/>
        <pt x="874" y="1270" on="1"/>
        <pt x="1063" y="124" on="1"/>
        <pt x="1187" y="81" on="1"/>
        <pt x="1169" y="0" on="1"/>
      </contour>
      <contour>
        <pt x="471" y="534" on="1"/>
        <pt x="806" y="534" on="1"/>
        <pt x="727" y="1036" on="1"/>
      </contour>
    </TTGlyph>
    <TTGlyph name="Aring" xMin="-32" yMin="0" xMax="1187" yMax="1702">
      <contour>
        <pt x="874" y="1270" on="1"/>
        <pt x="1063" y="124" on="1"/>
        <pt x="1187" y="81" on="1"/>
        <pt x="1169" y="0" on="1"/>
        <pt x="684" y="0" on="1"/>
        <pt x="704" y="74" on="1"/>
        <pt x="876" y="129" on="1"/>
        <pt x="820" y="433" on="1"/>
        <pt x="419" y="433" on="1"/>
        <pt x="266" y="124" on="1"/>
        <pt x="436" y="81" on="1"/>
        <pt x="414" y="0" on="1"/>
        <pt x="-32" y="0" on="1"/>
        <pt x="-14" y="74" on="1"/>
        <pt x="135" y="129" on="1"/>
        <pt x="727" y="1239" on="1"/>
      </contour>
      <contour>
        <pt x="471" y="534" on="1"/>
        <pt x="806" y="534" on="1"/>
        <pt x="727" y="1036" on="1"/>
      </contour>
      <contour>
        <pt x="719" y="1542" on="1"/>
        <pt x="719" y="1489" on="0"/>
        <pt x="771" y="1413" on="0"/>
        <pt x="815" y="1413" on="1"/>
        <pt x="856" y="1413" on="0"/>
        <pt x="901" y="1472" on="0"/>
        <pt x="901" y="1527" on="1"/>
        <pt x="901" y="1581" on="0"/>
        <pt x="848" y="1654" on="0"/>
        <pt x="805" y="1654" on="1"/>
        <pt x="764" y="1654" on="0"/>
        <pt x="719" y="1591" on="0"/>
      </contour>
      <contour>
        <pt x="972" y="1613" on="0"/>
        <pt x="972" y="1467" on="0"/>
        <pt x="876" y="1365" on="0"/>
        <pt x="803" y="1365" on="1"/>
        <pt x="733" y="1365" on="0"/>
        <pt x="648" y="1454" on="0"/>
        <pt x="648" y="1530" on="1"/>
        <pt x="648" y="1600" on="0"/>
        <pt x="747" y="1702" on="0"/>
        <pt x="816" y="1702" on="1"/>
        <pt x="887" y="1702" on="0"/>
      </contour>
    </TTGlyph>
    <TTGlyph name="Atilde" xMin="-32" yMin="0" xMax="1187" yMax="1535">
      <contour>
        <pt x="874" y="1270" on="1"/>
        <pt x="1063" y="124" on="1"/>
        <pt x="1187" y="81" on="1"/>
        <pt x="1169" y="0" on="1"/>
        <pt x="684" y="0" on="1"/>
        <pt x="704" y="74" on="1"/>
        <pt x="876" y="129" on="1"/>
        <pt x="820" y="433" on="1"/>
        <pt x="419" y="433" on="1"/>
        <pt x="266" y="124" on="1"/>
        <pt x="436" y="81" on="1"/>
        <pt x="414" y="0" on="1"/>
        <pt x="-32" y="0" on="1"/>
        <pt x="-14" y="74" on="1"/>
        <pt x="135" y="129" on="1"/>
        <pt x="727" y="1239" on="1"/>
      </contour>
      <contour>
        <pt x="471" y="534" on="1"/>
        <pt x="806" y="534" on="1"/>
        <pt x="727" y="1036" on="1"/>
      </contour>
      <contour>
        <pt x="577" y="1381" on="1"/>
        <pt x="579" y="1386" on="0"/>
        <pt x="579" y="1390" on="1"/>
        <pt x="584" y="1410" on="0"/>
        <pt x="597" y="1438" on="1"/>
        <pt x="614" y="1474" on="0"/>
        <pt x="636" y="1497" on="1"/>
        <pt x="664" y="1525" on="0"/>
        <pt x="699" y="1525" on="1"/>
        <pt x="703" y="1525" on="0"/>
        <pt x="708" y="1524" on="0"/>
        <pt x="712" y="1524" on="1"/>
        <pt x="935" y="1494" on="1"/>
        <pt x="939" y="1494" on="1"/>
        <pt x="950" y="1494" on="0"/>
        <pt x="978" y="1514" on="0"/>
        <pt x="987" y="1525" on="1"/>
        <pt x="995" y="1535" on="1"/>
        <pt x="1043" y="1534" on="1"/>
        <pt x="1042" y="1532" on="0"/>
        <pt x="1040" y="1520" on="0"/>
        <pt x="1039" y="1518" on="1"/>
        <pt x="1026" y="1477" on="0"/>
        <pt x="999" y="1440" on="1"/>
        <pt x="962" y="1390" on="0"/>
        <pt x="912" y="1390" on="1"/>
        <pt x="901" y="1390" on="1"/>
        <pt x="677" y="1421" on="1"/>
        <pt x="674" y="1421" on="1"/>
        <pt x="662" y="1421" on="0"/>
        <pt x="632" y="1398" on="0"/>
        <pt x="623" y="1385" on="1"/>
        <pt x="615" y="1373" on="1"/>
      </contour>
    </TTGlyph>
    <TTGlyph name="B" xMin="65" yMin="0" xMax="1136" yMax="1259">
      <contour>
        <pt x="518" y="605" on="1"/>
        <pt x="428" y="96" on="1"/>
        <pt x="622" y="96" on="1"/>
        <pt x="700" y="96" on="0"/>
        <pt x="827" y="147" on="0"/>
        <pt x="867" y="191" on="1"/>
        <pt x="945" y="276" on="0"/>
        <pt x="945" y="390" on="1"/>
        <pt x="945" y="483" on="0"/>
        <pt x="830" y="605" on="0"/>
        <pt x="731" y="605" on="1"/>
      </contour>
      <contour>
        <pt x="882" y="673" on="1"/>
        <pt x="1002" y="666" on="0"/>
        <pt x="1136" y="525" on="0"/>
        <pt x="1136" y="422" on="1"/>
        <pt x="1136" y="297" on="0"/>
        <pt x="1041" y="191" on="1"/>
        <pt x="934" y="73" on="0"/>
        <pt x="747" y="26" on="1"/>
        <pt x="645" y="0" on="0"/>
        <pt x="521" y="0" on="1"/>
        <pt x="65" y="0" on="1"/>
        <pt x="83" y="74" on="1"/>
        <pt x="251" y="121" on="1"/>
        <pt x="422" y="1107" on="1"/>
        <pt x="263" y="1136" on="1"/>
        <pt x="283" y="1213" on="1"/>
        <pt x="592" y="1259" on="0"/>
        <pt x="766" y="1259" on="1"/>
        <pt x="958" y="1259" on="0"/>
        <pt x="1051" y="1179" on="1"/>
        <pt x="1135" y="1105" on="0"/>
        <pt x="1135" y="1004" on="1"/>
        <pt x="1135" y="918" on="0"/>
        <pt x="1081" y="830" on="1"/>
        <pt x="1021" y="731" on="0"/>
        <pt x="883" y="682" on="1"/>
      </contour>
      <contour>
        <pt x="534" y="690" on="1"/>
        <pt x="733" y="690" on="1"/>
        <pt x="829" y="690" on="0"/>
        <pt x="945" y="835" on="0"/>
        <pt x="946" y="956" on="1"/>
        <pt x="946" y="1044" on="0"/>
        <pt x="894" y="1105" on="1"/>
        <pt x="835" y="1173" on="0"/>
        <pt x="693" y="1173" on="1"/>
        <pt x="655" y="1173" on="0"/>
        <pt x="617" y="1166" on="1"/>
      </contour>
    </TTGlyph>
    <TTGlyph name="C" xMin="168" yMin="-25" xMax="1228" yMax="1272">
      <contour>
        <pt x="489" y="211" on="1"/>
        <pt x="592" y="106" on="0"/>
        <pt x="744" y="106" on="1"/>
        <pt x="927" y="106" on="0"/>
        <pt x="1091" y="258" on="1"/>
        <pt x="1129" y="203" on="1"/>
        <pt x="1031" y="87" on="0"/>
        <pt x="782" y="-25" on="0"/>
        <pt x="648" y="-25" on="1"/>
        <pt x="449" y="-25" on="0"/>
        <pt x="311" y="105" on="1"/>
        <pt x="243" y="168" on="0"/>
        <pt x="168" y="364" on="0"/>
        <pt x="168" y="483" on="1"/>
        <pt x="168" y="629" on="0"/>
        <pt x="227" y="780" on="1"/>
        <pt x="292" y="948" on="0"/>
        <pt x="406" y="1063" on="1"/>
        <pt x="538" y="1197" on="0"/>
        <pt x="706" y="1246" on="1"/>
        <pt x="800" y="1272" on="0"/>
        <pt x="901" y="1272" on="1"/>
        <pt x="1118" y="1272" on="0"/>
        <pt x="1228" y="1171" on="1"/>
        <pt x="1146" y="839" on="1"/>
        <pt x="1065" y="852" on="1"/>
        <pt x="1061" y="1072" on="1"/>
        <pt x="1033" y="1121" on="0"/>
        <pt x="913" y="1176" on="0"/>
        <pt x="828" y="1176" on="1"/>
        <pt x="741" y="1176" on="0"/>
        <pt x="579" y="1084" on="0"/>
        <pt x="516" y="1002" on="1"/>
        <pt x="452" y="918" on="0"/>
        <pt x="380" y="677" on="0"/>
        <pt x="380" y="539" on="1"/>
        <pt x="380" y="432" on="0"/>
        <pt x="437" y="263" on="0"/>
      </contour>
    </TTGlyph>
    <TTGlyph name="Cacute" xMin="168" yMin="-25" xMax="1228" yMax="1709">
      <contour>
        <pt x="489" y="211" on="1"/>
        <pt x="592" y="106" on="0"/>
        <pt x="744" y="106" on="1"/>
        <pt x="927" y="106" on="0"/>
        <pt x="1091" y="258" on="1"/>
        <pt x="1129" y="203" on="1"/>
        <pt x="1031" y="87" on="0"/>
        <pt x="782" y="-25" on="0"/>
        <pt x="648" y="-25" on="1"/>
        <pt x="449" y="-25" on="0"/>
        <pt x="311" y="105" on="1"/>
        <pt x="243" y="168" on="0"/>
        <pt x="168" y="364" on="0"/>
        <pt x="168" y="483" on="1"/>
        <pt x="168" y="629" on="0"/>
        <pt x="227" y="780" on="1"/>
        <pt x="292" y="948" on="0"/>
        <pt x="406" y="1063" on="1"/>
        <pt x="538" y="1197" on="0"/>
        <pt x="706" y="1246" on="1"/>
        <pt x="800" y="1272" on="0"/>
        <pt x="901" y="1272" on="1"/>
        <pt x="1118" y="1272" on="0"/>
        <pt x="1228" y="1171" on="1"/>
        <pt x="1146" y="839" on="1"/>
        <pt x="1065" y="852" on="1"/>
        <pt x="1061" y="1072" on="1"/>
        <pt x="1033" y="1121" on="0"/>
        <pt x="913" y="1176" on="0"/>
        <pt x="828" y="1176" on="1"/>
        <pt x="741" y="1176" on="0"/>
        <pt x="579" y="1084" on="0"/>
        <pt x="516" y="1002" on="1"/>
        <pt x="452" y="918" on="0"/>
        <pt x="380" y="677" on="0"/>
        <pt x="380" y="539" on="1"/>
        <pt x="380" y="432" on="0"/>
        <pt x="437" y="263" on="0"/>
      </contour>
      <contour>
        <pt x="1167" y="1669" on="1"/>
        <pt x="983" y="1352" on="1"/>
        <pt x="932" y="1383" on="1"/>
        <pt x="1055" y="1709" on="1"/>
      </contour>
    </TTGlyph>
    <TTGlyph name="Ccaron" xMin="168" yMin="-25" xMax="1228" yMax="1586">
      <contour>
        <pt x="489" y="211" on="1"/>
        <pt x="592" y="106" on="0"/>
        <pt x="744" y="106" on="1"/>
        <pt x="927" y="106" on="0"/>
        <pt x="1091" y="258" on="1"/>
        <pt x="1129" y="203" on="1"/>
        <pt x="1031" y="87" on="0"/>
        <pt x="782" y="-25" on="0"/>
        <pt x="648" y="-25" on="1"/>
        <pt x="449" y="-25" on="0"/>
        <pt x="311" y="105" on="1"/>
        <pt x="243" y="168" on="0"/>
        <pt x="168" y="364" on="0"/>
        <pt x="168" y="483" on="1"/>
        <pt x="168" y="629" on="0"/>
        <pt x="227" y="780" on="1"/>
        <pt x="292" y="948" on="0"/>
        <pt x="406" y="1063" on="1"/>
        <pt x="538" y="1197" on="0"/>
        <pt x="706" y="1246" on="1"/>
        <pt x="800" y="1272" on="0"/>
        <pt x="901" y="1272" on="1"/>
        <pt x="1118" y="1272" on="0"/>
        <pt x="1228" y="1171" on="1"/>
        <pt x="1146" y="839" on="1"/>
        <pt x="1065" y="852" on="1"/>
        <pt x="1061" y="1072" on="1"/>
        <pt x="1033" y="1121" on="0"/>
        <pt x="913" y="1176" on="0"/>
        <pt x="828" y="1176" on="1"/>
        <pt x="741" y="1176" on="0"/>
        <pt x="579" y="1084" on="0"/>
        <pt x="516" y="1002" on="1"/>
        <pt x="452" y="918" on="0"/>
        <pt x="380" y="677" on="0"/>
        <pt x="380" y="539" on="1"/>
        <pt x="380" y="432" on="0"/>
        <pt x="437" y="263" on="0"/>
      </contour>
      <contour>
        <pt x="886" y="1360" on="1"/>
        <pt x="706" y="1525" on="1"/>
        <pt x="787" y="1586" on="1"/>
        <pt x="935" y="1443" on="1"/>
        <pt x="945" y="1443" on="1"/>
        <pt x="1069" y="1583" on="1"/>
        <pt x="1113" y="1553" on="1"/>
        <pt x="940" y="1373" on="1"/>
      </contour>
    </TTGlyph>
    <TTGlyph name="Ccedilla" xMin="169" yMin="-390" xMax="1229" yMax="1272">
      <contour>
        <pt x="682" y="-76" on="1"/>
        <pt x="771" y="-155" on="0"/>
        <pt x="771" y="-227" on="1"/>
        <pt x="771" y="-330" on="0"/>
        <pt x="571" y="-390" on="1"/>
        <pt x="551" y="-331" on="1"/>
        <pt x="592" y="-317" on="0"/>
        <pt x="637" y="-272" on="0"/>
        <pt x="637" y="-248" on="1"/>
        <pt x="637" y="-207" on="0"/>
        <pt x="564" y="-137" on="1"/>
        <pt x="642" y="-25" on="1"/>
        <pt x="444" y="-21" on="0"/>
        <pt x="310" y="108" on="1"/>
        <pt x="244" y="171" on="0"/>
        <pt x="169" y="366" on="0"/>
        <pt x="169" y="483" on="1"/>
        <pt x="169" y="629" on="0"/>
        <pt x="228" y="780" on="1"/>
        <pt x="293" y="948" on="0"/>
        <pt x="407" y="1063" on="1"/>
        <pt x="539" y="1197" on="0"/>
        <pt x="706" y="1246" on="1"/>
        <pt x="800" y="1272" on="0"/>
        <pt x="902" y="1272" on="1"/>
        <pt x="1119" y="1272" on="0"/>
        <pt x="1229" y="1171" on="1"/>
        <pt x="1146" y="839" on="1"/>
        <pt x="1065" y="852" on="1"/>
        <pt x="1062" y="1072" on="1"/>
        <pt x="1034" y="1121" on="0"/>
        <pt x="914" y="1176" on="0"/>
        <pt x="829" y="1176" on="1"/>
        <pt x="742" y="1176" on="0"/>
        <pt x="580" y="1084" on="0"/>
        <pt x="517" y="1002" on="1"/>
        <pt x="453" y="918" on="0"/>
        <pt x="380" y="677" on="0"/>
        <pt x="380" y="539" on="1"/>
        <pt x="380" y="432" on="0"/>
        <pt x="438" y="263" on="0"/>
        <pt x="490" y="211" on="1"/>
        <pt x="593" y="106" on="0"/>
        <pt x="744" y="106" on="1"/>
        <pt x="927" y="106" on="0"/>
        <pt x="1092" y="258" on="1"/>
        <pt x="1130" y="203" on="1"/>
        <pt x="962" y="6" on="0"/>
        <pt x="720" y="-22" on="1"/>
      </contour>
    </TTGlyph>
    <TTGlyph name="Cdotaccent" xMin="168" yMin="-25" xMax="1228" yMax="1595">
      <contour>
        <pt x="489" y="211" on="1"/>
        <pt x="592" y="106" on="0"/>
        <pt x="744" y="106" on="1"/>
        <pt x="927" y="106" on="0"/>
        <pt x="1091" y="258" on="1"/>
        <pt x="1129" y="203" on="1"/>
        <pt x="1031" y="87" on="0"/>
        <pt x="782" y="-25" on="0"/>
        <pt x="648" y="-25" on="1"/>
        <pt x="449" y="-25" on="0"/>
        <pt x="311" y="105" on="1"/>
        <pt x="243" y="168" on="0"/>
        <pt x="168" y="364" on="0"/>
        <pt x="168" y="483" on="1"/>
        <pt x="168" y="629" on="0"/>
        <pt x="227" y="780" on="1"/>
        <pt x="292" y="948" on="0"/>
        <pt x="406" y="1063" on="1"/>
        <pt x="538" y="1197" on="0"/>
        <pt x="706" y="1246" on="1"/>
        <pt x="800" y="1272" on="0"/>
        <pt x="901" y="1272" on="1"/>
        <pt x="1118" y="1272" on="0"/>
        <pt x="1228" y="1171" on="1"/>
        <pt x="1146" y="839" on="1"/>
        <pt x="1065" y="852" on="1"/>
        <pt x="1061" y="1072" on="1"/>
        <pt x="1033" y="1121" on="0"/>
        <pt x="913" y="1176" on="0"/>
        <pt x="828" y="1176" on="1"/>
        <pt x="741" y="1176" on="0"/>
        <pt x="579" y="1084" on="0"/>
        <pt x="516" y="1002" on="1"/>
        <pt x="452" y="918" on="0"/>
        <pt x="380" y="677" on="0"/>
        <pt x="380" y="539" on="1"/>
        <pt x="380" y="432" on="0"/>
        <pt x="437" y="263" on="0"/>
      </contour>
      <contour>
        <pt x="1065" y="1481" on="1"/>
        <pt x="1065" y="1431" on="0"/>
        <pt x="993" y="1358" on="0"/>
        <pt x="893" y="1358" on="0"/>
        <pt x="824" y="1430" on="0"/>
        <pt x="824" y="1481" on="1"/>
        <pt x="824" y="1528" on="0"/>
        <pt x="895" y="1595" on="0"/>
        <pt x="943" y="1595" on="1"/>
        <pt x="993" y="1595" on="0"/>
        <pt x="1065" y="1528" on="0"/>
      </contour>
    </TTGlyph>
    <TTGlyph name="D" xMin="72" yMin="0" xMax="1382" yMax="1261">
      <contour>
        <pt x="441" y="104" on="1"/>
        <pt x="581" y="104" on="1"/>
        <pt x="708" y="104" on="0"/>
        <pt x="932" y="201" on="0"/>
        <pt x="1008" y="285" on="1"/>
        <pt x="1083" y="369" on="0"/>
        <pt x="1167" y="586" on="0"/>
        <pt x="1167" y="703" on="1"/>
        <pt x="1167" y="897" on="0"/>
        <pt x="1060" y="1023" on="1"/>
        <pt x="1006" y="1087" on="0"/>
        <pt x="833" y="1158" on="0"/>
        <pt x="724" y="1158" on="1"/>
        <pt x="664" y="1158" on="0"/>
        <pt x="606" y="1151" on="1"/>
      </contour>
      <contour>
        <pt x="1189" y="1163" on="1"/>
        <pt x="1256" y="1119" on="0"/>
        <pt x="1345" y="992" on="0"/>
        <pt x="1364" y="919" on="1"/>
        <pt x="1382" y="850" on="0"/>
        <pt x="1382" y="766" on="1"/>
        <pt x="1382" y="528" on="0"/>
        <pt x="1229" y="330" on="1"/>
        <pt x="1069" y="124" on="0"/>
        <pt x="813" y="43" on="1"/>
        <pt x="678" y="0" on="0"/>
        <pt x="525" y="0" on="1"/>
        <pt x="72" y="0" on="1"/>
        <pt x="92" y="74" on="1"/>
        <pt x="264" y="129" on="1"/>
        <pt x="418" y="1105" on="1"/>
        <pt x="257" y="1135" on="1"/>
        <pt x="277" y="1211" on="1"/>
        <pt x="582" y="1261" on="0"/>
        <pt x="777" y="1261" on="1"/>
        <pt x="1040" y="1261" on="0"/>
      </contour>
    </TTGlyph>
    <TTGlyph name="Dcaron" xMin="72" yMin="0" xMax="1382" yMax="1586">
      <contour>
        <pt x="441" y="104" on="1"/>
        <pt x="581" y="104" on="1"/>
        <pt x="708" y="104" on="0"/>
        <pt x="932" y="201" on="0"/>
        <pt x="1008" y="285" on="1"/>
        <pt x="1083" y="369" on="0"/>
        <pt x="1167" y="586" on="0"/>
        <pt x="1167" y="703" on="1"/>
        <pt x="1167" y="897" on="0"/>
        <pt x="1060" y="1023" on="1"/>
        <pt x="1006" y="1087" on="0"/>
        <pt x="833" y="1158" on="0"/>
        <pt x="724" y="1158" on="1"/>
        <pt x="664" y="1158" on="0"/>
        <pt x="606" y="1151" on="1"/>
      </contour>
      <contour>
        <pt x="1189" y="1163" on="1"/>
        <pt x="1256" y="1119" on="0"/>
        <pt x="1345" y="992" on="0"/>
        <pt x="1364" y="919" on="1"/>
        <pt x="1382" y="850" on="0"/>
        <pt x="1382" y="766" on="1"/>
        <pt x="1382" y="528" on="0"/>
        <pt x="1229" y="330" on="1"/>
        <pt x="1069" y="124" on="0"/>
        <pt x="813" y="43" on="1"/>
        <pt x="678" y="0" on="0"/>
        <pt x="525" y="0" on="1"/>
        <pt x="72" y="0" on="1"/>
        <pt x="92" y="74" on="1"/>
        <pt x="264" y="129" on="1"/>
        <pt x="418" y="1105" on="1"/>
        <pt x="257" y="1135" on="1"/>
        <pt x="277" y="1211" on="1"/>
        <pt x="582" y="1261" on="0"/>
        <pt x="777" y="1261" on="1"/>
        <pt x="1040" y="1261" on="0"/>
      </contour>
      <contour>
        <pt x="856" y="1360" on="1"/>
        <pt x="676" y="1525" on="1"/>
        <pt x="757" y="1586" on="1"/>
        <pt x="906" y="1443" on="1"/>
        <pt x="916" y="1443" on="1"/>
        <pt x="1040" y="1583" on="1"/>
        <pt x="1083" y="1553" on="1"/>
        <pt x="911" y="1373" on="1"/>
      </contour>
    </TTGlyph>
    <TTGlyph name="Dcroat" xMin="72" yMin="0" xMax="1382" yMax="1481">
      <contour>
        <pt x="441" y="104" on="1"/>
        <pt x="581" y="104" on="1"/>
        <pt x="708" y="104" on="0"/>
        <pt x="932" y="201" on="0"/>
        <pt x="1008" y="285" on="1"/>
        <pt x="1083" y="369" on="0"/>
        <pt x="1167" y="586" on="0"/>
        <pt x="1167" y="703" on="1"/>
        <pt x="1167" y="897" on="0"/>
        <pt x="1060" y="1023" on="1"/>
        <pt x="1006" y="1087" on="0"/>
        <pt x="833" y="1158" on="0"/>
        <pt x="724" y="1158" on="1"/>
        <pt x="664" y="1158" on="0"/>
        <pt x="606" y="1151" on="1"/>
      </contour>
      <contour>
        <pt x="1189" y="1163" on="1"/>
        <pt x="1256" y="1119" on="0"/>
        <pt x="1345" y="992" on="0"/>
        <pt x="1364" y="919" on="1"/>
        <pt x="1382" y="850" on="0"/>
        <pt x="1382" y="766" on="1"/>
        <pt x="1382" y="528" on="0"/>
        <pt x="1229" y="330" on="1"/>
        <pt x="1069" y="124" on="0"/>
        <pt x="813" y="43" on="1"/>
        <pt x="678" y="0" on="0"/>
        <pt x="525" y="0" on="1"/>
        <pt x="72" y="0" on="1"/>
        <pt x="92" y="74" on="1"/>
        <pt x="264" y="129" on="1"/>
        <pt x="418" y="1105" on="1"/>
        <pt x="257" y="1135" on="1"/>
        <pt x="277" y="1211" on="1"/>
        <pt x="582" y="1261" on="0"/>
        <pt x="777" y="1261" on="1"/>
        <pt x="1040" y="1261" on="0"/>
      </contour>
      <contour>
        <pt x="664" y="1481" on="1"/>
        <pt x="1106" y="1481" on="1"/>
        <pt x="1093" y="1381" on="1"/>
        <pt x="651" y="1381" on="1"/>
      </contour>
    </TTGlyph>
    <TTGlyph name="E" xMin="83" yMin="0" xMax="1226" yMax="1246">
      <contour>
        <pt x="271" y="1246" on="1"/>
        <pt x="1226" y="1246" on="1"/>
        <pt x="1146" y="926" on="1"/>
        <pt x="1065" y="940" on="1"/>
        <pt x="1060" y="1155" on="1"/>
        <pt x="609" y="1155" on="1"/>
        <pt x="534" y="678" on="1"/>
        <pt x="812" y="678" on="1"/>
        <pt x="873" y="797" on="1"/>
        <pt x="964" y="811" on="1"/>
        <pt x="872" y="422" on="1"/>
        <pt x="787" y="409" on="1"/>
        <pt x="782" y="584" on="1"/>
        <pt x="519" y="584" on="1"/>
        <pt x="442" y="96" on="1"/>
        <pt x="916" y="96" on="1"/>
        <pt x="1047" y="326" on="1"/>
        <pt x="1125" y="314" on="1"/>
        <pt x="1046" y="0" on="1"/>
        <pt x="83" y="0" on="1"/>
        <pt x="98" y="74" on="1"/>
        <pt x="263" y="121" on="1"/>
        <pt x="422" y="1128" on="1"/>
        <pt x="255" y="1170" on="1"/>
      </contour>
    </TTGlyph>
    <TTGlyph name="Eacute" xMin="83" yMin="0" xMax="1226" yMax="1709">
      <contour>
        <pt x="271" y="1246" on="1"/>
        <pt x="1226" y="1246" on="1"/>
        <pt x="1146" y="926" on="1"/>
        <pt x="1065" y="940" on="1"/>
        <pt x="1060" y="1155" on="1"/>
        <pt x="609" y="1155" on="1"/>
        <pt x="534" y="678" on="1"/>
        <pt x="812" y="678" on="1"/>
        <pt x="873" y="797" on="1"/>
        <pt x="964" y="811" on="1"/>
        <pt x="872" y="422" on="1"/>
        <pt x="787" y="409" on="1"/>
        <pt x="782" y="584" on="1"/>
        <pt x="519" y="584" on="1"/>
        <pt x="442" y="96" on="1"/>
        <pt x="916" y="96" on="1"/>
        <pt x="1047" y="326" on="1"/>
        <pt x="1125" y="314" on="1"/>
        <pt x="1046" y="0" on="1"/>
        <pt x="83" y="0" on="1"/>
        <pt x="98" y="74" on="1"/>
        <pt x="263" y="121" on="1"/>
        <pt x="422" y="1128" on="1"/>
        <pt x="255" y="1170" on="1"/>
      </contour>
      <contour>
        <pt x="1026" y="1669" on="1"/>
        <pt x="842" y="1352" on="1"/>
        <pt x="791" y="1383" on="1"/>
        <pt x="913" y="1709" on="1"/>
      </contour>
    </TTGlyph>
    <TTGlyph name="Ecaron" xMin="83" yMin="0" xMax="1226" yMax="1586">
      <contour>
        <pt x="271" y="1246" on="1"/>
        <pt x="1226" y="1246" on="1"/>
        <pt x="1146" y="926" on="1"/>
        <pt x="1065" y="940" on="1"/>
        <pt x="1060" y="1155" on="1"/>
        <pt x="609" y="1155" on="1"/>
        <pt x="534" y="678" on="1"/>
        <pt x="812" y="678" on="1"/>
        <pt x="873" y="797" on="1"/>
        <pt x="964" y="811" on="1"/>
        <pt x="872" y="422" on="1"/>
        <pt x="787" y="409" on="1"/>
        <pt x="782" y="584" on="1"/>
        <pt x="519" y="584" on="1"/>
        <pt x="442" y="96" on="1"/>
        <pt x="916" y="96" on="1"/>
        <pt x="1047" y="326" on="1"/>
        <pt x="1125" y="314" on="1"/>
        <pt x="1046" y="0" on="1"/>
        <pt x="83" y="0" on="1"/>
        <pt x="98" y="74" on="1"/>
        <pt x="263" y="121" on="1"/>
        <pt x="422" y="1128" on="1"/>
        <pt x="255" y="1170" on="1"/>
      </contour>
      <contour>
        <pt x="778" y="1360" on="1"/>
        <pt x="596" y="1525" on="1"/>
        <pt x="678" y="1586" on="1"/>
        <pt x="827" y="1443" on="1"/>
        <pt x="837" y="1443" on="1"/>
        <pt x="961" y="1583" on="1"/>
        <pt x="1004" y="1553" on="1"/>
        <pt x="832" y="1373" on="1"/>
      </contour>
    </TTGlyph>
    <TTGlyph name="Ecircumflex" xMin="83" yMin="0" xMax="1226" yMax="1583">
      <contour>
        <pt x="271" y="1246" on="1"/>
        <pt x="1226" y="1246" on="1"/>
        <pt x="1146" y="926" on="1"/>
        <pt x="1065" y="940" on="1"/>
        <pt x="1060" y="1155" on="1"/>
        <pt x="609" y="1155" on="1"/>
        <pt x="534" y="678" on="1"/>
        <pt x="812" y="678" on="1"/>
        <pt x="873" y="797" on="1"/>
        <pt x="964" y="811" on="1"/>
        <pt x="872" y="422" on="1"/>
        <pt x="787" y="409" on="1"/>
        <pt x="782" y="584" on="1"/>
        <pt x="519" y="584" on="1"/>
        <pt x="442" y="96" on="1"/>
        <pt x="916" y="96" on="1"/>
        <pt x="1047" y="326" on="1"/>
        <pt x="1125" y="314" on="1"/>
        <pt x="1046" y="0" on="1"/>
        <pt x="83" y="0" on="1"/>
        <pt x="98" y="74" on="1"/>
        <pt x="263" y="121" on="1"/>
        <pt x="422" y="1128" on="1"/>
        <pt x="255" y="1170" on="1"/>
      </contour>
      <contour>
        <pt x="822" y="1583" on="1"/>
        <pt x="1001" y="1397" on="1"/>
        <pt x="951" y="1361" on="1"/>
        <pt x="787" y="1471" on="1"/>
        <pt x="778" y="1471" on="1"/>
        <pt x="637" y="1360" on="1"/>
        <pt x="599" y="1390" on="1"/>
        <pt x="768" y="1570" on="1"/>
      </contour>
    </TTGlyph>
    <TTGlyph name="Edieresis" xMin="83" yMin="0" xMax="1226" yMax="1545">
      <contour>
        <pt x="271" y="1246" on="1"/>
        <pt x="1226" y="1246" on="1"/>
        <pt x="1146" y="926" on="1"/>
        <pt x="1065" y="940" on="1"/>
        <pt x="1060" y="1155" on="1"/>
        <pt x="609" y="1155" on="1"/>
        <pt x="534" y="678" on="1"/>
        <pt x="812" y="678" on="1"/>
        <pt x="873" y="797" on="1"/>
        <pt x="964" y="811" on="1"/>
        <pt x="872" y="422" on="1"/>
        <pt x="787" y="409" on="1"/>
        <pt x="782" y="584" on="1"/>
        <pt x="519" y="584" on="1"/>
        <pt x="442" y="96" on="1"/>
        <pt x="916" y="96" on="1"/>
        <pt x="1047" y="326" on="1"/>
        <pt x="1125" y="314" on="1"/>
        <pt x="1046" y="0" on="1"/>
        <pt x="83" y="0" on="1"/>
        <pt x="98" y="74" on="1"/>
        <pt x="263" y="121" on="1"/>
        <pt x="422" y="1128" on="1"/>
        <pt x="255" y="1170" on="1"/>
      </contour>
      <contour>
        <pt x="1020" y="1467" on="1"/>
        <pt x="1020" y="1432" on="0"/>
        <pt x="969" y="1386" on="0"/>
        <pt x="933" y="1386" on="1"/>
        <pt x="898" y="1386" on="0"/>
        <pt x="849" y="1433" on="0"/>
        <pt x="849" y="1501" on="0"/>
        <pt x="899" y="1545" on="0"/>
        <pt x="933" y="1545" on="1"/>
        <pt x="969" y="1545" on="0"/>
        <pt x="1020" y="1500" on="0"/>
      </contour>
      <contour>
        <pt x="751" y="1467" on="1"/>
        <pt x="751" y="1432" on="0"/>
        <pt x="701" y="1386" on="0"/>
        <pt x="665" y="1386" on="1"/>
        <pt x="630" y="1386" on="0"/>
        <pt x="581" y="1433" on="0"/>
        <pt x="581" y="1501" on="0"/>
        <pt x="631" y="1545" on="0"/>
        <pt x="665" y="1545" on="1"/>
        <pt x="701" y="1545" on="0"/>
        <pt x="751" y="1500" on="0"/>
      </contour>
    </TTGlyph>
    <TTGlyph name="Edotaccent" xMin="83" yMin="0" xMax="1226" yMax="1595">
      <contour>
        <pt x="271" y="1246" on="1"/>
        <pt x="1226" y="1246" on="1"/>
        <pt x="1146" y="926" on="1"/>
        <pt x="1065" y="940" on="1"/>
        <pt x="1060" y="1155" on="1"/>
        <pt x="609" y="1155" on="1"/>
        <pt x="534" y="678" on="1"/>
        <pt x="812" y="678" on="1"/>
        <pt x="873" y="797" on="1"/>
        <pt x="964" y="811" on="1"/>
        <pt x="872" y="422" on="1"/>
        <pt x="787" y="409" on="1"/>
        <pt x="782" y="584" on="1"/>
        <pt x="519" y="584" on="1"/>
        <pt x="442" y="96" on="1"/>
        <pt x="916" y="96" on="1"/>
        <pt x="1047" y="326" on="1"/>
        <pt x="1125" y="314" on="1"/>
        <pt x="1046" y="0" on="1"/>
        <pt x="83" y="0" on="1"/>
        <pt x="98" y="74" on="1"/>
        <pt x="263" y="121" on="1"/>
        <pt x="422" y="1128" on="1"/>
        <pt x="255" y="1170" on="1"/>
      </contour>
      <contour>
        <pt x="921" y="1481" on="1"/>
        <pt x="921" y="1431" on="0"/>
        <pt x="849" y="1358" on="0"/>
        <pt x="749" y="1358" on="0"/>
        <pt x="680" y="1430" on="0"/>
        <pt x="680" y="1481" on="1"/>
        <pt x="680" y="1528" on="0"/>
        <pt x="751" y="1595" on="0"/>
        <pt x="799" y="1595" on="1"/>
        <pt x="849" y="1595" on="0"/>
        <pt x="921" y="1528" on="0"/>
      </contour>
    </TTGlyph>
    <TTGlyph name="Egrave" xMin="83" yMin="0" xMax="1226" yMax="1701">
      <contour>
        <pt x="271" y="1246" on="1"/>
        <pt x="1226" y="1246" on="1"/>
        <pt x="1146" y="926" on="1"/>
        <pt x="1065" y="940" on="1"/>
        <pt x="1060" y="1155" on="1"/>
        <pt x="609" y="1155" on="1"/>
        <pt x="534" y="678" on="1"/>
        <pt x="812" y="678" on="1"/>
        <pt x="873" y="797" on="1"/>
        <pt x="964" y="811" on="1"/>
        <pt x="872" y="422" on="1"/>
        <pt x="787" y="409" on="1"/>
        <pt x="782" y="584" on="1"/>
        <pt x="519" y="584" on="1"/>
        <pt x="442" y="96" on="1"/>
        <pt x="916" y="96" on="1"/>
        <pt x="1047" y="326" on="1"/>
        <pt x="1125" y="314" on="1"/>
        <pt x="1046" y="0" on="1"/>
        <pt x="83" y="0" on="1"/>
        <pt x="98" y="74" on="1"/>
        <pt x="263" y="121" on="1"/>
        <pt x="422" y="1128" on="1"/>
        <pt x="255" y="1170" on="1"/>
      </contour>
      <contour>
        <pt x="677" y="1663" on="1"/>
        <pt x="792" y="1701" on="1"/>
        <pt x="925" y="1366" on="1"/>
        <pt x="867" y="1332" on="1"/>
      </contour>
    </TTGlyph>
    <TTGlyph name="Emacron" xMin="83" yMin="0" xMax="1226" yMax="1481">
      <contour>
        <pt x="271" y="1246" on="1"/>
        <pt x="1226" y="1246" on="1"/>
        <pt x="1146" y="926" on="1"/>
        <pt x="1065" y="940" on="1"/>
        <pt x="1060" y="1155" on="1"/>
        <pt x="609" y="1155" on="1"/>
        <pt x="534" y="678" on="1"/>
        <pt x="812" y="678" on="1"/>
        <pt x="873" y="797" on="1"/>
        <pt x="964" y="811" on="1"/>
        <pt x="872" y="422" on="1"/>
        <pt x="787" y="409" on="1"/>
        <pt x="782" y="584" on="1"/>
        <pt x="519" y="584" on="1"/>
        <pt x="442" y="96" on="1"/>
        <pt x="916" y="96" on="1"/>
        <pt x="1047" y="326" on="1"/>
        <pt x="1125" y="314" on="1"/>
        <pt x="1046" y="0" on="1"/>
        <pt x="83" y="0" on="1"/>
        <pt x="98" y="74" on="1"/>
        <pt x="263" y="121" on="1"/>
        <pt x="422" y="1128" on="1"/>
        <pt x="255" y="1170" on="1"/>
      </contour>
      <contour>
        <pt x="586" y="1481" on="1"/>
        <pt x="1027" y="1481" on="1"/>
        <pt x="1014" y="1381" on="1"/>
        <pt x="572" y="1381" on="1"/>
      </contour>
    </TTGlyph>
    <TTGlyph name="Eng" xMin="84" yMin="-387" xMax="1501" yMax="1246">
      <contour>
        <pt x="1048" y="1246" on="1"/>
        <pt x="1501" y="1246" on="1"/>
        <pt x="1483" y="1170" on="1"/>
        <pt x="1318" y="1132" on="1"/>
        <pt x="1153" y="86" on="1"/>
        <pt x="1141" y="10" on="0"/>
        <pt x="1077" y="-136" on="0"/>
        <pt x="1036" y="-189" on="1"/>
        <pt x="1000" y="-235" on="0"/>
        <pt x="905" y="-319" on="0"/>
        <pt x="864" y="-346" on="1"/>
        <pt x="824" y="-371" on="0"/>
        <pt x="789" y="-387" on="1"/>
        <pt x="739" y="-308" on="1"/>
        <pt x="918" y="-178" on="0"/>
        <pt x="976" y="6" on="1"/>
        <pt x="517" y="963" on="1"/>
        <pt x="383" y="114" on="1"/>
        <pt x="555" y="81" on="1"/>
        <pt x="537" y="0" on="1"/>
        <pt x="84" y="0" on="1"/>
        <pt x="98" y="74" on="1"/>
        <pt x="264" y="121" on="1"/>
        <pt x="421" y="1120" on="1"/>
        <pt x="256" y="1170" on="1"/>
        <pt x="272" y="1246" on="1"/>
        <pt x="606" y="1246" on="1"/>
        <pt x="1066" y="273" on="1"/>
        <pt x="1200" y="1128" on="1"/>
        <pt x="1030" y="1170" on="1"/>
      </contour>
    </TTGlyph>
    <TTGlyph name="Eogonek" xMin="83" yMin="-374" xMax="1226" yMax="1246">
      <contour>
        <pt x="1026" y="0" on="1"/>
        <pt x="975" y="-80" on="0"/>
        <pt x="974" y="-136" on="1"/>
        <pt x="974" y="-251" on="0"/>
        <pt x="1098" y="-323" on="1"/>
        <pt x="1064" y="-374" on="1"/>
        <pt x="959" y="-363" on="0"/>
        <pt x="825" y="-262" on="0"/>
        <pt x="825" y="-195" on="1"/>
        <pt x="825" y="-150" on="0"/>
        <pt x="878" y="-63" on="0"/>
        <pt x="946" y="0" on="1"/>
        <pt x="83" y="0" on="1"/>
        <pt x="98" y="74" on="1"/>
        <pt x="263" y="121" on="1"/>
        <pt x="422" y="1128" on="1"/>
        <pt x="255" y="1170" on="1"/>
        <pt x="271" y="1246" on="1"/>
        <pt x="1226" y="1246" on="1"/>
        <pt x="1146" y="926" on="1"/>
        <pt x="1065" y="940" on="1"/>
        <pt x="1060" y="1155" on="1"/>
        <pt x="609" y="1155" on="1"/>
        <pt x="534" y="678" on="1"/>
        <pt x="812" y="678" on="1"/>
        <pt x="873" y="797" on="1"/>
        <pt x="964" y="811" on="1"/>
        <pt x="872" y="422" on="1"/>
        <pt x="787" y="409" on="1"/>
        <pt x="782" y="584" on="1"/>
        <pt x="519" y="584" on="1"/>
        <pt x="442" y="96" on="1"/>
        <pt x="916" y="96" on="1"/>
        <pt x="1047" y="326" on="1"/>
        <pt x="1125" y="314" on="1"/>
        <pt x="1046" y="0" on="1"/>
      </contour>
    </TTGlyph>
    <TTGlyph name="Eth" xMin="73" yMin="0" xMax="1383" yMax="1261">
      <contour>
        <pt x="514" y="562" on="1"/>
        <pt x="442" y="104" on="1"/>
        <pt x="582" y="104" on="1"/>
        <pt x="709" y="104" on="0"/>
        <pt x="933" y="202" on="0"/>
        <pt x="1009" y="286" on="1"/>
        <pt x="1084" y="370" on="0"/>
        <pt x="1168" y="587" on="0"/>
        <pt x="1168" y="705" on="1"/>
        <pt x="1168" y="903" on="0"/>
        <pt x="1061" y="1026" on="1"/>
        <pt x="1007" y="1089" on="0"/>
        <pt x="835" y="1158" on="0"/>
        <pt x="725" y="1158" on="1"/>
        <pt x="665" y="1158" on="0"/>
        <pt x="607" y="1151" on="1"/>
        <pt x="529" y="662" on="1"/>
        <pt x="817" y="675" on="1"/>
        <pt x="789" y="574" on="1"/>
      </contour>
      <contour>
        <pt x="1189" y="1163" on="1"/>
        <pt x="1255" y="1119" on="0"/>
        <pt x="1346" y="993" on="0"/>
        <pt x="1365" y="921" on="1"/>
        <pt x="1383" y="852" on="0"/>
        <pt x="1383" y="769" on="1"/>
        <pt x="1383" y="528" on="0"/>
        <pt x="1230" y="331" on="1"/>
        <pt x="1070" y="124" on="0"/>
        <pt x="814" y="43" on="1"/>
        <pt x="679" y="0" on="0"/>
        <pt x="526" y="0" on="1"/>
        <pt x="73" y="0" on="1"/>
        <pt x="93" y="74" on="1"/>
        <pt x="265" y="129" on="1"/>
        <pt x="333" y="554" on="1"/>
        <pt x="180" y="548" on="1"/>
        <pt x="207" y="648" on="1"/>
        <pt x="347" y="655" on="1"/>
        <pt x="419" y="1105" on="1"/>
        <pt x="258" y="1135" on="1"/>
        <pt x="278" y="1211" on="1"/>
        <pt x="583" y="1261" on="0"/>
        <pt x="778" y="1261" on="1"/>
        <pt x="1040" y="1261" on="0"/>
      </contour>
    </TTGlyph>
    <TTGlyph name="Euro" xMin="136" yMin="-25" xMax="1281" yMax="1272">
      <contour>
        <pt x="1056" y="394" on="1"/>
        <pt x="1146" y="407" on="1"/>
        <pt x="1131" y="111" on="1"/>
        <pt x="1024" y="37" on="0"/>
        <pt x="836" y="-25" on="0"/>
        <pt x="714" y="-25" on="1"/>
        <pt x="575" y="-25" on="0"/>
        <pt x="363" y="84" on="0"/>
        <pt x="301" y="191" on="1"/>
        <pt x="237" y="299" on="0"/>
        <pt x="237" y="450" on="1"/>
        <pt x="237" y="460" on="0"/>
        <pt x="239" y="476" on="0"/>
        <pt x="239" y="486" on="1"/>
        <pt x="136" y="486" on="1"/>
        <pt x="171" y="592" on="1"/>
        <pt x="249" y="592" on="1"/>
        <pt x="254" y="623" on="0"/>
        <pt x="262" y="662" on="1"/>
        <pt x="170" y="662" on="1"/>
        <pt x="204" y="768" on="1"/>
        <pt x="294" y="768" on="1"/>
        <pt x="352" y="932" on="0"/>
        <pt x="464" y="1055" on="1"/>
        <pt x="590" y="1192" on="0"/>
        <pt x="765" y="1244" on="1"/>
        <pt x="859" y="1272" on="0"/>
        <pt x="969" y="1272" on="1"/>
        <pt x="1072" y="1272" on="0"/>
        <pt x="1220" y="1225" on="0"/>
        <pt x="1281" y="1171" on="1"/>
        <pt x="1197" y="839" on="1"/>
        <pt x="1113" y="852" on="1"/>
        <pt x="1106" y="1072" on="1"/>
        <pt x="1073" y="1127" on="0"/>
        <pt x="981" y="1176" on="0"/>
        <pt x="896" y="1176" on="1"/>
        <pt x="757" y="1176" on="0"/>
        <pt x="546" y="961" on="0"/>
        <pt x="495" y="768" on="1"/>
        <pt x="1041" y="768" on="1"/>
        <pt x="995" y="662" on="1"/>
        <pt x="474" y="662" on="1"/>
        <pt x="474" y="660" on="1"/>
        <pt x="467" y="604" on="0"/>
        <pt x="466" y="592" on="1"/>
        <pt x="969" y="592" on="1"/>
        <pt x="922" y="486" on="1"/>
        <pt x="461" y="486" on="1"/>
        <pt x="461" y="485" on="1"/>
        <pt x="461" y="292" on="0"/>
        <pt x="628" y="84" on="0"/>
        <pt x="780" y="84" on="1"/>
        <pt x="902" y="84" on="0"/>
        <pt x="980" y="174" on="1"/>
      </contour>
    </TTGlyph>
    <TTGlyph name="F" xMin="83" yMin="0" xMax="1224" yMax="1246">
      <contour>
        <pt x="273" y="1246" on="1"/>
        <pt x="1224" y="1246" on="1"/>
        <pt x="1135" y="925" on="1"/>
        <pt x="1054" y="938" on="1"/>
        <pt x="1054" y="1155" on="1"/>
        <pt x="609" y="1155" on="1"/>
        <pt x="533" y="672" on="1"/>
        <pt x="807" y="672" on="1"/>
        <pt x="868" y="792" on="1"/>
        <pt x="955" y="806" on="1"/>
        <pt x="868" y="414" on="1"/>
        <pt x="781" y="399" on="1"/>
        <pt x="779" y="579" on="1"/>
        <pt x="518" y="579" on="1"/>
        <pt x="445" y="122" on="1"/>
        <pt x="667" y="84" on="1"/>
        <pt x="647" y="0" on="1"/>
        <pt x="83" y="0" on="1"/>
        <pt x="98" y="74" on="1"/>
        <pt x="263" y="121" on="1"/>
        <pt x="422" y="1128" on="1"/>
        <pt x="255" y="1170" on="1"/>
      </contour>
    </TTGlyph>
    <TTGlyph name="G" xMin="170" yMin="-31" xMax="1331" yMax="1262">
      <contour>
        <pt x="1227" y="842" on="1"/>
        <pt x="1146" y="857" on="1"/>
        <pt x="1142" y="1049" on="1"/>
        <pt x="1112" y="1099" on="0"/>
        <pt x="961" y="1163" on="0"/>
        <pt x="848" y="1163" on="1"/>
        <pt x="702" y="1163" on="0"/>
        <pt x="588" y="1075" on="1"/>
        <pt x="461" y="977" on="0"/>
        <pt x="412" y="780" on="1"/>
        <pt x="385" y="672" on="0"/>
        <pt x="385" y="539" on="1"/>
        <pt x="385" y="311" on="0"/>
        <pt x="579" y="76" on="0"/>
        <pt x="772" y="76" on="1"/>
        <pt x="897" y="76" on="0"/>
        <pt x="950" y="122" on="1"/>
        <pt x="1000" y="435" on="1"/>
        <pt x="780" y="473" on="1"/>
        <pt x="800" y="556" on="1"/>
        <pt x="1331" y="556" on="1"/>
        <pt x="1313" y="481" on="1"/>
        <pt x="1189" y="440" on="1"/>
        <pt x="1134" y="88" on="1"/>
        <pt x="1049" y="31" on="0"/>
        <pt x="794" y="-31" on="0"/>
        <pt x="639" y="-31" on="1"/>
        <pt x="522" y="-31" on="0"/>
        <pt x="337" y="47" on="0"/>
        <pt x="281" y="118" on="1"/>
        <pt x="169" y="259" on="0"/>
        <pt x="170" y="467" on="1"/>
        <pt x="170" y="611" on="0"/>
        <pt x="255" y="870" on="0"/>
        <pt x="329" y="966" on="1"/>
        <pt x="481" y="1160" on="0"/>
        <pt x="699" y="1229" on="1"/>
        <pt x="803" y="1262" on="0"/>
        <pt x="912" y="1262" on="1"/>
        <pt x="1178" y="1262" on="0"/>
        <pt x="1304" y="1165" on="1"/>
      </contour>
    </TTGlyph>
    <TTGlyph name="Gbreve" xMin="170" yMin="-31" xMax="1331" yMax="1588">
      <contour>
        <pt x="1227" y="842" on="1"/>
        <pt x="1146" y="857" on="1"/>
        <pt x="1142" y="1049" on="1"/>
        <pt x="1112" y="1099" on="0"/>
        <pt x="961" y="1163" on="0"/>
        <pt x="848" y="1163" on="1"/>
        <pt x="702" y="1163" on="0"/>
        <pt x="588" y="1075" on="1"/>
        <pt x="461" y="977" on="0"/>
        <pt x="412" y="780" on="1"/>
        <pt x="385" y="672" on="0"/>
        <pt x="385" y="539" on="1"/>
        <pt x="385" y="311" on="0"/>
        <pt x="579" y="76" on="0"/>
        <pt x="772" y="76" on="1"/>
        <pt x="897" y="76" on="0"/>
        <pt x="950" y="122" on="1"/>
        <pt x="1000" y="435" on="1"/>
        <pt x="780" y="473" on="1"/>
        <pt x="800" y="556" on="1"/>
        <pt x="1331" y="556" on="1"/>
        <pt x="1313" y="481" on="1"/>
        <pt x="1189" y="440" on="1"/>
        <pt x="1134" y="88" on="1"/>
        <pt x="1049" y="31" on="0"/>
        <pt x="794" y="-31" on="0"/>
        <pt x="639" y="-31" on="1"/>
        <pt x="522" y="-31" on="0"/>
        <pt x="337" y="47" on="0"/>
        <pt x="281" y="118" on="1"/>
        <pt x="169" y="259" on="0"/>
        <pt x="170" y="467" on="1"/>
        <pt x="170" y="611" on="0"/>
        <pt x="255" y="870" on="0"/>
        <pt x="329" y="966" on="1"/>
        <pt x="481" y="1160" on="0"/>
        <pt x="699" y="1229" on="1"/>
        <pt x="803" y="1262" on="0"/>
        <pt x="912" y="1262" on="1"/>
        <pt x="1178" y="1262" on="0"/>
        <pt x="1304" y="1165" on="1"/>
      </contour>
      <contour>
        <pt x="745" y="1555" on="1"/>
        <pt x="792" y="1586" on="1"/>
        <pt x="800" y="1570" on="1"/>
        <pt x="818" y="1534" on="0"/>
        <pt x="891" y="1486" on="0"/>
        <pt x="935" y="1486" on="1"/>
        <pt x="1024" y="1486" on="0"/>
        <pt x="1078" y="1572" on="1"/>
        <pt x="1088" y="1588" on="1"/>
        <pt x="1129" y="1560" on="1"/>
        <pt x="1122" y="1540" on="1"/>
        <pt x="1098" y="1466" on="0"/>
        <pt x="1002" y="1376" on="0"/>
        <pt x="935" y="1376" on="1"/>
        <pt x="864" y="1376" on="0"/>
        <pt x="768" y="1465" on="0"/>
        <pt x="750" y="1535" on="1"/>
      </contour>
    </TTGlyph>
    <TTGlyph name="Gcommaaccent" xMin="170" yMin="-400" xMax="1331" yMax="1262">
      <contour>
        <pt x="1227" y="842" on="1"/>
        <pt x="1146" y="857" on="1"/>
        <pt x="1142" y="1049" on="1"/>
        <pt x="1112" y="1099" on="0"/>
        <pt x="961" y="1163" on="0"/>
        <pt x="848" y="1163" on="1"/>
        <pt x="702" y="1163" on="0"/>
        <pt x="588" y="1075" on="1"/>
        <pt x="461" y="977" on="0"/>
        <pt x="412" y="780" on="1"/>
        <pt x="385" y="672" on="0"/>
        <pt x="385" y="539" on="1"/>
        <pt x="385" y="311" on="0"/>
        <pt x="579" y="76" on="0"/>
        <pt x="772" y="76" on="1"/>
        <pt x="897" y="76" on="0"/>
        <pt x="950" y="122" on="1"/>
        <pt x="1000" y="435" on="1"/>
        <pt x="780" y="473" on="1"/>
        <pt x="800" y="556" on="1"/>
        <pt x="1331" y="556" on="1"/>
        <pt x="1313" y="481" on="1"/>
        <pt x="1189" y="440" on="1"/>
        <pt x="1134" y="88" on="1"/>
        <pt x="1049" y="31" on="0"/>
        <pt x="794" y="-31" on="0"/>
        <pt x="639" y="-31" on="1"/>
        <pt x="522" y="-31" on="0"/>
        <pt x="337" y="47" on="0"/>
        <pt x="281" y="118" on="1"/>
        <pt x="169" y="259" on="0"/>
        <pt x="170" y="467" on="1"/>
        <pt x="170" y="611" on="0"/>
        <pt x="255" y="870" on="0"/>
        <pt x="329" y="966" on="1"/>
        <pt x="481" y="1160" on="0"/>
        <pt x="699" y="1229" on="1"/>
        <pt x="803" y="1262" on="0"/>
        <pt x="912" y="1262" on="1"/>
        <pt x="1178" y="1262" on="0"/>
        <pt x="1304" y="1165" on="1"/>
      </contour>
      <contour>
        <pt x="537" y="-361" on="1"/>
        <pt x="591" y="-346" on="0"/>
        <pt x="659" y="-283" on="0"/>
        <pt x="659" y="-253" on="1"/>
        <pt x="659" y="-226" on="0"/>
        <pt x="629" y="-195" on="0"/>
        <pt x="600" y="-195" on="1"/>
        <pt x="596" y="-195" on="0"/>
        <pt x="583" y="-199" on="1"/>
        <pt x="578" y="-182" on="0"/>
        <pt x="578" y="-167" on="1"/>
        <pt x="578" y="-136" on="0"/>
        <pt x="634" y="-89" on="0"/>
        <pt x="663" y="-89" on="1"/>
        <pt x="749" y="-89" on="0"/>
        <pt x="749" y="-199" on="1"/>
        <pt x="749" y="-247" on="0"/>
        <pt x="706" y="-304" on="1"/>
        <pt x="683" y="-335" on="0"/>
        <pt x="598" y="-386" on="0"/>
        <pt x="543" y="-400" on="1"/>
      </contour>
    </TTGlyph>
    <TTGlyph name="Gdotaccent" xMin="170" yMin="-31" xMax="1331" yMax="1595">
      <contour>
        <pt x="1227" y="842" on="1"/>
        <pt x="1146" y="857" on="1"/>
        <pt x="1142" y="1049" on="1"/>
        <pt x="1112" y="1099" on="0"/>
        <pt x="961" y="1163" on="0"/>
        <pt x="848" y="1163" on="1"/>
        <pt x="702" y="1163" on="0"/>
        <pt x="588" y="1075" on="1"/>
        <pt x="461" y="977" on="0"/>
        <pt x="412" y="780" on="1"/>
        <pt x="385" y="672" on="0"/>
        <pt x="385" y="539" on="1"/>
        <pt x="385" y="311" on="0"/>
        <pt x="579" y="76" on="0"/>
        <pt x="772" y="76" on="1"/>
        <pt x="897" y="76" on="0"/>
        <pt x="950" y="122" on="1"/>
        <pt x="1000" y="435" on="1"/>
        <pt x="780" y="473" on="1"/>
        <pt x="800" y="556" on="1"/>
        <pt x="1331" y="556" on="1"/>
        <pt x="1313" y="481" on="1"/>
        <pt x="1189" y="440" on="1"/>
        <pt x="1134" y="88" on="1"/>
        <pt x="1049" y="31" on="0"/>
        <pt x="794" y="-31" on="0"/>
        <pt x="639" y="-31" on="1"/>
        <pt x="522" y="-31" on="0"/>
        <pt x="337" y="47" on="0"/>
        <pt x="281" y="118" on="1"/>
        <pt x="169" y="259" on="0"/>
        <pt x="170" y="467" on="1"/>
        <pt x="170" y="611" on="0"/>
        <pt x="255" y="870" on="0"/>
        <pt x="329" y="966" on="1"/>
        <pt x="481" y="1160" on="0"/>
        <pt x="699" y="1229" on="1"/>
        <pt x="803" y="1262" on="0"/>
        <pt x="912" y="1262" on="1"/>
        <pt x="1178" y="1262" on="0"/>
        <pt x="1304" y="1165" on="1"/>
      </contour>
      <contour>
        <pt x="1058" y="1481" on="1"/>
        <pt x="1058" y="1431" on="0"/>
        <pt x="985" y="1358" on="0"/>
        <pt x="886" y="1358" on="0"/>
        <pt x="816" y="1430" on="0"/>
        <pt x="816" y="1481" on="1"/>
        <pt x="816" y="1528" on="0"/>
        <pt x="888" y="1595" on="0"/>
        <pt x="935" y="1595" on="1"/>
        <pt x="985" y="1595" on="0"/>
        <pt x="1058" y="1528" on="0"/>
      </contour>
    </TTGlyph>
    <TTGlyph name="Germandbls" xMin="31" yMin="-25" xMax="1364" yMax="1272">
      <contour>
        <pt x="858" y="945" on="1"/>
        <pt x="858" y="828" on="0"/>
        <pt x="949" y="759" on="1"/>
        <pt x="985" y="730" on="0"/>
        <pt x="1037" y="701" on="1"/>
        <pt x="1167" y="629" on="0"/>
        <pt x="1224" y="580" on="1"/>
        <pt x="1314" y="500" on="0"/>
        <pt x="1314" y="361" on="1"/>
        <pt x="1314" y="274" on="0"/>
        <pt x="1232" y="125" on="0"/>
        <pt x="1163" y="76" on="1"/>
        <pt x="1020" y="-25" on="0"/>
        <pt x="841" y="-25" on="1"/>
        <pt x="730" y="-25" on="0"/>
        <pt x="557" y="55" on="0"/>
        <pt x="527" y="122" on="1"/>
        <pt x="581" y="382" on="1"/>
        <pt x="676" y="367" on="1"/>
        <pt x="682" y="187" on="1"/>
        <pt x="705" y="141" on="0"/>
        <pt x="815" y="78" on="0"/>
        <pt x="881" y="78" on="1"/>
        <pt x="986" y="78" on="0"/>
        <pt x="1116" y="185" on="0"/>
        <pt x="1116" y="285" on="1"/>
        <pt x="1116" y="366" on="0"/>
        <pt x="1046" y="415" on="1"/>
        <pt x="975" y="465" on="0"/>
        <pt x="889" y="505" on="1"/>
        <pt x="800" y="546" on="0"/>
        <pt x="734" y="615" on="1"/>
        <pt x="663" y="686" on="0"/>
        <pt x="663" y="811" on="1"/>
        <pt x="663" y="928" on="0"/>
        <pt x="850" y="1149" on="0"/>
        <pt x="965" y="1175" on="1"/>
        <pt x="967" y="1178" on="1"/>
        <pt x="931" y="1181" on="0"/>
        <pt x="879" y="1181" on="1"/>
        <pt x="587" y="1181" on="0"/>
        <pt x="524" y="787" on="1"/>
        <pt x="400" y="0" on="1"/>
        <pt x="31" y="0" on="1"/>
        <pt x="52" y="74" on="1"/>
        <pt x="226" y="121" on="1"/>
        <pt x="328" y="764" on="1"/>
        <pt x="369" y="1018" on="0"/>
        <pt x="668" y="1272" on="0"/>
        <pt x="907" y="1272" on="1"/>
        <pt x="1069" y="1272" on="0"/>
        <pt x="1205" y="1231" on="1"/>
        <pt x="1279" y="1209" on="0"/>
        <pt x="1364" y="1126" on="0"/>
        <pt x="1364" y="1072" on="1"/>
        <pt x="1364" y="1017" on="0"/>
        <pt x="1285" y="935" on="0"/>
        <pt x="1217" y="913" on="1"/>
        <pt x="1208" y="963" on="0"/>
        <pt x="1188" y="1041" on="0"/>
        <pt x="1165" y="1079" on="1"/>
        <pt x="1145" y="1110" on="0"/>
        <pt x="1106" y="1124" on="1"/>
        <pt x="1085" y="1131" on="0"/>
        <pt x="1061" y="1132" on="1"/>
        <pt x="990" y="1132" on="0"/>
        <pt x="858" y="1015" on="0"/>
      </contour>
    </TTGlyph>
    <TTGlyph name="Germandbls.alt" xMin="29" yMin="-25" xMax="1354" yMax="1272">
      <contour>
        <pt x="975" y="764" on="1"/>
        <pt x="990" y="752" on="0"/>
        <pt x="1092" y="691" on="1"/>
        <pt x="1167" y="646" on="0"/>
        <pt x="1223" y="571" on="1"/>
        <pt x="1286" y="486" on="0"/>
        <pt x="1286" y="361" on="1"/>
        <pt x="1286" y="251" on="0"/>
        <pt x="1160" y="70" on="0"/>
        <pt x="1056" y="22" on="1"/>
        <pt x="954" y="-25" on="0"/>
        <pt x="840" y="-25" on="1"/>
        <pt x="732" y="-25" on="0"/>
        <pt x="557" y="61" on="0"/>
        <pt x="527" y="131" on="1"/>
        <pt x="583" y="399" on="1"/>
        <pt x="682" y="384" on="1"/>
        <pt x="692" y="195" on="1"/>
        <pt x="718" y="144" on="0"/>
        <pt x="816" y="78" on="0"/>
        <pt x="879" y="78" on="1"/>
        <pt x="966" y="78" on="0"/>
        <pt x="1036" y="132" on="1"/>
        <pt x="1114" y="192" on="0"/>
        <pt x="1114" y="298" on="1"/>
        <pt x="1114" y="372" on="0"/>
        <pt x="1048" y="440" on="1"/>
        <pt x="999" y="490" on="0"/>
        <pt x="895" y="552" on="1"/>
        <pt x="807" y="603" on="1"/>
        <pt x="750" y="635" on="0"/>
        <pt x="727" y="650" on="1"/>
        <pt x="711" y="700" on="1"/>
        <pt x="1108" y="1145" on="1"/>
        <pt x="1108" y="1150" on="1"/>
        <pt x="1085" y="1161" on="0"/>
        <pt x="913" y="1181" on="0"/>
        <pt x="878" y="1181" on="1"/>
        <pt x="799" y="1181" on="0"/>
        <pt x="687" y="1135" on="0"/>
        <pt x="641" y="1082" on="1"/>
        <pt x="552" y="979" on="0"/>
        <pt x="510" y="713" on="1"/>
        <pt x="398" y="0" on="1"/>
        <pt x="29" y="0" on="1"/>
        <pt x="50" y="74" on="1"/>
        <pt x="224" y="121" on="1"/>
        <pt x="313" y="690" on="1"/>
        <pt x="367" y="1017" on="0"/>
        <pt x="524" y="1149" on="1"/>
        <pt x="601" y="1214" on="0"/>
        <pt x="787" y="1272" on="0"/>
        <pt x="906" y="1272" on="1"/>
        <pt x="1033" y="1272" on="0"/>
        <pt x="1312" y="1249" on="0"/>
        <pt x="1354" y="1234" on="1"/>
        <pt x="1344" y="1161" on="1"/>
      </contour>
    </TTGlyph>
    <TTGlyph name="Germandbls.alt2" xMin="31" yMin="-25" xMax="1356" yMax="1272">
      <contour>
        <pt x="1195" y="1082" on="1"/>
        <pt x="1136" y="1133" on="0"/>
        <pt x="1053" y="1133" on="1"/>
        <pt x="1015" y="1133" on="0"/>
        <pt x="923" y="1080" on="0"/>
        <pt x="889" y="1036" on="1"/>
        <pt x="854" y="990" on="0"/>
        <pt x="854" y="943" on="1"/>
        <pt x="854" y="828" on="0"/>
        <pt x="945" y="754" on="1"/>
        <pt x="981" y="723" on="0"/>
        <pt x="1034" y="691" on="1"/>
        <pt x="1161" y="613" on="0"/>
        <pt x="1219" y="556" on="1"/>
        <pt x="1309" y="467" on="0"/>
        <pt x="1309" y="321" on="1"/>
        <pt x="1309" y="238" on="0"/>
        <pt x="1230" y="103" on="0"/>
        <pt x="1160" y="60" on="1"/>
        <pt x="1021" y="-25" on="0"/>
        <pt x="841" y="-25" on="1"/>
        <pt x="730" y="-25" on="0"/>
        <pt x="557" y="55" on="0"/>
        <pt x="527" y="122" on="1"/>
        <pt x="583" y="390" on="1"/>
        <pt x="682" y="376" on="1"/>
        <pt x="692" y="187" on="1"/>
        <pt x="716" y="138" on="0"/>
        <pt x="816" y="78" on="0"/>
        <pt x="881" y="78" on="1"/>
        <pt x="968" y="78" on="0"/>
        <pt x="1037" y="119" on="1"/>
        <pt x="1116" y="166" on="0"/>
        <pt x="1116" y="268" on="1"/>
        <pt x="1116" y="366" on="0"/>
        <pt x="1026" y="430" on="1"/>
        <pt x="985" y="460" on="0"/>
        <pt x="939" y="485" on="1"/>
        <pt x="815" y="553" on="0"/>
        <pt x="755" y="605" on="1"/>
        <pt x="666" y="683" on="0"/>
        <pt x="666" y="817" on="1"/>
        <pt x="666" y="881" on="0"/>
        <pt x="717" y="1004" on="0"/>
        <pt x="761" y="1051" on="1"/>
        <pt x="850" y="1149" on="0"/>
        <pt x="965" y="1175" on="1"/>
        <pt x="967" y="1178" on="1"/>
        <pt x="931" y="1181" on="0"/>
        <pt x="879" y="1181" on="1"/>
        <pt x="587" y="1181" on="0"/>
        <pt x="524" y="787" on="1"/>
        <pt x="400" y="0" on="1"/>
        <pt x="31" y="0" on="1"/>
        <pt x="52" y="74" on="1"/>
        <pt x="226" y="121" on="1"/>
        <pt x="328" y="764" on="1"/>
        <pt x="369" y="1018" on="0"/>
        <pt x="668" y="1272" on="0"/>
        <pt x="907" y="1272" on="1"/>
        <pt x="1048" y="1272" on="0"/>
        <pt x="1290" y="1218" on="0"/>
        <pt x="1356" y="1171" on="1"/>
        <pt x="1290" y="888" on="1"/>
        <pt x="1194" y="900" on="1"/>
      </contour>
    </TTGlyph>
    <TTGlyph name="H" xMin="89" yMin="0" xMax="1519" yMax="1246">
      <contour>
        <pt x="581" y="0" on="1"/>
        <pt x="89" y="0" on="1"/>
        <pt x="104" y="74" on="1"/>
        <pt x="261" y="121" on="1"/>
        <pt x="420" y="1128" on="1"/>
        <pt x="261" y="1170" on="1"/>
        <pt x="278" y="1246" on="1"/>
        <pt x="773" y="1246" on="1"/>
        <pt x="756" y="1170" on="1"/>
        <pt x="597" y="1132" on="1"/>
        <pt x="529" y="693" on="1"/>
        <pt x="1098" y="693" on="1"/>
        <pt x="1166" y="1128" on="1"/>
        <pt x="1006" y="1170" on="1"/>
        <pt x="1024" y="1246" on="1"/>
        <pt x="1519" y="1246" on="1"/>
        <pt x="1502" y="1170" on="1"/>
        <pt x="1343" y="1132" on="1"/>
        <pt x="1183" y="114" on="1"/>
        <pt x="1345" y="81" on="1"/>
        <pt x="1327" y="0" on="1"/>
        <pt x="834" y="0" on="1"/>
        <pt x="852" y="74" on="1"/>
        <pt x="1007" y="121" on="1"/>
        <pt x="1082" y="592" on="1"/>
        <pt x="511" y="591" on="1"/>
        <pt x="437" y="114" on="1"/>
        <pt x="602" y="81" on="1"/>
      </contour>
    </TTGlyph>
    <TTGlyph name="Hbar" xMin="89" yMin="0" xMax="1519" yMax="1246">
      <contour>
        <pt x="1127" y="876" on="1"/>
        <pt x="557" y="876" on="1"/>
        <pt x="529" y="693" on="1"/>
        <pt x="1098" y="693" on="1"/>
      </contour>
      <contour>
        <pt x="242" y="876" on="1"/>
        <pt x="263" y="967" on="1"/>
        <pt x="395" y="967" on="1"/>
        <pt x="420" y="1128" on="1"/>
        <pt x="261" y="1170" on="1"/>
        <pt x="278" y="1246" on="1"/>
        <pt x="773" y="1246" on="1"/>
        <pt x="756" y="1170" on="1"/>
        <pt x="597" y="1132" on="1"/>
        <pt x="572" y="967" on="1"/>
        <pt x="1141" y="967" on="1"/>
        <pt x="1166" y="1128" on="1"/>
        <pt x="1006" y="1170" on="1"/>
        <pt x="1024" y="1246" on="1"/>
        <pt x="1519" y="1246" on="1"/>
        <pt x="1502" y="1170" on="1"/>
        <pt x="1343" y="1132" on="1"/>
        <pt x="1318" y="967" on="1"/>
        <pt x="1451" y="967" on="1"/>
        <pt x="1430" y="876" on="1"/>
        <pt x="1303" y="876" on="1"/>
        <pt x="1183" y="114" on="1"/>
        <pt x="1345" y="81" on="1"/>
        <pt x="1327" y="0" on="1"/>
        <pt x="834" y="0" on="1"/>
        <pt x="852" y="74" on="1"/>
        <pt x="1007" y="121" on="1"/>
        <pt x="1082" y="592" on="1"/>
        <pt x="511" y="591" on="1"/>
        <pt x="437" y="114" on="1"/>
        <pt x="602" y="81" on="1"/>
        <pt x="581" y="0" on="1"/>
        <pt x="89" y="0" on="1"/>
        <pt x="104" y="74" on="1"/>
        <pt x="261" y="121" on="1"/>
        <pt x="380" y="876" on="1"/>
      </contour>
    </TTGlyph>
    <TTGlyph name="I" xMin="83" yMin="0" xMax="791" yMax="1246">
      <contour>
        <pt x="596" y="0" on="1"/>
        <pt x="83" y="0" on="1"/>
        <pt x="98" y="74" on="1"/>
        <pt x="263" y="121" on="1"/>
        <pt x="422" y="1128" on="1"/>
        <pt x="255" y="1170" on="1"/>
        <pt x="271" y="1246" on="1"/>
        <pt x="791" y="1246" on="1"/>
        <pt x="774" y="1170" on="1"/>
        <pt x="605" y="1132" on="1"/>
        <pt x="445" y="114" on="1"/>
        <pt x="615" y="81" on="1"/>
      </contour>
    </TTGlyph>
    <TTGlyph name="Iacute" xMin="83" yMin="0" xMax="791" yMax="1709">
      <contour>
        <pt x="596" y="0" on="1"/>
        <pt x="83" y="0" on="1"/>
        <pt x="98" y="74" on="1"/>
        <pt x="263" y="121" on="1"/>
        <pt x="422" y="1128" on="1"/>
        <pt x="255" y="1170" on="1"/>
        <pt x="271" y="1246" on="1"/>
        <pt x="791" y="1246" on="1"/>
        <pt x="774" y="1170" on="1"/>
        <pt x="605" y="1132" on="1"/>
        <pt x="445" y="114" on="1"/>
        <pt x="615" y="81" on="1"/>
      </contour>
      <contour>
        <pt x="756" y="1669" on="1"/>
        <pt x="572" y="1352" on="1"/>
        <pt x="521" y="1383" on="1"/>
        <pt x="644" y="1709" on="1"/>
      </contour>
    </TTGlyph>
    <TTGlyph name="Icaron" xMin="83" yMin="0" xMax="791" yMax="1586">
      <contour>
        <pt x="596" y="0" on="1"/>
        <pt x="83" y="0" on="1"/>
        <pt x="98" y="74" on="1"/>
        <pt x="263" y="121" on="1"/>
        <pt x="422" y="1128" on="1"/>
        <pt x="255" y="1170" on="1"/>
        <pt x="271" y="1246" on="1"/>
        <pt x="791" y="1246" on="1"/>
        <pt x="774" y="1170" on="1"/>
        <pt x="605" y="1132" on="1"/>
        <pt x="445" y="114" on="1"/>
        <pt x="615" y="81" on="1"/>
      </contour>
      <contour>
        <pt x="536" y="1360" on="1"/>
        <pt x="356" y="1525" on="1"/>
        <pt x="437" y="1586" on="1"/>
        <pt x="586" y="1443" on="1"/>
        <pt x="596" y="1443" on="1"/>
        <pt x="720" y="1583" on="1"/>
        <pt x="763" y="1553" on="1"/>
        <pt x="591" y="1373" on="1"/>
      </contour>
    </TTGlyph>
    <TTGlyph name="Icircumflex" xMin="83" yMin="0" xMax="791" yMax="1583">
      <contour>
        <pt x="596" y="0" on="1"/>
        <pt x="83" y="0" on="1"/>
        <pt x="98" y="74" on="1"/>
        <pt x="263" y="121" on="1"/>
        <pt x="422" y="1128" on="1"/>
        <pt x="255" y="1170" on="1"/>
        <pt x="271" y="1246" on="1"/>
        <pt x="791" y="1246" on="1"/>
        <pt x="774" y="1170" on="1"/>
        <pt x="605" y="1132" on="1"/>
        <pt x="445" y="114" on="1"/>
        <pt x="615" y="81" on="1"/>
      </contour>
      <contour>
        <pt x="569" y="1583" on="1"/>
        <pt x="748" y="1397" on="1"/>
        <pt x="698" y="1361" on="1"/>
        <pt x="534" y="1471" on="1"/>
        <pt x="524" y="1471" on="1"/>
        <pt x="384" y="1360" on="1"/>
        <pt x="346" y="1390" on="1"/>
        <pt x="514" y="1570" on="1"/>
      </contour>
    </TTGlyph>
    <TTGlyph name="Idieresis" xMin="83" yMin="0" xMax="791" yMax="1545">
      <contour>
        <pt x="596" y="0" on="1"/>
        <pt x="83" y="0" on="1"/>
        <pt x="98" y="74" on="1"/>
        <pt x="263" y="121" on="1"/>
        <pt x="422" y="1128" on="1"/>
        <pt x="255" y="1170" on="1"/>
        <pt x="271" y="1246" on="1"/>
        <pt x="791" y="1246" on="1"/>
        <pt x="774" y="1170" on="1"/>
        <pt x="605" y="1132" on="1"/>
        <pt x="445" y="114" on="1"/>
        <pt x="615" y="81" on="1"/>
      </contour>
      <contour>
        <pt x="768" y="1467" on="1"/>
        <pt x="768" y="1432" on="0"/>
        <pt x="715" y="1386" on="0"/>
        <pt x="645" y="1386" on="0"/>
        <pt x="596" y="1433" on="0"/>
        <pt x="596" y="1501" on="0"/>
        <pt x="646" y="1545" on="0"/>
        <pt x="680" y="1545" on="1"/>
        <pt x="716" y="1545" on="0"/>
        <pt x="768" y="1500" on="0"/>
      </contour>
      <contour>
        <pt x="498" y="1467" on="1"/>
        <pt x="498" y="1432" on="0"/>
        <pt x="447" y="1386" on="0"/>
        <pt x="377" y="1386" on="0"/>
        <pt x="328" y="1433" on="0"/>
        <pt x="328" y="1501" on="0"/>
        <pt x="378" y="1545" on="0"/>
        <pt x="412" y="1545" on="1"/>
        <pt x="448" y="1545" on="0"/>
        <pt x="498" y="1500" on="0"/>
      </contour>
    </TTGlyph>
    <TTGlyph name="Idotaccent" xMin="83" yMin="0" xMax="791" yMax="1595">
      <contour>
        <pt x="596" y="0" on="1"/>
        <pt x="83" y="0" on="1"/>
        <pt x="98" y="74" on="1"/>
        <pt x="263" y="121" on="1"/>
        <pt x="422" y="1128" on="1"/>
        <pt x="255" y="1170" on="1"/>
        <pt x="271" y="1246" on="1"/>
        <pt x="791" y="1246" on="1"/>
        <pt x="774" y="1170" on="1"/>
        <pt x="605" y="1132" on="1"/>
        <pt x="445" y="114" on="1"/>
        <pt x="615" y="81" on="1"/>
      </contour>
      <contour>
        <pt x="680" y="1481" on="1"/>
        <pt x="680" y="1431" on="0"/>
        <pt x="607" y="1358" on="0"/>
        <pt x="508" y="1358" on="0"/>
        <pt x="438" y="1430" on="0"/>
        <pt x="438" y="1481" on="1"/>
        <pt x="438" y="1528" on="0"/>
        <pt x="510" y="1595" on="0"/>
        <pt x="557" y="1595" on="1"/>
        <pt x="607" y="1595" on="0"/>
        <pt x="680" y="1528" on="0"/>
      </contour>
    </TTGlyph>
    <TTGlyph name="Igrave" xMin="83" yMin="0" xMax="791" yMax="1701">
      <contour>
        <pt x="596" y="0" on="1"/>
        <pt x="83" y="0" on="1"/>
        <pt x="98" y="74" on="1"/>
        <pt x="263" y="121" on="1"/>
        <pt x="422" y="1128" on="1"/>
        <pt x="255" y="1170" on="1"/>
        <pt x="271" y="1246" on="1"/>
        <pt x="791" y="1246" on="1"/>
        <pt x="774" y="1170" on="1"/>
        <pt x="605" y="1132" on="1"/>
        <pt x="445" y="114" on="1"/>
        <pt x="615" y="81" on="1"/>
      </contour>
      <contour>
        <pt x="341" y="1663" on="1"/>
        <pt x="457" y="1701" on="1"/>
        <pt x="589" y="1366" on="1"/>
        <pt x="531" y="1332" on="1"/>
      </contour>
    </TTGlyph>
    <TTGlyph name="Imacron" xMin="83" yMin="0" xMax="791" yMax="1481">
      <contour>
        <pt x="596" y="0" on="1"/>
        <pt x="83" y="0" on="1"/>
        <pt x="98" y="74" on="1"/>
        <pt x="263" y="121" on="1"/>
        <pt x="422" y="1128" on="1"/>
        <pt x="255" y="1170" on="1"/>
        <pt x="271" y="1246" on="1"/>
        <pt x="791" y="1246" on="1"/>
        <pt x="774" y="1170" on="1"/>
        <pt x="605" y="1132" on="1"/>
        <pt x="445" y="114" on="1"/>
        <pt x="615" y="81" on="1"/>
      </contour>
      <contour>
        <pt x="333" y="1481" on="1"/>
        <pt x="774" y="1481" on="1"/>
        <pt x="761" y="1381" on="1"/>
        <pt x="319" y="1381" on="1"/>
      </contour>
    </TTGlyph>
    <TTGlyph name="Iogonek" xMin="83" yMin="-374" xMax="791" yMax="1246">
      <contour>
        <pt x="608" y="17" on="1"/>
        <pt x="547" y="-84" on="0"/>
        <pt x="547" y="-136" on="1"/>
        <pt x="547" y="-251" on="0"/>
        <pt x="671" y="-323" on="1"/>
        <pt x="636" y="-374" on="1"/>
        <pt x="531" y="-363" on="0"/>
        <pt x="398" y="-262" on="0"/>
        <pt x="398" y="-195" on="1"/>
        <pt x="398" y="-150" on="0"/>
        <pt x="450" y="-63" on="0"/>
        <pt x="519" y="0" on="1"/>
        <pt x="83" y="0" on="1"/>
        <pt x="98" y="74" on="1"/>
        <pt x="263" y="121" on="1"/>
        <pt x="422" y="1128" on="1"/>
        <pt x="255" y="1170" on="1"/>
        <pt x="271" y="1246" on="1"/>
        <pt x="791" y="1246" on="1"/>
        <pt x="774" y="1170" on="1"/>
        <pt x="605" y="1132" on="1"/>
        <pt x="445" y="114" on="1"/>
        <pt x="615" y="81" on="1"/>
      </contour>
    </TTGlyph>
    <TTGlyph name="J" xMin="-31" yMin="-326" xMax="778" yMax="1246">
      <contour>
        <pt x="476" y="385" on="1"/>
        <pt x="442" y="172" on="0"/>
        <pt x="392" y="60" on="1"/>
        <pt x="363" y="-6" on="0"/>
        <pt x="298" y="-102" on="0"/>
        <pt x="248" y="-149" on="1"/>
        <pt x="199" y="-195" on="0"/>
        <pt x="92" y="-274" on="0"/>
        <pt x="7" y="-326" on="1"/>
        <pt x="-19" y="-287" on="0"/>
        <pt x="-31" y="-238" on="1"/>
        <pt x="103" y="-122" on="0"/>
        <pt x="242" y="82" on="0"/>
        <pt x="261" y="197" on="1"/>
        <pt x="409" y="1128" on="1"/>
        <pt x="244" y="1170" on="1"/>
        <pt x="259" y="1246" on="1"/>
        <pt x="778" y="1246" on="1"/>
        <pt x="765" y="1170" on="1"/>
        <pt x="596" y="1132" on="1"/>
      </contour>
    </TTGlyph>
    <TTGlyph name="K" xMin="79" yMin="-22" xMax="1364" yMax="1246">
      <contour>
        <pt x="620" y="510" on="1"/>
        <pt x="575" y="584" on="0"/>
        <pt x="553" y="605" on="1"/>
        <pt x="558" y="630" on="1"/>
        <pt x="637" y="690" on="0"/>
        <pt x="679" y="738" on="1"/>
        <pt x="1022" y="1123" on="1"/>
        <pt x="874" y="1170" on="1"/>
        <pt x="889" y="1246" on="1"/>
        <pt x="1364" y="1246" on="1"/>
        <pt x="1346" y="1170" on="1"/>
        <pt x="1169" y="1123" on="1"/>
        <pt x="732" y="650" on="1"/>
        <pt x="906" y="380" on="1"/>
        <pt x="1002" y="233" on="0"/>
        <pt x="1119" y="113" on="0"/>
        <pt x="1200" y="84" on="1"/>
        <pt x="1233" y="73" on="1"/>
        <pt x="1212" y="0" on="1"/>
        <pt x="1149" y="-22" on="0"/>
        <pt x="1086" y="-22" on="1"/>
        <pt x="971" y="-22" on="0"/>
        <pt x="886" y="61" on="1"/>
        <pt x="814" y="130" on="0"/>
        <pt x="747" y="261" on="1"/>
      </contour>
      <contour>
        <pt x="451" y="124" on="1"/>
        <pt x="624" y="81" on="1"/>
        <pt x="606" y="0" on="1"/>
        <pt x="79" y="0" on="1"/>
        <pt x="93" y="74" on="1"/>
        <pt x="267" y="129" on="1"/>
        <pt x="423" y="1120" on="1"/>
        <pt x="251" y="1170" on="1"/>
        <pt x="270" y="1246" on="1"/>
        <pt x="795" y="1246" on="1"/>
        <pt x="778" y="1170" on="1"/>
        <pt x="606" y="1123" on="1"/>
      </contour>
    </TTGlyph>
    <TTGlyph name="Kcommaaccent" xMin="79" yMin="-400" xMax="1364" yMax="1246">
      <contour>
        <pt x="620" y="510" on="1"/>
        <pt x="575" y="584" on="0"/>
        <pt x="553" y="605" on="1"/>
        <pt x="558" y="630" on="1"/>
        <pt x="637" y="690" on="0"/>
        <pt x="679" y="738" on="1"/>
        <pt x="1022" y="1123" on="1"/>
        <pt x="874" y="1170" on="1"/>
        <pt x="889" y="1246" on="1"/>
        <pt x="1364" y="1246" on="1"/>
        <pt x="1346" y="1170" on="1"/>
        <pt x="1169" y="1123" on="1"/>
        <pt x="732" y="650" on="1"/>
        <pt x="906" y="380" on="1"/>
        <pt x="1002" y="233" on="0"/>
        <pt x="1119" y="113" on="0"/>
        <pt x="1200" y="84" on="1"/>
        <pt x="1233" y="73" on="1"/>
        <pt x="1212" y="0" on="1"/>
        <pt x="1149" y="-22" on="0"/>
        <pt x="1086" y="-22" on="1"/>
        <pt x="971" y="-22" on="0"/>
        <pt x="886" y="61" on="1"/>
        <pt x="814" y="130" on="0"/>
        <pt x="747" y="261" on="1"/>
      </contour>
      <contour>
        <pt x="451" y="124" on="1"/>
        <pt x="624" y="81" on="1"/>
        <pt x="606" y="0" on="1"/>
        <pt x="79" y="0" on="1"/>
        <pt x="93" y="74" on="1"/>
        <pt x="267" y="129" on="1"/>
        <pt x="423" y="1120" on="1"/>
        <pt x="251" y="1170" on="1"/>
        <pt x="270" y="1246" on="1"/>
        <pt x="795" y="1246" on="1"/>
        <pt x="778" y="1170" on="1"/>
        <pt x="606" y="1123" on="1"/>
      </contour>
      <contour>
        <pt x="504" y="-361" on="1"/>
        <pt x="558" y="-346" on="0"/>
        <pt x="626" y="-283" on="0"/>
        <pt x="626" y="-253" on="1"/>
        <pt x="626" y="-226" on="0"/>
        <pt x="596" y="-195" on="0"/>
        <pt x="567" y="-195" on="1"/>
        <pt x="563" y="-195" on="0"/>
        <pt x="550" y="-199" on="1"/>
        <pt x="545" y="-182" on="0"/>
        <pt x="545" y="-167" on="1"/>
        <pt x="545" y="-136" on="0"/>
        <pt x="601" y="-89" on="0"/>
        <pt x="629" y="-89" on="1"/>
        <pt x="715" y="-89" on="0"/>
        <pt x="715" y="-199" on="1"/>
        <pt x="715" y="-247" on="0"/>
        <pt x="673" y="-304" on="1"/>
        <pt x="650" y="-335" on="0"/>
        <pt x="565" y="-386" on="0"/>
        <pt x="510" y="-400" on="1"/>
      </contour>
    </TTGlyph>
    <TTGlyph name="L" xMin="84" yMin="0" xMax="1109" yMax="1246">
      <contour>
        <pt x="793" y="1246" on="1"/>
        <pt x="777" y="1170" on="1"/>
        <pt x="605" y="1123" on="1"/>
        <pt x="443" y="96" on="1"/>
        <pt x="864" y="96" on="1"/>
        <pt x="1028" y="344" on="1"/>
        <pt x="1109" y="331" on="1"/>
        <pt x="1022" y="0" on="1"/>
        <pt x="84" y="0" on="1"/>
        <pt x="97" y="74" on="1"/>
        <pt x="264" y="121" on="1"/>
        <pt x="421" y="1120" on="1"/>
        <pt x="249" y="1170" on="1"/>
        <pt x="269" y="1246" on="1"/>
      </contour>
    </TTGlyph>
    <TTGlyph name="Lacute" xMin="84" yMin="0" xMax="1109" yMax="1709">
      <contour>
        <pt x="793" y="1246" on="1"/>
        <pt x="777" y="1170" on="1"/>
        <pt x="605" y="1123" on="1"/>
        <pt x="443" y="96" on="1"/>
        <pt x="864" y="96" on="1"/>
        <pt x="1028" y="344" on="1"/>
        <pt x="1109" y="331" on="1"/>
        <pt x="1022" y="0" on="1"/>
        <pt x="84" y="0" on="1"/>
        <pt x="97" y="74" on="1"/>
        <pt x="264" y="121" on="1"/>
        <pt x="421" y="1120" on="1"/>
        <pt x="249" y="1170" on="1"/>
        <pt x="269" y="1246" on="1"/>
      </contour>
      <contour>
        <pt x="833" y="1669" on="1"/>
        <pt x="649" y="1352" on="1"/>
        <pt x="598" y="1383" on="1"/>
        <pt x="720" y="1709" on="1"/>
      </contour>
    </TTGlyph>
    <TTGlyph name="Lcaron" xMin="84" yMin="0" xMax="1146" yMax="1284">
      <contour>
        <pt x="782" y="821" on="1"/>
        <pt x="875" y="845" on="0"/>
        <pt x="992" y="951" on="0"/>
        <pt x="992" y="1004" on="1"/>
        <pt x="992" y="1049" on="0"/>
        <pt x="940" y="1102" on="0"/>
        <pt x="891" y="1102" on="1"/>
        <pt x="886" y="1102" on="0"/>
        <pt x="861" y="1095" on="1"/>
        <pt x="854" y="1126" on="0"/>
        <pt x="854" y="1150" on="1"/>
        <pt x="854" y="1204" on="0"/>
        <pt x="949" y="1284" on="0"/>
        <pt x="998" y="1284" on="1"/>
        <pt x="1056" y="1284" on="0"/>
        <pt x="1098" y="1248" on="1"/>
        <pt x="1146" y="1205" on="0"/>
        <pt x="1146" y="1097" on="1"/>
        <pt x="1146" y="1028" on="0"/>
        <pt x="1100" y="955" on="1"/>
        <pt x="1044" y="864" on="0"/>
        <pt x="935" y="805" on="1"/>
        <pt x="870" y="771" on="0"/>
        <pt x="793" y="751" on="1"/>
      </contour>
      <contour>
        <pt x="793" y="1246" on="1"/>
        <pt x="777" y="1170" on="1"/>
        <pt x="605" y="1123" on="1"/>
        <pt x="443" y="96" on="1"/>
        <pt x="864" y="96" on="1"/>
        <pt x="1028" y="344" on="1"/>
        <pt x="1109" y="331" on="1"/>
        <pt x="1022" y="0" on="1"/>
        <pt x="84" y="0" on="1"/>
        <pt x="97" y="74" on="1"/>
        <pt x="264" y="121" on="1"/>
        <pt x="421" y="1120" on="1"/>
        <pt x="249" y="1170" on="1"/>
        <pt x="269" y="1246" on="1"/>
      </contour>
    </TTGlyph>
    <TTGlyph name="Lcommaaccent" xMin="84" yMin="-400" xMax="1109" yMax="1246">
      <contour>
        <pt x="793" y="1246" on="1"/>
        <pt x="777" y="1170" on="1"/>
        <pt x="605" y="1123" on="1"/>
        <pt x="443" y="96" on="1"/>
        <pt x="864" y="96" on="1"/>
        <pt x="1028" y="344" on="1"/>
        <pt x="1109" y="331" on="1"/>
        <pt x="1022" y="0" on="1"/>
        <pt x="84" y="0" on="1"/>
        <pt x="97" y="74" on="1"/>
        <pt x="264" y="121" on="1"/>
        <pt x="421" y="1120" on="1"/>
        <pt x="249" y="1170" on="1"/>
        <pt x="269" y="1246" on="1"/>
      </contour>
      <contour>
        <pt x="414" y="-361" on="1"/>
        <pt x="468" y="-346" on="0"/>
        <pt x="537" y="-283" on="0"/>
        <pt x="537" y="-253" on="1"/>
        <pt x="537" y="-226" on="0"/>
        <pt x="506" y="-195" on="0"/>
        <pt x="477" y="-195" on="1"/>
        <pt x="473" y="-195" on="0"/>
        <pt x="461" y="-199" on="1"/>
        <pt x="456" y="-182" on="0"/>
        <pt x="456" y="-167" on="1"/>
        <pt x="456" y="-136" on="0"/>
        <pt x="511" y="-89" on="0"/>
        <pt x="540" y="-89" on="1"/>
        <pt x="626" y="-89" on="0"/>
        <pt x="626" y="-199" on="1"/>
        <pt x="626" y="-247" on="0"/>
        <pt x="584" y="-304" on="1"/>
        <pt x="561" y="-335" on="0"/>
        <pt x="476" y="-386" on="0"/>
        <pt x="421" y="-400" on="1"/>
      </contour>
    </TTGlyph>
    <TTGlyph name="Lslash" xMin="84" yMin="0" xMax="1109" yMax="1246">
      <contour>
        <pt x="793" y="1246" on="1"/>
        <pt x="777" y="1170" on="1"/>
        <pt x="605" y="1123" on="1"/>
        <pt x="548" y="763" on="1"/>
        <pt x="767" y="842" on="1"/>
        <pt x="786" y="742" on="1"/>
        <pt x="530" y="649" on="1"/>
        <pt x="443" y="96" on="1"/>
        <pt x="864" y="96" on="1"/>
        <pt x="1028" y="344" on="1"/>
        <pt x="1109" y="331" on="1"/>
        <pt x="1022" y="0" on="1"/>
        <pt x="84" y="0" on="1"/>
        <pt x="97" y="74" on="1"/>
        <pt x="264" y="121" on="1"/>
        <pt x="336" y="580" on="1"/>
        <pt x="187" y="526" on="1"/>
        <pt x="168" y="625" on="1"/>
        <pt x="354" y="692" on="1"/>
        <pt x="421" y="1120" on="1"/>
        <pt x="249" y="1170" on="1"/>
        <pt x="269" y="1246" on="1"/>
      </contour>
    </TTGlyph>
    <TTGlyph name="M" xMin="42" yMin="0" xMax="1743" yMax="1246">
      <contour>
        <pt x="725" y="31" on="1"/>
        <pt x="543" y="968" on="1"/>
        <pt x="348" y="114" on="1"/>
        <pt x="522" y="81" on="1"/>
        <pt x="500" y="0" on="1"/>
        <pt x="42" y="0" on="1"/>
        <pt x="60" y="74" on="1"/>
        <pt x="226" y="121" on="1"/>
        <pt x="454" y="1128" on="1"/>
        <pt x="285" y="1170" on="1"/>
        <pt x="304" y="1246" on="1"/>
        <pt x="686" y="1246" on="1"/>
        <pt x="729" y="1052" on="1"/>
        <pt x="861" y="309" on="1"/>
        <pt x="1280" y="1085" on="1"/>
        <pt x="1366" y="1246" on="1"/>
        <pt x="1743" y="1246" on="1"/>
        <pt x="1726" y="1170" on="1"/>
        <pt x="1559" y="1132" on="1"/>
        <pt x="1450" y="114" on="1"/>
        <pt x="1619" y="81" on="1"/>
        <pt x="1601" y="0" on="1"/>
        <pt x="1091" y="0" on="1"/>
        <pt x="1109" y="74" on="1"/>
        <pt x="1273" y="121" on="1"/>
        <pt x="1359" y="1006" on="1"/>
        <pt x="845" y="51" on="1"/>
      </contour>
    </TTGlyph>
    <TTGlyph name="N" xMin="84" yMin="-30" xMax="1501" yMax="1246">
      <contour>
        <pt x="993" y="-30" on="1"/>
        <pt x="517" y="963" on="1"/>
        <pt x="383" y="114" on="1"/>
        <pt x="555" y="81" on="1"/>
        <pt x="537" y="0" on="1"/>
        <pt x="84" y="0" on="1"/>
        <pt x="98" y="74" on="1"/>
        <pt x="264" y="121" on="1"/>
        <pt x="421" y="1120" on="1"/>
        <pt x="256" y="1170" on="1"/>
        <pt x="272" y="1246" on="1"/>
        <pt x="606" y="1246" on="1"/>
        <pt x="1066" y="273" on="1"/>
        <pt x="1200" y="1128" on="1"/>
        <pt x="1030" y="1170" on="1"/>
        <pt x="1048" y="1246" on="1"/>
        <pt x="1501" y="1246" on="1"/>
        <pt x="1483" y="1170" on="1"/>
        <pt x="1318" y="1132" on="1"/>
        <pt x="1139" y="0" on="1"/>
      </contour>
    </TTGlyph>
    <TTGlyph name="Nacute" xMin="84" yMin="-30" xMax="1501" yMax="1709">
      <contour>
        <pt x="993" y="-30" on="1"/>
        <pt x="517" y="963" on="1"/>
        <pt x="383" y="114" on="1"/>
        <pt x="555" y="81" on="1"/>
        <pt x="537" y="0" on="1"/>
        <pt x="84" y="0" on="1"/>
        <pt x="98" y="74" on="1"/>
        <pt x="264" y="121" on="1"/>
        <pt x="421" y="1120" on="1"/>
        <pt x="256" y="1170" on="1"/>
        <pt x="272" y="1246" on="1"/>
        <pt x="606" y="1246" on="1"/>
        <pt x="1066" y="273" on="1"/>
        <pt x="1200" y="1128" on="1"/>
        <pt x="1030" y="1170" on="1"/>
        <pt x="1048" y="1246" on="1"/>
        <pt x="1501" y="1246" on="1"/>
        <pt x="1483" y="1170" on="1"/>
        <pt x="1318" y="1132" on="1"/>
        <pt x="1139" y="0" on="1"/>
      </contour>
      <contour>
        <pt x="1142" y="1669" on="1"/>
        <pt x="959" y="1352" on="1"/>
        <pt x="907" y="1383" on="1"/>
        <pt x="1030" y="1709" on="1"/>
      </contour>
    </TTGlyph>
    <TTGlyph name="Ncaron" xMin="84" yMin="-30" xMax="1501" yMax="1586">
      <contour>
        <pt x="993" y="-30" on="1"/>
        <pt x="517" y="963" on="1"/>
        <pt x="383" y="114" on="1"/>
        <pt x="555" y="81" on="1"/>
        <pt x="537" y="0" on="1"/>
        <pt x="84" y="0" on="1"/>
        <pt x="98" y="74" on="1"/>
        <pt x="264" y="121" on="1"/>
        <pt x="421" y="1120" on="1"/>
        <pt x="256" y="1170" on="1"/>
        <pt x="272" y="1246" on="1"/>
        <pt x="606" y="1246" on="1"/>
        <pt x="1066" y="273" on="1"/>
        <pt x="1200" y="1128" on="1"/>
        <pt x="1030" y="1170" on="1"/>
        <pt x="1048" y="1246" on="1"/>
        <pt x="1501" y="1246" on="1"/>
        <pt x="1483" y="1170" on="1"/>
        <pt x="1318" y="1132" on="1"/>
        <pt x="1139" y="0" on="1"/>
      </contour>
      <contour>
        <pt x="861" y="1360" on="1"/>
        <pt x="681" y="1525" on="1"/>
        <pt x="762" y="1586" on="1"/>
        <pt x="911" y="1443" on="1"/>
        <pt x="921" y="1443" on="1"/>
        <pt x="1045" y="1583" on="1"/>
        <pt x="1088" y="1553" on="1"/>
        <pt x="916" y="1373" on="1"/>
      </contour>
    </TTGlyph>
    <TTGlyph name="Ncommaaccent" xMin="84" yMin="-400" xMax="1501" yMax="1246">
      <contour>
        <pt x="993" y="-30" on="1"/>
        <pt x="517" y="963" on="1"/>
        <pt x="383" y="114" on="1"/>
        <pt x="555" y="81" on="1"/>
        <pt x="537" y="0" on="1"/>
        <pt x="84" y="0" on="1"/>
        <pt x="98" y="74" on="1"/>
        <pt x="264" y="121" on="1"/>
        <pt x="421" y="1120" on="1"/>
        <pt x="256" y="1170" on="1"/>
        <pt x="272" y="1246" on="1"/>
        <pt x="606" y="1246" on="1"/>
        <pt x="1066" y="273" on="1"/>
        <pt x="1200" y="1128" on="1"/>
        <pt x="1030" y="1170" on="1"/>
        <pt x="1048" y="1246" on="1"/>
        <pt x="1501" y="1246" on="1"/>
        <pt x="1483" y="1170" on="1"/>
        <pt x="1318" y="1132" on="1"/>
        <pt x="1139" y="0" on="1"/>
      </contour>
      <contour>
        <pt x="557" y="-361" on="1"/>
        <pt x="611" y="-346" on="0"/>
        <pt x="679" y="-283" on="0"/>
        <pt x="679" y="-253" on="1"/>
        <pt x="679" y="-226" on="0"/>
        <pt x="648" y="-195" on="0"/>
        <pt x="620" y="-195" on="1"/>
        <pt x="616" y="-195" on="0"/>
        <pt x="603" y="-199" on="1"/>
        <pt x="597" y="-179" on="0"/>
        <pt x="597" y="-167" on="1"/>
        <pt x="597" y="-136" on="0"/>
        <pt x="653" y="-89" on="0"/>
        <pt x="682" y="-89" on="1"/>
        <pt x="722" y="-89" on="0"/>
        <pt x="768" y="-141" on="0"/>
        <pt x="768" y="-199" on="1"/>
        <pt x="768" y="-247" on="0"/>
        <pt x="726" y="-304" on="1"/>
        <pt x="703" y="-335" on="0"/>
        <pt x="618" y="-386" on="0"/>
        <pt x="563" y="-400" on="1"/>
      </contour>
    </TTGlyph>
    <TTGlyph name="Ntilde" xMin="84" yMin="-30" xMax="1501" yMax="1535">
      <contour>
        <pt x="993" y="-30" on="1"/>
        <pt x="517" y="963" on="1"/>
        <pt x="383" y="114" on="1"/>
        <pt x="555" y="81" on="1"/>
        <pt x="537" y="0" on="1"/>
        <pt x="84" y="0" on="1"/>
        <pt x="98" y="74" on="1"/>
        <pt x="264" y="121" on="1"/>
        <pt x="421" y="1120" on="1"/>
        <pt x="256" y="1170" on="1"/>
        <pt x="272" y="1246" on="1"/>
        <pt x="606" y="1246" on="1"/>
        <pt x="1066" y="273" on="1"/>
        <pt x="1200" y="1128" on="1"/>
        <pt x="1030" y="1170" on="1"/>
        <pt x="1048" y="1246" on="1"/>
        <pt x="1501" y="1246" on="1"/>
        <pt x="1483" y="1170" on="1"/>
        <pt x="1318" y="1132" on="1"/>
        <pt x="1139" y="0" on="1"/>
      </contour>
      <contour>
        <pt x="651" y="1381" on="1"/>
        <pt x="653" y="1386" on="0"/>
        <pt x="653" y="1390" on="1"/>
        <pt x="658" y="1410" on="0"/>
        <pt x="672" y="1438" on="1"/>
        <pt x="689" y="1474" on="0"/>
        <pt x="711" y="1497" on="1"/>
        <pt x="739" y="1525" on="0"/>
        <pt x="773" y="1525" on="1"/>
        <pt x="777" y="1525" on="0"/>
        <pt x="782" y="1524" on="0"/>
        <pt x="787" y="1524" on="1"/>
        <pt x="1010" y="1494" on="1"/>
        <pt x="1013" y="1494" on="1"/>
        <pt x="1024" y="1494" on="0"/>
        <pt x="1052" y="1514" on="0"/>
        <pt x="1061" y="1525" on="1"/>
        <pt x="1069" y="1535" on="1"/>
        <pt x="1117" y="1534" on="1"/>
        <pt x="1116" y="1532" on="0"/>
        <pt x="1114" y="1520" on="0"/>
        <pt x="1113" y="1518" on="1"/>
        <pt x="1100" y="1477" on="0"/>
        <pt x="1074" y="1440" on="1"/>
        <pt x="1037" y="1390" on="0"/>
        <pt x="987" y="1390" on="1"/>
        <pt x="975" y="1390" on="1"/>
        <pt x="752" y="1421" on="1"/>
        <pt x="749" y="1421" on="1"/>
        <pt x="737" y="1421" on="0"/>
        <pt x="706" y="1398" on="0"/>
        <pt x="697" y="1385" on="1"/>
        <pt x="689" y="1373" on="1"/>
      </contour>
    </TTGlyph>
    <TTGlyph name="O" xMin="175" yMin="-26" xMax="1363" yMax="1275">
      <contour>
        <pt x="1079" y="1031" on="1"/>
        <pt x="1043" y="1100" on="0"/>
        <pt x="921" y="1178" on="0"/>
        <pt x="844" y="1178" on="1"/>
        <pt x="765" y="1178" on="0"/>
        <pt x="628" y="1132" on="0"/>
        <pt x="581" y="1092" on="1"/>
        <pt x="492" y="1017" on="0"/>
        <pt x="446" y="885" on="1"/>
        <pt x="407" y="773" on="0"/>
        <pt x="398" y="640" on="1"/>
        <pt x="394" y="580" on="0"/>
        <pt x="394" y="528" on="1"/>
        <pt x="394" y="344" on="0"/>
        <pt x="464" y="217" on="1"/>
        <pt x="500" y="152" on="0"/>
        <pt x="620" y="79" on="0"/>
        <pt x="698" y="79" on="1"/>
        <pt x="857" y="79" on="0"/>
        <pt x="959" y="165" on="1"/>
        <pt x="1048" y="239" on="0"/>
        <pt x="1096" y="370" on="1"/>
        <pt x="1135" y="480" on="0"/>
        <pt x="1146" y="608" on="1"/>
        <pt x="1150" y="668" on="0"/>
        <pt x="1150" y="715" on="1"/>
        <pt x="1149" y="895" on="0"/>
      </contour>
      <contour>
        <pt x="1247" y="1115" on="1"/>
        <pt x="1364" y="961" on="0"/>
        <pt x="1363" y="730" on="1"/>
        <pt x="1363" y="481" on="0"/>
        <pt x="1236" y="291" on="1"/>
        <pt x="1102" y="90" on="0"/>
        <pt x="882" y="14" on="1"/>
        <pt x="766" y="-27" on="0"/>
        <pt x="634" y="-26" on="1"/>
        <pt x="497" y="-26" on="0"/>
        <pt x="285" y="113" on="0"/>
        <pt x="230" y="235" on="1"/>
        <pt x="175" y="356" on="0"/>
        <pt x="175" y="506" on="1"/>
        <pt x="175" y="668" on="0"/>
        <pt x="281" y="953" on="0"/>
        <pt x="377" y="1056" on="1"/>
        <pt x="474" y="1159" on="0"/>
        <pt x="748" y="1275" on="0"/>
        <pt x="905" y="1275" on="1"/>
        <pt x="1013" y="1275" on="0"/>
        <pt x="1189" y="1191" on="0"/>
      </contour>
    </TTGlyph>
    <TTGlyph name="OE" xMin="175" yMin="-26" xMax="1711" yMax="1275">
      <contour>
        <pt x="810" y="93" on="1"/>
        <pt x="979" y="1141" on="1"/>
        <pt x="919" y="1178" on="0"/>
        <pt x="843" y="1178" on="1"/>
        <pt x="764" y="1178" on="0"/>
        <pt x="627" y="1132" on="0"/>
        <pt x="580" y="1092" on="1"/>
        <pt x="491" y="1017" on="0"/>
        <pt x="445" y="885" on="1"/>
        <pt x="406" y="773" on="0"/>
        <pt x="397" y="640" on="1"/>
        <pt x="393" y="580" on="0"/>
        <pt x="393" y="528" on="1"/>
        <pt x="393" y="344" on="0"/>
        <pt x="463" y="217" on="1"/>
        <pt x="499" y="152" on="0"/>
        <pt x="620" y="79" on="0"/>
        <pt x="697" y="79" on="1"/>
        <pt x="755" y="80" on="0"/>
      </contour>
      <contour>
        <pt x="1711" y="1246" on="1"/>
        <pt x="1631" y="926" on="1"/>
        <pt x="1550" y="940" on="1"/>
        <pt x="1545" y="1155" on="1"/>
        <pt x="1165" y="1155" on="1"/>
        <pt x="1091" y="678" on="1"/>
        <pt x="1297" y="678" on="1"/>
        <pt x="1358" y="797" on="1"/>
        <pt x="1449" y="811" on="1"/>
        <pt x="1357" y="422" on="1"/>
        <pt x="1272" y="409" on="1"/>
        <pt x="1267" y="584" on="1"/>
        <pt x="1076" y="584" on="1"/>
        <pt x="998" y="96" on="1"/>
        <pt x="1401" y="96" on="1"/>
        <pt x="1532" y="326" on="1"/>
        <pt x="1610" y="314" on="1"/>
        <pt x="1530" y="0" on="1"/>
        <pt x="836" y="0" on="1"/>
        <pt x="738" y="-26" on="0"/>
        <pt x="633" y="-26" on="1"/>
        <pt x="496" y="-26" on="0"/>
        <pt x="284" y="113" on="0"/>
        <pt x="229" y="235" on="1"/>
        <pt x="174" y="356" on="0"/>
        <pt x="175" y="506" on="1"/>
        <pt x="175" y="668" on="0"/>
        <pt x="280" y="953" on="0"/>
        <pt x="376" y="1056" on="1"/>
        <pt x="473" y="1159" on="0"/>
        <pt x="747" y="1275" on="0"/>
        <pt x="904" y="1275" on="1"/>
        <pt x="993" y="1275" on="0"/>
        <pt x="1070" y="1246" on="1"/>
      </contour>
    </TTGlyph>
    <TTGlyph name="Oacute" xMin="175" yMin="-26" xMax="1363" yMax="1712">
      <contour>
        <pt x="1079" y="1031" on="1"/>
        <pt x="1043" y="1100" on="0"/>
        <pt x="921" y="1178" on="0"/>
        <pt x="844" y="1178" on="1"/>
        <pt x="765" y="1178" on="0"/>
        <pt x="628" y="1132" on="0"/>
        <pt x="581" y="1092" on="1"/>
        <pt x="537" y="1055" on="0"/>
        <pt x="467" y="945" on="0"/>
        <pt x="446" y="886" on="1"/>
        <pt x="407" y="776" on="0"/>
        <pt x="398" y="642" on="1"/>
        <pt x="394" y="582" on="0"/>
        <pt x="394" y="529" on="1"/>
        <pt x="394" y="379" on="0"/>
        <pt x="438" y="270" on="1"/>
        <pt x="488" y="148" on="0"/>
        <pt x="583" y="104" on="1"/>
        <pt x="633" y="79" on="0"/>
        <pt x="698" y="79" on="1"/>
        <pt x="857" y="79" on="0"/>
        <pt x="959" y="165" on="1"/>
        <pt x="1048" y="239" on="0"/>
        <pt x="1096" y="370" on="1"/>
        <pt x="1135" y="480" on="0"/>
        <pt x="1146" y="608" on="1"/>
        <pt x="1150" y="668" on="0"/>
        <pt x="1150" y="715" on="1"/>
        <pt x="1149" y="895" on="0"/>
      </contour>
      <contour>
        <pt x="1247" y="1115" on="1"/>
        <pt x="1364" y="961" on="0"/>
        <pt x="1363" y="730" on="1"/>
        <pt x="1363" y="481" on="0"/>
        <pt x="1236" y="291" on="1"/>
        <pt x="1102" y="90" on="0"/>
        <pt x="882" y="14" on="1"/>
        <pt x="766" y="-27" on="0"/>
        <pt x="634" y="-26" on="1"/>
        <pt x="497" y="-26" on="0"/>
        <pt x="285" y="113" on="0"/>
        <pt x="230" y="235" on="1"/>
        <pt x="175" y="356" on="0"/>
        <pt x="175" y="506" on="1"/>
        <pt x="175" y="668" on="0"/>
        <pt x="281" y="953" on="0"/>
        <pt x="377" y="1056" on="1"/>
        <pt x="474" y="1159" on="0"/>
        <pt x="748" y="1275" on="0"/>
        <pt x="905" y="1275" on="1"/>
        <pt x="1013" y="1275" on="0"/>
        <pt x="1189" y="1191" on="0"/>
      </contour>
      <contour>
        <pt x="1173" y="1672" on="1"/>
        <pt x="989" y="1355" on="1"/>
        <pt x="938" y="1386" on="1"/>
        <pt x="1060" y="1712" on="1"/>
      </contour>
    </TTGlyph>
    <TTGlyph name="Ocaron" xMin="175" yMin="-26" xMax="1363" yMax="1586">
      <contour>
        <pt x="1079" y="1031" on="1"/>
        <pt x="1043" y="1100" on="0"/>
        <pt x="921" y="1178" on="0"/>
        <pt x="844" y="1178" on="1"/>
        <pt x="765" y="1178" on="0"/>
        <pt x="628" y="1132" on="0"/>
        <pt x="581" y="1092" on="1"/>
        <pt x="492" y="1017" on="0"/>
        <pt x="446" y="885" on="1"/>
        <pt x="407" y="773" on="0"/>
        <pt x="398" y="640" on="1"/>
        <pt x="394" y="580" on="0"/>
        <pt x="394" y="528" on="1"/>
        <pt x="394" y="344" on="0"/>
        <pt x="464" y="217" on="1"/>
        <pt x="500" y="152" on="0"/>
        <pt x="620" y="79" on="0"/>
        <pt x="698" y="79" on="1"/>
        <pt x="857" y="79" on="0"/>
        <pt x="959" y="165" on="1"/>
        <pt x="1048" y="239" on="0"/>
        <pt x="1096" y="370" on="1"/>
        <pt x="1135" y="480" on="0"/>
        <pt x="1146" y="608" on="1"/>
        <pt x="1150" y="668" on="0"/>
        <pt x="1150" y="715" on="1"/>
        <pt x="1149" y="895" on="0"/>
      </contour>
      <contour>
        <pt x="1247" y="1115" on="1"/>
        <pt x="1364" y="961" on="0"/>
        <pt x="1363" y="730" on="1"/>
        <pt x="1363" y="481" on="0"/>
        <pt x="1236" y="291" on="1"/>
        <pt x="1102" y="90" on="0"/>
        <pt x="882" y="14" on="1"/>
        <pt x="766" y="-27" on="0"/>
        <pt x="634" y="-26" on="1"/>
        <pt x="497" y="-26" on="0"/>
        <pt x="285" y="113" on="0"/>
        <pt x="230" y="235" on="1"/>
        <pt x="175" y="356" on="0"/>
        <pt x="175" y="506" on="1"/>
        <pt x="175" y="668" on="0"/>
        <pt x="281" y="953" on="0"/>
        <pt x="377" y="1056" on="1"/>
        <pt x="474" y="1159" on="0"/>
        <pt x="748" y="1275" on="0"/>
        <pt x="905" y="1275" on="1"/>
        <pt x="1013" y="1275" on="0"/>
        <pt x="1189" y="1191" on="0"/>
      </contour>
      <contour>
        <pt x="896" y="1360" on="1"/>
        <pt x="715" y="1525" on="1"/>
        <pt x="797" y="1586" on="1"/>
        <pt x="945" y="1443" on="1"/>
        <pt x="955" y="1443" on="1"/>
        <pt x="1079" y="1583" on="1"/>
        <pt x="1122" y="1553" on="1"/>
        <pt x="950" y="1373" on="1"/>
      </contour>
    </TTGlyph>
    <TTGlyph name="Ocircumflex" xMin="175" yMin="-26" xMax="1363" yMax="1586">
      <contour>
        <pt x="1079" y="1031" on="1"/>
        <pt x="1043" y="1100" on="0"/>
        <pt x="921" y="1178" on="0"/>
        <pt x="844" y="1178" on="1"/>
        <pt x="765" y="1178" on="0"/>
        <pt x="628" y="1132" on="0"/>
        <pt x="581" y="1092" on="1"/>
        <pt x="537" y="1055" on="0"/>
        <pt x="467" y="945" on="0"/>
        <pt x="446" y="886" on="1"/>
        <pt x="407" y="776" on="0"/>
        <pt x="398" y="642" on="1"/>
        <pt x="394" y="582" on="0"/>
        <pt x="394" y="529" on="1"/>
        <pt x="394" y="379" on="0"/>
        <pt x="438" y="270" on="1"/>
        <pt x="488" y="148" on="0"/>
        <pt x="583" y="104" on="1"/>
        <pt x="633" y="79" on="0"/>
        <pt x="698" y="79" on="1"/>
        <pt x="857" y="79" on="0"/>
        <pt x="959" y="165" on="1"/>
        <pt x="1048" y="239" on="0"/>
        <pt x="1096" y="370" on="1"/>
        <pt x="1135" y="480" on="0"/>
        <pt x="1146" y="608" on="1"/>
        <pt x="1150" y="668" on="0"/>
        <pt x="1150" y="715" on="1"/>
        <pt x="1149" y="895" on="0"/>
      </contour>
      <contour>
        <pt x="1247" y="1115" on="1"/>
        <pt x="1364" y="961" on="0"/>
        <pt x="1363" y="730" on="1"/>
        <pt x="1363" y="481" on="0"/>
        <pt x="1236" y="291" on="1"/>
        <pt x="1102" y="90" on="0"/>
        <pt x="882" y="14" on="1"/>
        <pt x="766" y="-27" on="0"/>
        <pt x="634" y="-26" on="1"/>
        <pt x="497" y="-26" on="0"/>
        <pt x="285" y="113" on="0"/>
        <pt x="230" y="235" on="1"/>
        <pt x="175" y="356" on="0"/>
        <pt x="175" y="506" on="1"/>
        <pt x="175" y="668" on="0"/>
        <pt x="281" y="953" on="0"/>
        <pt x="377" y="1056" on="1"/>
        <pt x="474" y="1159" on="0"/>
        <pt x="748" y="1275" on="0"/>
        <pt x="905" y="1275" on="1"/>
        <pt x="1013" y="1275" on="0"/>
        <pt x="1189" y="1191" on="0"/>
      </contour>
      <contour>
        <pt x="936" y="1586" on="1"/>
        <pt x="1115" y="1401" on="1"/>
        <pt x="1065" y="1365" on="1"/>
        <pt x="902" y="1474" on="1"/>
        <pt x="892" y="1474" on="1"/>
        <pt x="751" y="1363" on="1"/>
        <pt x="713" y="1393" on="1"/>
        <pt x="882" y="1573" on="1"/>
      </contour>
    </TTGlyph>
    <TTGlyph name="Odieresis" xMin="175" yMin="-26" xMax="1363" yMax="1548">
      <contour>
        <pt x="1079" y="1031" on="1"/>
        <pt x="1043" y="1100" on="0"/>
        <pt x="921" y="1178" on="0"/>
        <pt x="844" y="1178" on="1"/>
        <pt x="765" y="1178" on="0"/>
        <pt x="628" y="1132" on="0"/>
        <pt x="581" y="1092" on="1"/>
        <pt x="537" y="1055" on="0"/>
        <pt x="467" y="945" on="0"/>
        <pt x="446" y="886" on="1"/>
        <pt x="407" y="776" on="0"/>
        <pt x="398" y="642" on="1"/>
        <pt x="394" y="582" on="0"/>
        <pt x="394" y="529" on="1"/>
        <pt x="394" y="379" on="0"/>
        <pt x="438" y="270" on="1"/>
        <pt x="488" y="148" on="0"/>
        <pt x="583" y="104" on="1"/>
        <pt x="633" y="79" on="0"/>
        <pt x="698" y="79" on="1"/>
        <pt x="857" y="79" on="0"/>
        <pt x="959" y="165" on="1"/>
        <pt x="1048" y="239" on="0"/>
        <pt x="1096" y="370" on="1"/>
        <pt x="1135" y="480" on="0"/>
        <pt x="1146" y="608" on="1"/>
        <pt x="1150" y="668" on="0"/>
        <pt x="1150" y="715" on="1"/>
        <pt x="1149" y="895" on="0"/>
      </contour>
      <contour>
        <pt x="1247" y="1115" on="1"/>
        <pt x="1364" y="961" on="0"/>
        <pt x="1363" y="730" on="1"/>
        <pt x="1363" y="481" on="0"/>
        <pt x="1236" y="291" on="1"/>
        <pt x="1102" y="90" on="0"/>
        <pt x="882" y="14" on="1"/>
        <pt x="766" y="-27" on="0"/>
        <pt x="634" y="-26" on="1"/>
        <pt x="497" y="-26" on="0"/>
        <pt x="285" y="113" on="0"/>
        <pt x="230" y="235" on="1"/>
        <pt x="175" y="356" on="0"/>
        <pt x="175" y="506" on="1"/>
        <pt x="175" y="668" on="0"/>
        <pt x="281" y="953" on="0"/>
        <pt x="377" y="1056" on="1"/>
        <pt x="474" y="1159" on="0"/>
        <pt x="748" y="1275" on="0"/>
        <pt x="905" y="1275" on="1"/>
        <pt x="1013" y="1275" on="0"/>
        <pt x="1189" y="1191" on="0"/>
      </contour>
      <contour>
        <pt x="1135" y="1471" on="1"/>
        <pt x="1135" y="1436" on="0"/>
        <pt x="1083" y="1390" on="0"/>
        <pt x="1047" y="1390" on="1"/>
        <pt x="1012" y="1390" on="0"/>
        <pt x="963" y="1436" on="0"/>
        <pt x="963" y="1471" on="1"/>
        <pt x="963" y="1505" on="0"/>
        <pt x="1013" y="1548" on="0"/>
        <pt x="1047" y="1548" on="1"/>
        <pt x="1083" y="1548" on="0"/>
        <pt x="1135" y="1504" on="0"/>
      </contour>
      <contour>
        <pt x="865" y="1471" on="1"/>
        <pt x="865" y="1436" on="0"/>
        <pt x="815" y="1390" on="0"/>
        <pt x="779" y="1390" on="1"/>
        <pt x="744" y="1390" on="0"/>
        <pt x="695" y="1436" on="0"/>
        <pt x="695" y="1471" on="1"/>
        <pt x="695" y="1505" on="0"/>
        <pt x="745" y="1548" on="0"/>
        <pt x="779" y="1548" on="1"/>
        <pt x="815" y="1548" on="0"/>
        <pt x="865" y="1505" on="0"/>
      </contour>
    </TTGlyph>
    <TTGlyph name="Ograve" xMin="175" yMin="-26" xMax="1363" yMax="1704">
      <contour>
        <pt x="1079" y="1031" on="1"/>
        <pt x="1043" y="1100" on="0"/>
        <pt x="921" y="1178" on="0"/>
        <pt x="844" y="1178" on="1"/>
        <pt x="765" y="1178" on="0"/>
        <pt x="628" y="1132" on="0"/>
        <pt x="581" y="1092" on="1"/>
        <pt x="537" y="1055" on="0"/>
        <pt x="467" y="945" on="0"/>
        <pt x="446" y="886" on="1"/>
        <pt x="407" y="776" on="0"/>
        <pt x="398" y="642" on="1"/>
        <pt x="394" y="582" on="0"/>
        <pt x="394" y="529" on="1"/>
        <pt x="394" y="379" on="0"/>
        <pt x="438" y="270" on="1"/>
        <pt x="488" y="148" on="0"/>
        <pt x="583" y="104" on="1"/>
        <pt x="633" y="79" on="0"/>
        <pt x="698" y="79" on="1"/>
        <pt x="857" y="79" on="0"/>
        <pt x="959" y="165" on="1"/>
        <pt x="1048" y="239" on="0"/>
        <pt x="1096" y="370" on="1"/>
        <pt x="1135" y="480" on="0"/>
        <pt x="1146" y="608" on="1"/>
        <pt x="1150" y="668" on="0"/>
        <pt x="1150" y="715" on="1"/>
        <pt x="1149" y="895" on="0"/>
      </contour>
      <contour>
        <pt x="1247" y="1115" on="1"/>
        <pt x="1364" y="961" on="0"/>
        <pt x="1363" y="730" on="1"/>
        <pt x="1363" y="481" on="0"/>
        <pt x="1236" y="291" on="1"/>
        <pt x="1102" y="90" on="0"/>
        <pt x="882" y="14" on="1"/>
        <pt x="766" y="-27" on="0"/>
        <pt x="634" y="-26" on="1"/>
        <pt x="497" y="-26" on="0"/>
        <pt x="285" y="113" on="0"/>
        <pt x="230" y="235" on="1"/>
        <pt x="175" y="356" on="0"/>
        <pt x="175" y="506" on="1"/>
        <pt x="175" y="668" on="0"/>
        <pt x="281" y="953" on="0"/>
        <pt x="377" y="1056" on="1"/>
        <pt x="474" y="1159" on="0"/>
        <pt x="748" y="1275" on="0"/>
        <pt x="905" y="1275" on="1"/>
        <pt x="1013" y="1275" on="0"/>
        <pt x="1189" y="1191" on="0"/>
      </contour>
      <contour>
        <pt x="791" y="1666" on="1"/>
        <pt x="907" y="1704" on="1"/>
        <pt x="1039" y="1370" on="1"/>
        <pt x="981" y="1335" on="1"/>
      </contour>
    </TTGlyph>
    <TTGlyph name="Ohungarumlaut" xMin="175" yMin="-26" xMax="1363" yMax="1623">
      <contour>
        <pt x="1079" y="1031" on="1"/>
        <pt x="1043" y="1100" on="0"/>
        <pt x="921" y="1178" on="0"/>
        <pt x="844" y="1178" on="1"/>
        <pt x="765" y="1178" on="0"/>
        <pt x="628" y="1132" on="0"/>
        <pt x="581" y="1092" on="1"/>
        <pt x="492" y="1017" on="0"/>
        <pt x="446" y="885" on="1"/>
        <pt x="407" y="773" on="0"/>
        <pt x="398" y="640" on="1"/>
        <pt x="394" y="580" on="0"/>
        <pt x="394" y="528" on="1"/>
        <pt x="394" y="344" on="0"/>
        <pt x="464" y="217" on="1"/>
        <pt x="500" y="152" on="0"/>
        <pt x="620" y="79" on="0"/>
        <pt x="698" y="79" on="1"/>
        <pt x="857" y="79" on="0"/>
        <pt x="959" y="165" on="1"/>
        <pt x="1048" y="239" on="0"/>
        <pt x="1096" y="370" on="1"/>
        <pt x="1135" y="480" on="0"/>
        <pt x="1146" y="608" on="1"/>
        <pt x="1150" y="668" on="0"/>
        <pt x="1150" y="715" on="1"/>
        <pt x="1149" y="895" on="0"/>
      </contour>
      <contour>
        <pt x="1247" y="1115" on="1"/>
        <pt x="1364" y="961" on="0"/>
        <pt x="1363" y="730" on="1"/>
        <pt x="1363" y="481" on="0"/>
        <pt x="1236" y="291" on="1"/>
        <pt x="1102" y="90" on="0"/>
        <pt x="882" y="14" on="1"/>
        <pt x="766" y="-27" on="0"/>
        <pt x="634" y="-26" on="1"/>
        <pt x="497" y="-26" on="0"/>
        <pt x="285" y="113" on="0"/>
        <pt x="230" y="235" on="1"/>
        <pt x="175" y="356" on="0"/>
        <pt x="175" y="506" on="1"/>
        <pt x="175" y="668" on="0"/>
        <pt x="281" y="953" on="0"/>
        <pt x="377" y="1056" on="1"/>
        <pt x="474" y="1159" on="0"/>
        <pt x="748" y="1275" on="0"/>
        <pt x="905" y="1275" on="1"/>
        <pt x="1013" y="1275" on="0"/>
        <pt x="1189" y="1191" on="0"/>
      </contour>
      <contour>
        <pt x="1318" y="1532" on="1"/>
        <pt x="1027" y="1365" on="1"/>
        <pt x="999" y="1414" on="1"/>
        <pt x="1246" y="1615" on="1"/>
      </contour>
      <contour>
        <pt x="1117" y="1537" on="1"/>
        <pt x="816" y="1365" on="1"/>
        <pt x="787" y="1414" on="1"/>
        <pt x="1042" y="1623" on="1"/>
      </contour>
    </TTGlyph>
    <TTGlyph name="Omacron" xMin="175" yMin="-26" xMax="1363" yMax="1486">
      <contour>
        <pt x="1079" y="1031" on="1"/>
        <pt x="1043" y="1100" on="0"/>
        <pt x="921" y="1178" on="0"/>
        <pt x="844" y="1178" on="1"/>
        <pt x="765" y="1178" on="0"/>
        <pt x="628" y="1132" on="0"/>
        <pt x="581" y="1092" on="1"/>
        <pt x="492" y="1017" on="0"/>
        <pt x="446" y="885" on="1"/>
        <pt x="407" y="773" on="0"/>
        <pt x="398" y="640" on="1"/>
        <pt x="394" y="580" on="0"/>
        <pt x="394" y="528" on="1"/>
        <pt x="394" y="344" on="0"/>
        <pt x="464" y="217" on="1"/>
        <pt x="500" y="152" on="0"/>
        <pt x="620" y="79" on="0"/>
        <pt x="698" y="79" on="1"/>
        <pt x="857" y="79" on="0"/>
        <pt x="959" y="165" on="1"/>
        <pt x="1048" y="239" on="0"/>
        <pt x="1096" y="370" on="1"/>
        <pt x="1135" y="480" on="0"/>
        <pt x="1146" y="608" on="1"/>
        <pt x="1150" y="668" on="0"/>
        <pt x="1150" y="715" on="1"/>
        <pt x="1149" y="895" on="0"/>
      </contour>
      <contour>
        <pt x="1247" y="1115" on="1"/>
        <pt x="1364" y="961" on="0"/>
        <pt x="1363" y="730" on="1"/>
        <pt x="1363" y="481" on="0"/>
        <pt x="1236" y="291" on="1"/>
        <pt x="1102" y="90" on="0"/>
        <pt x="882" y="14" on="1"/>
        <pt x="766" y="-27" on="0"/>
        <pt x="634" y="-26" on="1"/>
        <pt x="497" y="-26" on="0"/>
        <pt x="285" y="113" on="0"/>
        <pt x="230" y="235" on="1"/>
        <pt x="175" y="356" on="0"/>
        <pt x="175" y="506" on="1"/>
        <pt x="175" y="668" on="0"/>
        <pt x="281" y="953" on="0"/>
        <pt x="377" y="1056" on="1"/>
        <pt x="474" y="1159" on="0"/>
        <pt x="748" y="1275" on="0"/>
        <pt x="905" y="1275" on="1"/>
        <pt x="1013" y="1275" on="0"/>
        <pt x="1189" y="1191" on="0"/>
      </contour>
      <contour>
        <pt x="700" y="1486" on="1"/>
        <pt x="1141" y="1486" on="1"/>
        <pt x="1128" y="1385" on="1"/>
        <pt x="687" y="1385" on="1"/>
      </contour>
    </TTGlyph>
    <TTGlyph name="Oslash" xMin="175" yMin="-83" xMax="1363" yMax="1297">
      <contour>
        <pt x="471" y="204" on="1"/>
        <pt x="1047" y="1080" on="1"/>
        <pt x="968" y="1178" on="0"/>
        <pt x="844" y="1178" on="1"/>
        <pt x="765" y="1178" on="0"/>
        <pt x="628" y="1132" on="0"/>
        <pt x="581" y="1092" on="1"/>
        <pt x="492" y="1017" on="0"/>
        <pt x="446" y="885" on="1"/>
        <pt x="407" y="773" on="0"/>
        <pt x="398" y="640" on="1"/>
        <pt x="394" y="580" on="0"/>
        <pt x="394" y="528" on="1"/>
        <pt x="394" y="344" on="0"/>
        <pt x="464" y="217" on="1"/>
      </contour>
      <contour>
        <pt x="1086" y="1019" on="1"/>
        <pt x="513" y="151" on="1"/>
        <pt x="516" y="148" on="0"/>
        <pt x="516" y="146" on="1"/>
        <pt x="516" y="135" on="0"/>
        <pt x="430" y="112" on="0"/>
        <pt x="345" y="95" on="0"/>
        <pt x="345" y="91" on="1"/>
        <pt x="345" y="79" on="0"/>
        <pt x="698" y="79" on="1"/>
        <pt x="857" y="79" on="0"/>
        <pt x="959" y="165" on="1"/>
        <pt x="1048" y="239" on="0"/>
        <pt x="1096" y="370" on="1"/>
        <pt x="1135" y="480" on="0"/>
        <pt x="1146" y="608" on="1"/>
        <pt x="1150" y="668" on="0"/>
        <pt x="1150" y="715" on="1"/>
        <pt x="1150" y="887" on="0"/>
      </contour>
      <contour>
        <pt x="1247" y="1115" on="1"/>
        <pt x="1364" y="961" on="0"/>
        <pt x="1363" y="730" on="1"/>
        <pt x="1363" y="481" on="0"/>
        <pt x="1236" y="291" on="1"/>
        <pt x="1102" y="90" on="0"/>
        <pt x="882" y="14" on="1"/>
        <pt x="766" y="-27" on="0"/>
        <pt x="634" y="-26" on="1"/>
        <pt x="531" y="-26" on="0"/>
        <pt x="446" y="12" on="1"/>
        <pt x="389" y="-74" on="1"/>
        <pt x="257" y="-83" on="1"/>
        <pt x="356" y="68" on="1"/>
        <pt x="275" y="133" on="0"/>
        <pt x="230" y="235" on="1"/>
        <pt x="175" y="356" on="0"/>
        <pt x="175" y="506" on="1"/>
        <pt x="175" y="668" on="0"/>
        <pt x="281" y="953" on="0"/>
        <pt x="377" y="1056" on="1"/>
        <pt x="474" y="1159" on="0"/>
        <pt x="748" y="1275" on="0"/>
        <pt x="905" y="1275" on="1"/>
        <pt x="1022" y="1275" on="0"/>
        <pt x="1117" y="1224" on="1"/>
        <pt x="1160" y="1289" on="1"/>
        <pt x="1294" y="1297" on="1"/>
        <pt x="1205" y="1161" on="1"/>
        <pt x="1228" y="1140" on="0"/>
      </contour>
    </TTGlyph>
    <TTGlyph name="Otilde" xMin="175" yMin="-26" xMax="1363" yMax="1538">
      <contour>
        <pt x="1079" y="1031" on="1"/>
        <pt x="1043" y="1100" on="0"/>
        <pt x="921" y="1178" on="0"/>
        <pt x="844" y="1178" on="1"/>
        <pt x="765" y="1178" on="0"/>
        <pt x="628" y="1132" on="0"/>
        <pt x="581" y="1092" on="1"/>
        <pt x="537" y="1055" on="0"/>
        <pt x="467" y="945" on="0"/>
        <pt x="446" y="886" on="1"/>
        <pt x="407" y="776" on="0"/>
        <pt x="398" y="642" on="1"/>
        <pt x="394" y="582" on="0"/>
        <pt x="394" y="529" on="1"/>
        <pt x="394" y="379" on="0"/>
        <pt x="438" y="270" on="1"/>
        <pt x="488" y="148" on="0"/>
        <pt x="583" y="104" on="1"/>
        <pt x="633" y="79" on="0"/>
        <pt x="698" y="79" on="1"/>
        <pt x="857" y="79" on="0"/>
        <pt x="959" y="165" on="1"/>
        <pt x="1048" y="239" on="0"/>
        <pt x="1096" y="370" on="1"/>
        <pt x="1135" y="480" on="0"/>
        <pt x="1146" y="608" on="1"/>
        <pt x="1150" y="668" on="0"/>
        <pt x="1150" y="715" on="1"/>
        <pt x="1149" y="895" on="0"/>
      </contour>
      <contour>
        <pt x="1247" y="1115" on="1"/>
        <pt x="1364" y="961" on="0"/>
        <pt x="1363" y="730" on="1"/>
        <pt x="1363" y="481" on="0"/>
        <pt x="1236" y="291" on="1"/>
        <pt x="1102" y="90" on="0"/>
        <pt x="882" y="14" on="1"/>
        <pt x="766" y="-27" on="0"/>
        <pt x="634" y="-26" on="1"/>
        <pt x="497" y="-26" on="0"/>
        <pt x="285" y="113" on="0"/>
        <pt x="230" y="235" on="1"/>
        <pt x="175" y="356" on="0"/>
        <pt x="175" y="506" on="1"/>
        <pt x="175" y="668" on="0"/>
        <pt x="281" y="953" on="0"/>
        <pt x="377" y="1056" on="1"/>
        <pt x="474" y="1159" on="0"/>
        <pt x="748" y="1275" on="0"/>
        <pt x="905" y="1275" on="1"/>
        <pt x="1013" y="1275" on="0"/>
        <pt x="1189" y="1191" on="0"/>
      </contour>
      <contour>
        <pt x="682" y="1385" on="1"/>
        <pt x="684" y="1390" on="0"/>
        <pt x="684" y="1393" on="1"/>
        <pt x="689" y="1413" on="0"/>
        <pt x="702" y="1442" on="1"/>
        <pt x="719" y="1478" on="0"/>
        <pt x="741" y="1500" on="1"/>
        <pt x="769" y="1528" on="0"/>
        <pt x="804" y="1529" on="1"/>
        <pt x="808" y="1529" on="0"/>
        <pt x="813" y="1527" on="0"/>
        <pt x="817" y="1527" on="1"/>
        <pt x="1041" y="1497" on="1"/>
        <pt x="1044" y="1497" on="1"/>
        <pt x="1055" y="1497" on="0"/>
        <pt x="1083" y="1517" on="0"/>
        <pt x="1092" y="1529" on="1"/>
        <pt x="1100" y="1538" on="1"/>
        <pt x="1148" y="1537" on="1"/>
        <pt x="1147" y="1535" on="0"/>
        <pt x="1145" y="1524" on="0"/>
        <pt x="1144" y="1521" on="1"/>
        <pt x="1131" y="1480" on="0"/>
        <pt x="1104" y="1443" on="1"/>
        <pt x="1067" y="1393" on="0"/>
        <pt x="1017" y="1393" on="1"/>
        <pt x="1006" y="1393" on="1"/>
        <pt x="782" y="1424" on="1"/>
        <pt x="779" y="1424" on="1"/>
        <pt x="767" y="1424" on="0"/>
        <pt x="737" y="1401" on="0"/>
        <pt x="728" y="1388" on="1"/>
        <pt x="720" y="1376" on="1"/>
      </contour>
    </TTGlyph>
    <TTGlyph name="P" xMin="77" yMin="0" xMax="1167" yMax="1257">
      <contour>
        <pt x="1167" y="958" on="1"/>
        <pt x="1167" y="859" on="0"/>
        <pt x="1086" y="682" on="0"/>
        <pt x="1016" y="621" on="1"/>
        <pt x="947" y="560" on="0"/>
        <pt x="766" y="491" on="0"/>
        <pt x="672" y="491" on="1"/>
        <pt x="622" y="491" on="0"/>
        <pt x="565" y="500" on="1"/>
        <pt x="558" y="582" on="1"/>
        <pt x="610" y="582" on="1"/>
        <pt x="785" y="582" on="0"/>
        <pt x="962" y="754" on="0"/>
        <pt x="962" y="918" on="1"/>
        <pt x="962" y="1036" on="0"/>
        <pt x="834" y="1175" on="0"/>
        <pt x="711" y="1175" on="1"/>
        <pt x="608" y="1170" on="1"/>
        <pt x="443" y="122" on="1"/>
        <pt x="664" y="84" on="1"/>
        <pt x="643" y="0" on="1"/>
        <pt x="77" y="0" on="1"/>
        <pt x="93" y="74" on="1"/>
        <pt x="261" y="121" on="1"/>
        <pt x="414" y="1107" on="1"/>
        <pt x="257" y="1136" on="1"/>
        <pt x="279" y="1213" on="1"/>
        <pt x="562" y="1258" on="0"/>
        <pt x="742" y="1257" on="1"/>
        <pt x="1167" y="1257" on="0"/>
      </contour>
    </TTGlyph>
    <TTGlyph name="Q" xMin="174" yMin="-385" xMax="1378" yMax="1275">
      <contour>
        <pt x="1119" y="960" on="1"/>
        <pt x="1060" y="1092" on="0"/>
        <pt x="963" y="1143" on="1"/>
        <pt x="908" y="1169" on="0"/>
        <pt x="847" y="1170" on="1"/>
        <pt x="629" y="1170" on="0"/>
        <pt x="377" y="845" on="0"/>
        <pt x="377" y="561" on="1"/>
        <pt x="377" y="416" on="0"/>
        <pt x="428" y="300" on="1"/>
        <pt x="486" y="164" on="0"/>
        <pt x="605" y="106" on="1"/>
        <pt x="670" y="73" on="0"/>
        <pt x="756" y="68" on="1"/>
        <pt x="904" y="105" on="0"/>
        <pt x="999" y="192" on="1"/>
        <pt x="1081" y="266" on="0"/>
        <pt x="1124" y="377" on="1"/>
        <pt x="1159" y="466" on="0"/>
        <pt x="1168" y="583" on="1"/>
        <pt x="1171" y="624" on="0"/>
        <pt x="1171" y="682" on="1"/>
        <pt x="1171" y="838" on="0"/>
      </contour>
      <contour>
        <pt x="695" y="-63" on="1"/>
        <pt x="695" y="-41" on="0"/>
        <pt x="696" y="-22" on="1"/>
        <pt x="684" y="-27" on="0"/>
        <pt x="635" y="-26" on="1"/>
        <pt x="498" y="-26" on="0"/>
        <pt x="285" y="113" on="0"/>
        <pt x="229" y="235" on="1"/>
        <pt x="174" y="354" on="0"/>
        <pt x="174" y="506" on="1"/>
        <pt x="174" y="666" on="0"/>
        <pt x="285" y="952" on="0"/>
        <pt x="486" y="1159" on="0"/>
        <pt x="763" y="1275" on="0"/>
        <pt x="918" y="1275" on="1"/>
        <pt x="1025" y="1275" on="0"/>
        <pt x="1202" y="1193" on="0"/>
        <pt x="1260" y="1118" on="1"/>
        <pt x="1378" y="967" on="0"/>
        <pt x="1378" y="738" on="1"/>
        <pt x="1378" y="563" on="0"/>
        <pt x="1239" y="254" on="0"/>
        <pt x="1110" y="145" on="1"/>
        <pt x="979" y="34" on="0"/>
        <pt x="811" y="-7" on="1"/>
        <pt x="824" y="-63" on="0"/>
        <pt x="868" y="-140" on="0"/>
        <pt x="908" y="-174" on="1"/>
        <pt x="989" y="-243" on="0"/>
        <pt x="1180" y="-276" on="1"/>
        <pt x="1173" y="-324" on="0"/>
        <pt x="1158" y="-351" on="1"/>
        <pt x="1085" y="-386" on="0"/>
        <pt x="984" y="-385" on="1"/>
        <pt x="856" y="-385" on="0"/>
        <pt x="695" y="-210" on="0"/>
      </contour>
    </TTGlyph>
    <TTGlyph name="R" xMin="78" yMin="-22" xMax="1223" yMax="1256">
      <contour>
        <pt x="1098" y="1138" on="1"/>
        <pt x="1154" y="1073" on="0"/>
        <pt x="1155" y="979" on="1"/>
        <pt x="1155" y="862" on="0"/>
        <pt x="1068" y="759" on="1"/>
        <pt x="979" y="656" on="0"/>
        <pt x="824" y="601" on="1"/>
        <pt x="824" y="599" on="1"/>
        <pt x="956" y="349" on="1"/>
        <pt x="991" y="284" on="0"/>
        <pt x="1021" y="232" on="1"/>
        <pt x="1044" y="191" on="0"/>
        <pt x="1080" y="151" on="1"/>
        <pt x="1103" y="123" on="0"/>
        <pt x="1150" y="98" on="1"/>
        <pt x="1174" y="85" on="0"/>
        <pt x="1194" y="78" on="1"/>
        <pt x="1223" y="68" on="1"/>
        <pt x="1198" y="0" on="1"/>
        <pt x="1135" y="-22" on="0"/>
        <pt x="1079" y="-22" on="1"/>
        <pt x="978" y="-22" on="0"/>
        <pt x="836" y="117" on="0"/>
        <pt x="784" y="253" on="1"/>
        <pt x="675" y="538" on="1"/>
        <pt x="510" y="538" on="1"/>
        <pt x="445" y="126" on="1"/>
        <pt x="619" y="83" on="1"/>
        <pt x="600" y="0" on="1"/>
        <pt x="78" y="0" on="1"/>
        <pt x="94" y="74" on="1"/>
        <pt x="262" y="121" on="1"/>
        <pt x="417" y="1103" on="1"/>
        <pt x="256" y="1133" on="1"/>
        <pt x="280" y="1209" on="1"/>
        <pt x="567" y="1255" on="0"/>
        <pt x="723" y="1256" on="1"/>
        <pt x="994" y="1255" on="0"/>
      </contour>
      <contour>
        <pt x="523" y="629" on="1"/>
        <pt x="682" y="629" on="1"/>
        <pt x="786" y="629" on="0"/>
        <pt x="948" y="803" on="0"/>
        <pt x="948" y="926" on="1"/>
        <pt x="948" y="1033" on="0"/>
        <pt x="828" y="1171" on="0"/>
        <pt x="726" y="1171" on="1"/>
        <pt x="700" y="1171" on="0"/>
        <pt x="624" y="1168" on="1"/>
        <pt x="609" y="1166" on="1"/>
      </contour>
    </TTGlyph>
    <TTGlyph name="Racute" xMin="78" yMin="-22" xMax="1223" yMax="1709">
      <contour>
        <pt x="1098" y="1138" on="1"/>
        <pt x="1154" y="1073" on="0"/>
        <pt x="1155" y="979" on="1"/>
        <pt x="1155" y="862" on="0"/>
        <pt x="1068" y="759" on="1"/>
        <pt x="979" y="656" on="0"/>
        <pt x="824" y="601" on="1"/>
        <pt x="824" y="599" on="1"/>
        <pt x="956" y="349" on="1"/>
        <pt x="991" y="284" on="0"/>
        <pt x="1021" y="232" on="1"/>
        <pt x="1044" y="191" on="0"/>
        <pt x="1080" y="151" on="1"/>
        <pt x="1103" y="123" on="0"/>
        <pt x="1150" y="98" on="1"/>
        <pt x="1174" y="85" on="0"/>
        <pt x="1194" y="78" on="1"/>
        <pt x="1223" y="68" on="1"/>
        <pt x="1198" y="0" on="1"/>
        <pt x="1135" y="-22" on="0"/>
        <pt x="1079" y="-22" on="1"/>
        <pt x="978" y="-22" on="0"/>
        <pt x="836" y="117" on="0"/>
        <pt x="784" y="253" on="1"/>
        <pt x="675" y="538" on="1"/>
        <pt x="510" y="538" on="1"/>
        <pt x="445" y="126" on="1"/>
        <pt x="619" y="83" on="1"/>
        <pt x="600" y="0" on="1"/>
        <pt x="78" y="0" on="1"/>
        <pt x="94" y="74" on="1"/>
        <pt x="262" y="121" on="1"/>
        <pt x="417" y="1103" on="1"/>
        <pt x="256" y="1133" on="1"/>
        <pt x="280" y="1209" on="1"/>
        <pt x="567" y="1255" on="0"/>
        <pt x="723" y="1256" on="1"/>
        <pt x="994" y="1255" on="0"/>
      </contour>
      <contour>
        <pt x="523" y="629" on="1"/>
        <pt x="682" y="629" on="1"/>
        <pt x="786" y="629" on="0"/>
        <pt x="948" y="803" on="0"/>
        <pt x="948" y="926" on="1"/>
        <pt x="948" y="1037" on="0"/>
        <pt x="830" y="1171" on="0"/>
        <pt x="726" y="1171" on="1"/>
        <pt x="700" y="1171" on="0"/>
        <pt x="624" y="1168" on="1"/>
        <pt x="609" y="1166" on="1"/>
      </contour>
      <contour>
        <pt x="1042" y="1669" on="1"/>
        <pt x="859" y="1352" on="1"/>
        <pt x="807" y="1383" on="1"/>
        <pt x="930" y="1709" on="1"/>
      </contour>
    </TTGlyph>
    <TTGlyph name="Rcaron" xMin="78" yMin="-22" xMax="1223" yMax="1586">
      <contour>
        <pt x="1098" y="1138" on="1"/>
        <pt x="1154" y="1073" on="0"/>
        <pt x="1155" y="979" on="1"/>
        <pt x="1155" y="862" on="0"/>
        <pt x="1068" y="759" on="1"/>
        <pt x="979" y="656" on="0"/>
        <pt x="824" y="601" on="1"/>
        <pt x="824" y="599" on="1"/>
        <pt x="956" y="349" on="1"/>
        <pt x="991" y="284" on="0"/>
        <pt x="1021" y="232" on="1"/>
        <pt x="1044" y="191" on="0"/>
        <pt x="1080" y="151" on="1"/>
        <pt x="1103" y="123" on="0"/>
        <pt x="1150" y="98" on="1"/>
        <pt x="1174" y="85" on="0"/>
        <pt x="1194" y="78" on="1"/>
        <pt x="1223" y="68" on="1"/>
        <pt x="1198" y="0" on="1"/>
        <pt x="1135" y="-22" on="0"/>
        <pt x="1079" y="-22" on="1"/>
        <pt x="978" y="-22" on="0"/>
        <pt x="836" y="117" on="0"/>
        <pt x="784" y="253" on="1"/>
        <pt x="675" y="538" on="1"/>
        <pt x="510" y="538" on="1"/>
        <pt x="445" y="126" on="1"/>
        <pt x="619" y="83" on="1"/>
        <pt x="600" y="0" on="1"/>
        <pt x="78" y="0" on="1"/>
        <pt x="94" y="74" on="1"/>
        <pt x="262" y="121" on="1"/>
        <pt x="417" y="1103" on="1"/>
        <pt x="256" y="1133" on="1"/>
        <pt x="280" y="1209" on="1"/>
        <pt x="567" y="1255" on="0"/>
        <pt x="723" y="1256" on="1"/>
        <pt x="994" y="1255" on="0"/>
      </contour>
      <contour>
        <pt x="523" y="629" on="1"/>
        <pt x="682" y="629" on="1"/>
        <pt x="786" y="629" on="0"/>
        <pt x="948" y="803" on="0"/>
        <pt x="948" y="926" on="1"/>
        <pt x="948" y="1037" on="0"/>
        <pt x="830" y="1171" on="0"/>
        <pt x="726" y="1171" on="1"/>
        <pt x="700" y="1171" on="0"/>
        <pt x="624" y="1168" on="1"/>
        <pt x="609" y="1166" on="1"/>
      </contour>
      <contour>
        <pt x="761" y="1360" on="1"/>
        <pt x="581" y="1525" on="1"/>
        <pt x="662" y="1586" on="1"/>
        <pt x="811" y="1443" on="1"/>
        <pt x="821" y="1443" on="1"/>
        <pt x="945" y="1583" on="1"/>
        <pt x="988" y="1553" on="1"/>
        <pt x="816" y="1373" on="1"/>
      </contour>
    </TTGlyph>
    <TTGlyph name="Rcommaaccent" xMin="78" yMin="-22" xMax="1223" yMax="1256">
      <contour>
        <pt x="1098" y="1138" on="1"/>
        <pt x="1154" y="1073" on="0"/>
        <pt x="1155" y="979" on="1"/>
        <pt x="1155" y="862" on="0"/>
        <pt x="1068" y="759" on="1"/>
        <pt x="979" y="656" on="0"/>
        <pt x="824" y="601" on="1"/>
        <pt x="824" y="599" on="1"/>
        <pt x="956" y="349" on="1"/>
        <pt x="991" y="284" on="0"/>
        <pt x="1021" y="232" on="1"/>
        <pt x="1044" y="191" on="0"/>
        <pt x="1080" y="151" on="1"/>
        <pt x="1103" y="123" on="0"/>
        <pt x="1150" y="98" on="1"/>
        <pt x="1174" y="85" on="0"/>
        <pt x="1194" y="78" on="1"/>
        <pt x="1223" y="68" on="1"/>
        <pt x="1198" y="0" on="1"/>
        <pt x="1135" y="-22" on="0"/>
        <pt x="1079" y="-22" on="1"/>
        <pt x="978" y="-22" on="0"/>
        <pt x="836" y="117" on="0"/>
        <pt x="784" y="253" on="1"/>
        <pt x="675" y="538" on="1"/>
        <pt x="510" y="538" on="1"/>
        <pt x="445" y="126" on="1"/>
        <pt x="619" y="83" on="1"/>
        <pt x="600" y="0" on="1"/>
        <pt x="78" y="0" on="1"/>
        <pt x="94" y="74" on="1"/>
        <pt x="262" y="121" on="1"/>
        <pt x="417" y="1103" on="1"/>
        <pt x="256" y="1133" on="1"/>
        <pt x="280" y="1209" on="1"/>
        <pt x="567" y="1255" on="0"/>
        <pt x="723" y="1256" on="1"/>
        <pt x="994" y="1255" on="0"/>
      </contour>
      <contour>
        <pt x="523" y="629" on="1"/>
        <pt x="682" y="629" on="1"/>
        <pt x="786" y="629" on="0"/>
        <pt x="948" y="803" on="0"/>
        <pt x="948" y="926" on="1"/>
        <pt x="948" y="1037" on="0"/>
        <pt x="830" y="1171" on="0"/>
        <pt x="726" y="1171" on="1"/>
        <pt x="700" y="1171" on="0"/>
        <pt x="624" y="1168" on="1"/>
        <pt x="609" y="1166" on="1"/>
      </contour>
    </TTGlyph>
    <TTGlyph name="S" xMin="111" yMin="-25" xMax="940" yMax="1272">
      <contour>
        <pt x="875" y="888" on="1"/>
        <pt x="781" y="900" on="1"/>
        <pt x="786" y="1092" on="1"/>
        <pt x="779" y="1123" on="0"/>
        <pt x="691" y="1186" on="0"/>
        <pt x="640" y="1186" on="1"/>
        <pt x="551" y="1186" on="0"/>
        <pt x="433" y="1058" on="0"/>
        <pt x="433" y="953" on="1"/>
        <pt x="433" y="860" on="0"/>
        <pt x="526" y="783" on="1"/>
        <pt x="571" y="746" on="0"/>
        <pt x="616" y="717" on="1"/>
        <pt x="757" y="624" on="0"/>
        <pt x="806" y="579" on="1"/>
        <pt x="898" y="495" on="0"/>
        <pt x="898" y="384" on="1"/>
        <pt x="898" y="295" on="0"/>
        <pt x="815" y="137" on="0"/>
        <pt x="744" y="84" on="1"/>
        <pt x="595" y="-25" on="0"/>
        <pt x="409" y="-25" on="1"/>
        <pt x="309" y="-25" on="0"/>
        <pt x="141" y="60" on="0"/>
        <pt x="111" y="122" on="1"/>
        <pt x="167" y="390" on="1"/>
        <pt x="261" y="376" on="1"/>
        <pt x="266" y="187" on="1"/>
        <pt x="287" y="136" on="0"/>
        <pt x="380" y="78" on="0"/>
        <pt x="448" y="78" on="1"/>
        <pt x="521" y="78" on="0"/>
        <pt x="588" y="108" on="1"/>
        <pt x="662" y="142" on="0"/>
        <pt x="693" y="212" on="1"/>
        <pt x="710" y="252" on="0"/>
        <pt x="710" y="297" on="1"/>
        <pt x="710" y="374" on="0"/>
        <pt x="639" y="438" on="1"/>
        <pt x="575" y="494" on="0"/>
        <pt x="483" y="553" on="1"/>
        <pt x="393" y="610" on="0"/>
        <pt x="328" y="680" on="1"/>
        <pt x="257" y="755" on="0"/>
        <pt x="256" y="855" on="1"/>
        <pt x="256" y="1005" on="0"/>
        <pt x="348" y="1113" on="1"/>
        <pt x="436" y="1216" on="0"/>
        <pt x="562" y="1254" on="1"/>
        <pt x="622" y="1272" on="0"/>
        <pt x="687" y="1272" on="1"/>
        <pt x="765" y="1272" on="0"/>
        <pt x="899" y="1223" on="0"/>
        <pt x="940" y="1171" on="1"/>
      </contour>
    </TTGlyph>
    <TTGlyph name="Sacute" xMin="111" yMin="-25" xMax="968" yMax="1712">
      <contour>
        <pt x="875" y="888" on="1"/>
        <pt x="781" y="900" on="1"/>
        <pt x="786" y="1092" on="1"/>
        <pt x="779" y="1123" on="0"/>
        <pt x="691" y="1186" on="0"/>
        <pt x="640" y="1186" on="1"/>
        <pt x="551" y="1186" on="0"/>
        <pt x="433" y="1058" on="0"/>
        <pt x="433" y="953" on="1"/>
        <pt x="433" y="860" on="0"/>
        <pt x="526" y="783" on="1"/>
        <pt x="571" y="746" on="0"/>
        <pt x="616" y="717" on="1"/>
        <pt x="757" y="624" on="0"/>
        <pt x="806" y="579" on="1"/>
        <pt x="898" y="495" on="0"/>
        <pt x="898" y="384" on="1"/>
        <pt x="898" y="295" on="0"/>
        <pt x="815" y="137" on="0"/>
        <pt x="744" y="84" on="1"/>
        <pt x="595" y="-25" on="0"/>
        <pt x="409" y="-25" on="1"/>
        <pt x="309" y="-25" on="0"/>
        <pt x="141" y="60" on="0"/>
        <pt x="111" y="122" on="1"/>
        <pt x="167" y="390" on="1"/>
        <pt x="261" y="376" on="1"/>
        <pt x="266" y="187" on="1"/>
        <pt x="287" y="136" on="0"/>
        <pt x="380" y="78" on="0"/>
        <pt x="448" y="78" on="1"/>
        <pt x="521" y="78" on="0"/>
        <pt x="588" y="108" on="1"/>
        <pt x="662" y="142" on="0"/>
        <pt x="693" y="212" on="1"/>
        <pt x="710" y="252" on="0"/>
        <pt x="710" y="297" on="1"/>
        <pt x="710" y="374" on="0"/>
        <pt x="639" y="438" on="1"/>
        <pt x="575" y="494" on="0"/>
        <pt x="483" y="553" on="1"/>
        <pt x="393" y="610" on="0"/>
        <pt x="328" y="680" on="1"/>
        <pt x="257" y="755" on="0"/>
        <pt x="256" y="855" on="1"/>
        <pt x="256" y="1005" on="0"/>
        <pt x="348" y="1113" on="1"/>
        <pt x="436" y="1216" on="0"/>
        <pt x="562" y="1254" on="1"/>
        <pt x="622" y="1272" on="0"/>
        <pt x="687" y="1272" on="1"/>
        <pt x="765" y="1272" on="0"/>
        <pt x="899" y="1223" on="0"/>
        <pt x="940" y="1171" on="1"/>
      </contour>
      <contour>
        <pt x="968" y="1672" on="1"/>
        <pt x="784" y="1355" on="1"/>
        <pt x="733" y="1386" on="1"/>
        <pt x="855" y="1712" on="1"/>
      </contour>
    </TTGlyph>
    <TTGlyph name="Scaron" xMin="111" yMin="-25" xMax="940" yMax="1590">
      <contour>
        <pt x="875" y="888" on="1"/>
        <pt x="781" y="900" on="1"/>
        <pt x="786" y="1092" on="1"/>
        <pt x="779" y="1123" on="0"/>
        <pt x="691" y="1186" on="0"/>
        <pt x="640" y="1186" on="1"/>
        <pt x="551" y="1186" on="0"/>
        <pt x="433" y="1058" on="0"/>
        <pt x="433" y="953" on="1"/>
        <pt x="433" y="859" on="0"/>
        <pt x="526" y="782" on="1"/>
        <pt x="569" y="747" on="0"/>
        <pt x="616" y="715" on="1"/>
        <pt x="623" y="710" on="0"/>
        <pt x="673" y="677" on="0"/>
        <pt x="694" y="663" on="0"/>
        <pt x="736" y="633" on="0"/>
        <pt x="761" y="614" on="0"/>
        <pt x="793" y="588" on="0"/>
        <pt x="806" y="577" on="1"/>
        <pt x="898" y="493" on="0"/>
        <pt x="898" y="384" on="1"/>
        <pt x="898" y="295" on="0"/>
        <pt x="815" y="137" on="0"/>
        <pt x="744" y="84" on="1"/>
        <pt x="595" y="-25" on="0"/>
        <pt x="409" y="-25" on="1"/>
        <pt x="309" y="-25" on="0"/>
        <pt x="141" y="60" on="0"/>
        <pt x="111" y="122" on="1"/>
        <pt x="167" y="390" on="1"/>
        <pt x="261" y="376" on="1"/>
        <pt x="266" y="187" on="1"/>
        <pt x="287" y="136" on="0"/>
        <pt x="380" y="78" on="0"/>
        <pt x="448" y="78" on="1"/>
        <pt x="521" y="78" on="0"/>
        <pt x="588" y="108" on="1"/>
        <pt x="662" y="142" on="0"/>
        <pt x="693" y="212" on="1"/>
        <pt x="710" y="252" on="0"/>
        <pt x="710" y="297" on="1"/>
        <pt x="710" y="374" on="0"/>
        <pt x="639" y="438" on="1"/>
        <pt x="575" y="494" on="0"/>
        <pt x="483" y="553" on="1"/>
        <pt x="393" y="610" on="0"/>
        <pt x="328" y="680" on="1"/>
        <pt x="257" y="755" on="0"/>
        <pt x="256" y="855" on="1"/>
        <pt x="256" y="1005" on="0"/>
        <pt x="348" y="1113" on="1"/>
        <pt x="436" y="1216" on="0"/>
        <pt x="562" y="1254" on="1"/>
        <pt x="622" y="1272" on="0"/>
        <pt x="687" y="1272" on="1"/>
        <pt x="765" y="1272" on="0"/>
        <pt x="899" y="1223" on="0"/>
        <pt x="940" y="1171" on="1"/>
      </contour>
      <contour>
        <pt x="687" y="1363" on="1"/>
        <pt x="506" y="1529" on="1"/>
        <pt x="587" y="1590" on="1"/>
        <pt x="736" y="1446" on="1"/>
        <pt x="746" y="1446" on="1"/>
        <pt x="870" y="1586" on="1"/>
        <pt x="913" y="1557" on="1"/>
        <pt x="741" y="1376" on="1"/>
      </contour>
    </TTGlyph>
    <TTGlyph name="Scedilla" xMin="112" yMin="-390" xMax="940" yMax="1272">
      <contour>
        <pt x="469" y="-76" on="1"/>
        <pt x="558" y="-154" on="0"/>
        <pt x="558" y="-227" on="1"/>
        <pt x="558" y="-330" on="0"/>
        <pt x="358" y="-390" on="1"/>
        <pt x="338" y="-331" on="1"/>
        <pt x="379" y="-317" on="0"/>
        <pt x="424" y="-272" on="0"/>
        <pt x="424" y="-248" on="1"/>
        <pt x="424" y="-207" on="0"/>
        <pt x="352" y="-137" on="1"/>
        <pt x="429" y="-25" on="1"/>
        <pt x="409" y="-25" on="1"/>
        <pt x="309" y="-25" on="0"/>
        <pt x="141" y="60" on="0"/>
        <pt x="112" y="122" on="1"/>
        <pt x="168" y="390" on="1"/>
        <pt x="262" y="376" on="1"/>
        <pt x="267" y="187" on="1"/>
        <pt x="288" y="136" on="0"/>
        <pt x="381" y="78" on="0"/>
        <pt x="449" y="78" on="1"/>
        <pt x="522" y="78" on="0"/>
        <pt x="589" y="108" on="1"/>
        <pt x="663" y="142" on="0"/>
        <pt x="694" y="212" on="1"/>
        <pt x="711" y="252" on="0"/>
        <pt x="711" y="297" on="1"/>
        <pt x="711" y="374" on="0"/>
        <pt x="640" y="438" on="1"/>
        <pt x="576" y="494" on="0"/>
        <pt x="484" y="553" on="1"/>
        <pt x="394" y="610" on="0"/>
        <pt x="328" y="680" on="1"/>
        <pt x="257" y="755" on="0"/>
        <pt x="257" y="855" on="1"/>
        <pt x="257" y="1005" on="0"/>
        <pt x="349" y="1113" on="1"/>
        <pt x="437" y="1216" on="0"/>
        <pt x="562" y="1254" on="1"/>
        <pt x="622" y="1272" on="0"/>
        <pt x="687" y="1272" on="1"/>
        <pt x="765" y="1272" on="0"/>
        <pt x="900" y="1223" on="0"/>
        <pt x="940" y="1171" on="1"/>
        <pt x="876" y="888" on="1"/>
        <pt x="782" y="900" on="1"/>
        <pt x="787" y="1092" on="1"/>
        <pt x="780" y="1123" on="0"/>
        <pt x="691" y="1186" on="0"/>
        <pt x="641" y="1186" on="1"/>
        <pt x="552" y="1186" on="0"/>
        <pt x="434" y="1058" on="0"/>
        <pt x="434" y="953" on="1"/>
        <pt x="434" y="860" on="0"/>
        <pt x="527" y="783" on="1"/>
        <pt x="572" y="746" on="0"/>
        <pt x="617" y="717" on="1"/>
        <pt x="758" y="624" on="0"/>
        <pt x="807" y="579" on="1"/>
        <pt x="899" y="495" on="0"/>
        <pt x="899" y="384" on="1"/>
        <pt x="899" y="305" on="0"/>
        <pt x="836" y="165" on="0"/>
        <pt x="781" y="115" on="1"/>
        <pt x="670" y="12" on="0"/>
        <pt x="510" y="-17" on="1"/>
      </contour>
    </TTGlyph>
    <TTGlyph name="Scommaaccent" xMin="111" yMin="-400" xMax="940" yMax="1272">
      <contour>
        <pt x="875" y="888" on="1"/>
        <pt x="781" y="900" on="1"/>
        <pt x="786" y="1092" on="1"/>
        <pt x="779" y="1123" on="0"/>
        <pt x="691" y="1186" on="0"/>
        <pt x="640" y="1186" on="1"/>
        <pt x="551" y="1186" on="0"/>
        <pt x="433" y="1058" on="0"/>
        <pt x="433" y="953" on="1"/>
        <pt x="433" y="860" on="0"/>
        <pt x="526" y="783" on="1"/>
        <pt x="571" y="746" on="0"/>
        <pt x="616" y="717" on="1"/>
        <pt x="757" y="624" on="0"/>
        <pt x="806" y="579" on="1"/>
        <pt x="898" y="495" on="0"/>
        <pt x="898" y="384" on="1"/>
        <pt x="898" y="295" on="0"/>
        <pt x="815" y="137" on="0"/>
        <pt x="744" y="84" on="1"/>
        <pt x="595" y="-25" on="0"/>
        <pt x="409" y="-25" on="1"/>
        <pt x="309" y="-25" on="0"/>
        <pt x="141" y="60" on="0"/>
        <pt x="111" y="122" on="1"/>
        <pt x="167" y="390" on="1"/>
        <pt x="261" y="376" on="1"/>
        <pt x="266" y="187" on="1"/>
        <pt x="287" y="136" on="0"/>
        <pt x="380" y="78" on="0"/>
        <pt x="448" y="78" on="1"/>
        <pt x="521" y="78" on="0"/>
        <pt x="588" y="108" on="1"/>
        <pt x="662" y="142" on="0"/>
        <pt x="693" y="212" on="1"/>
        <pt x="710" y="252" on="0"/>
        <pt x="710" y="297" on="1"/>
        <pt x="710" y="374" on="0"/>
        <pt x="639" y="438" on="1"/>
        <pt x="575" y="494" on="0"/>
        <pt x="483" y="553" on="1"/>
        <pt x="393" y="610" on="0"/>
        <pt x="328" y="680" on="1"/>
        <pt x="257" y="755" on="0"/>
        <pt x="256" y="855" on="1"/>
        <pt x="256" y="1005" on="0"/>
        <pt x="348" y="1113" on="1"/>
        <pt x="436" y="1216" on="0"/>
        <pt x="562" y="1254" on="1"/>
        <pt x="622" y="1272" on="0"/>
        <pt x="687" y="1272" on="1"/>
        <pt x="765" y="1272" on="0"/>
        <pt x="899" y="1223" on="0"/>
        <pt x="940" y="1171" on="1"/>
      </contour>
      <contour>
        <pt x="352" y="-361" on="1"/>
        <pt x="406" y="-346" on="0"/>
        <pt x="474" y="-283" on="0"/>
        <pt x="474" y="-253" on="1"/>
        <pt x="474" y="-226" on="0"/>
        <pt x="443" y="-195" on="0"/>
        <pt x="414" y="-195" on="1"/>
        <pt x="410" y="-195" on="0"/>
        <pt x="398" y="-199" on="1"/>
        <pt x="393" y="-182" on="0"/>
        <pt x="393" y="-167" on="1"/>
        <pt x="393" y="-136" on="0"/>
        <pt x="448" y="-89" on="0"/>
        <pt x="477" y="-89" on="1"/>
        <pt x="563" y="-89" on="0"/>
        <pt x="563" y="-199" on="1"/>
        <pt x="563" y="-247" on="0"/>
        <pt x="521" y="-304" on="1"/>
        <pt x="498" y="-335" on="0"/>
        <pt x="413" y="-386" on="0"/>
        <pt x="358" y="-400" on="1"/>
      </contour>
    </TTGlyph>
    <TTGlyph name="T" xMin="185" yMin="0" xMax="1289" yMax="1246">
      <contour>
        <pt x="228" y="1246" on="1"/>
        <pt x="1289" y="1246" on="1"/>
        <pt x="1204" y="908" on="1"/>
        <pt x="1115" y="923" on="1"/>
        <pt x="1115" y="1155" on="1"/>
        <pt x="825" y="1155" on="1"/>
        <pt x="660" y="114" on="1"/>
        <pt x="830" y="81" on="1"/>
        <pt x="811" y="0" on="1"/>
        <pt x="294" y="0" on="1"/>
        <pt x="311" y="74" on="1"/>
        <pt x="478" y="121" on="1"/>
        <pt x="642" y="1155" on="1"/>
        <pt x="361" y="1155" on="1"/>
        <pt x="271" y="912" on="1"/>
        <pt x="185" y="925" on="1"/>
      </contour>
    </TTGlyph>
    <TTGlyph name="Tbar" xMin="185" yMin="0" xMax="1289" yMax="1481">
      <contour>
        <pt x="228" y="1246" on="1"/>
        <pt x="1289" y="1246" on="1"/>
        <pt x="1204" y="908" on="1"/>
        <pt x="1115" y="923" on="1"/>
        <pt x="1115" y="1155" on="1"/>
        <pt x="825" y="1155" on="1"/>
        <pt x="660" y="114" on="1"/>
        <pt x="830" y="81" on="1"/>
        <pt x="811" y="0" on="1"/>
        <pt x="294" y="0" on="1"/>
        <pt x="311" y="74" on="1"/>
        <pt x="478" y="121" on="1"/>
        <pt x="642" y="1155" on="1"/>
        <pt x="361" y="1155" on="1"/>
        <pt x="271" y="912" on="1"/>
        <pt x="185" y="925" on="1"/>
      </contour>
      <contour>
        <pt x="534" y="1481" on="1"/>
        <pt x="976" y="1481" on="1"/>
        <pt x="963" y="1381" on="1"/>
        <pt x="521" y="1381" on="1"/>
      </contour>
    </TTGlyph>
    <TTGlyph name="Tcaron" xMin="185" yMin="0" xMax="1289" yMax="1586">
      <contour>
        <pt x="228" y="1246" on="1"/>
        <pt x="1289" y="1246" on="1"/>
        <pt x="1204" y="908" on="1"/>
        <pt x="1115" y="923" on="1"/>
        <pt x="1115" y="1155" on="1"/>
        <pt x="825" y="1155" on="1"/>
        <pt x="660" y="114" on="1"/>
        <pt x="830" y="81" on="1"/>
        <pt x="811" y="0" on="1"/>
        <pt x="294" y="0" on="1"/>
        <pt x="311" y="74" on="1"/>
        <pt x="478" y="121" on="1"/>
        <pt x="642" y="1155" on="1"/>
        <pt x="361" y="1155" on="1"/>
        <pt x="271" y="912" on="1"/>
        <pt x="185" y="925" on="1"/>
      </contour>
      <contour>
        <pt x="756" y="1360" on="1"/>
        <pt x="576" y="1525" on="1"/>
        <pt x="657" y="1586" on="1"/>
        <pt x="806" y="1443" on="1"/>
        <pt x="816" y="1443" on="1"/>
        <pt x="940" y="1583" on="1"/>
        <pt x="983" y="1553" on="1"/>
        <pt x="811" y="1373" on="1"/>
      </contour>
    </TTGlyph>
    <TTGlyph name="Tcedilla" xMin="185" yMin="-390" xMax="1289" yMax="1246">
      <contour>
        <pt x="571" y="-76" on="1"/>
        <pt x="660" y="-155" on="0"/>
        <pt x="660" y="-227" on="1"/>
        <pt x="660" y="-330" on="0"/>
        <pt x="460" y="-390" on="1"/>
        <pt x="440" y="-331" on="1"/>
        <pt x="481" y="-317" on="0"/>
        <pt x="526" y="-272" on="0"/>
        <pt x="526" y="-248" on="1"/>
        <pt x="526" y="-207" on="0"/>
        <pt x="453" y="-137" on="1"/>
        <pt x="549" y="0" on="1"/>
        <pt x="294" y="0" on="1"/>
        <pt x="311" y="74" on="1"/>
        <pt x="478" y="121" on="1"/>
        <pt x="642" y="1155" on="1"/>
        <pt x="361" y="1155" on="1"/>
        <pt x="271" y="912" on="1"/>
        <pt x="185" y="925" on="1"/>
        <pt x="228" y="1246" on="1"/>
        <pt x="1289" y="1246" on="1"/>
        <pt x="1204" y="908" on="1"/>
        <pt x="1115" y="923" on="1"/>
        <pt x="1115" y="1155" on="1"/>
        <pt x="825" y="1155" on="1"/>
        <pt x="660" y="114" on="1"/>
        <pt x="830" y="81" on="1"/>
        <pt x="811" y="0" on="1"/>
        <pt x="624" y="0" on="1"/>
      </contour>
    </TTGlyph>
    <TTGlyph name="Tcommaaccent" xMin="185" yMin="-400" xMax="1289" yMax="1246">
      <contour>
        <pt x="228" y="1246" on="1"/>
        <pt x="1289" y="1246" on="1"/>
        <pt x="1204" y="908" on="1"/>
        <pt x="1115" y="923" on="1"/>
        <pt x="1115" y="1155" on="1"/>
        <pt x="825" y="1155" on="1"/>
        <pt x="660" y="114" on="1"/>
        <pt x="830" y="81" on="1"/>
        <pt x="811" y="0" on="1"/>
        <pt x="294" y="0" on="1"/>
        <pt x="311" y="74" on="1"/>
        <pt x="478" y="121" on="1"/>
        <pt x="642" y="1155" on="1"/>
        <pt x="361" y="1155" on="1"/>
        <pt x="271" y="912" on="1"/>
        <pt x="185" y="925" on="1"/>
      </contour>
      <contour>
        <pt x="451" y="-361" on="1"/>
        <pt x="505" y="-346" on="0"/>
        <pt x="573" y="-283" on="0"/>
        <pt x="573" y="-253" on="1"/>
        <pt x="573" y="-226" on="0"/>
        <pt x="543" y="-195" on="0"/>
        <pt x="514" y="-195" on="1"/>
        <pt x="510" y="-195" on="0"/>
        <pt x="497" y="-199" on="1"/>
        <pt x="492" y="-182" on="0"/>
        <pt x="492" y="-167" on="1"/>
        <pt x="492" y="-136" on="0"/>
        <pt x="548" y="-89" on="0"/>
        <pt x="577" y="-89" on="1"/>
        <pt x="663" y="-89" on="0"/>
        <pt x="663" y="-199" on="1"/>
        <pt x="663" y="-247" on="0"/>
        <pt x="620" y="-304" on="1"/>
        <pt x="597" y="-335" on="0"/>
        <pt x="512" y="-386" on="0"/>
        <pt x="457" y="-400" on="1"/>
      </contour>
    </TTGlyph>
    <TTGlyph name="Thorn" xMin="83" yMin="0" xMax="1143" yMax="1246">
      <contour>
        <pt x="605" y="1132" on="1"/>
        <pt x="591" y="1037" on="1"/>
        <pt x="656" y="1042" on="0"/>
        <pt x="718" y="1042" on="1"/>
        <pt x="864" y="1042" on="0"/>
        <pt x="964" y="1004" on="1"/>
        <pt x="1077" y="961" on="0"/>
        <pt x="1120" y="864" on="1"/>
        <pt x="1143" y="812" on="0"/>
        <pt x="1143" y="743" on="1"/>
        <pt x="1143" y="644" on="0"/>
        <pt x="1062" y="467" on="0"/>
        <pt x="992" y="406" on="1"/>
        <pt x="923" y="345" on="0"/>
        <pt x="742" y="276" on="0"/>
        <pt x="648" y="276" on="1"/>
        <pt x="598" y="276" on="0"/>
        <pt x="541" y="285" on="1"/>
        <pt x="534" y="367" on="1"/>
        <pt x="586" y="367" on="1"/>
        <pt x="761" y="367" on="0"/>
        <pt x="938" y="538" on="0"/>
        <pt x="938" y="703" on="1"/>
        <pt x="938" y="821" on="0"/>
        <pt x="810" y="959" on="0"/>
        <pt x="687" y="959" on="1"/>
        <pt x="584" y="955" on="1"/>
        <pt x="577" y="951" on="1"/>
        <pt x="445" y="114" on="1"/>
        <pt x="615" y="81" on="1"/>
        <pt x="596" y="0" on="1"/>
        <pt x="83" y="0" on="1"/>
        <pt x="98" y="74" on="1"/>
        <pt x="263" y="121" on="1"/>
        <pt x="422" y="1128" on="1"/>
        <pt x="255" y="1170" on="1"/>
        <pt x="271" y="1246" on="1"/>
        <pt x="791" y="1246" on="1"/>
        <pt x="774" y="1170" on="1"/>
      </contour>
    </TTGlyph>
    <TTGlyph name="U" xMin="219" yMin="-26" xMax="1521" yMax="1246">
      <contour>
        <pt x="471" y="495" on="1"/>
        <pt x="461" y="433" on="0"/>
        <pt x="461" y="384" on="1"/>
        <pt x="461" y="238" on="0"/>
        <pt x="606" y="93" on="0"/>
        <pt x="740" y="93" on="1"/>
        <pt x="857" y="93" on="0"/>
        <pt x="935" y="142" on="1"/>
        <pt x="1003" y="184" on="0"/>
        <pt x="1046" y="263" on="1"/>
        <pt x="1079" y="325" on="0"/>
        <pt x="1099" y="410" on="1"/>
        <pt x="1105" y="436" on="0"/>
        <pt x="1113" y="481" on="1"/>
        <pt x="1215" y="1128" on="1"/>
        <pt x="1050" y="1170" on="1"/>
        <pt x="1065" y="1246" on="1"/>
        <pt x="1521" y="1246" on="1"/>
        <pt x="1505" y="1170" on="1"/>
        <pt x="1337" y="1132" on="1"/>
        <pt x="1233" y="500" on="1"/>
        <pt x="1144" y="-26" on="0"/>
        <pt x="659" y="-26" on="1"/>
        <pt x="544" y="-26" on="0"/>
        <pt x="456" y="15" on="1"/>
        <pt x="400" y="41" on="0"/>
        <pt x="325" y="122" on="0"/>
        <pt x="301" y="187" on="1"/>
        <pt x="275" y="254" on="0"/>
        <pt x="275" y="344" on="1"/>
        <pt x="275" y="400" on="0"/>
        <pt x="285" y="470" on="1"/>
        <pt x="390" y="1128" on="1"/>
        <pt x="219" y="1170" on="1"/>
        <pt x="237" y="1246" on="1"/>
        <pt x="754" y="1246" on="1"/>
        <pt x="739" y="1170" on="1"/>
        <pt x="570" y="1132" on="1"/>
      </contour>
    </TTGlyph>
    <TTGlyph name="Uacute" xMin="219" yMin="-26" xMax="1521" yMax="1701">
      <contour>
        <pt x="471" y="495" on="1"/>
        <pt x="461" y="433" on="0"/>
        <pt x="461" y="384" on="1"/>
        <pt x="461" y="238" on="0"/>
        <pt x="606" y="93" on="0"/>
        <pt x="740" y="93" on="1"/>
        <pt x="857" y="93" on="0"/>
        <pt x="935" y="142" on="1"/>
        <pt x="1003" y="184" on="0"/>
        <pt x="1046" y="263" on="1"/>
        <pt x="1079" y="325" on="0"/>
        <pt x="1099" y="410" on="1"/>
        <pt x="1105" y="436" on="0"/>
        <pt x="1113" y="481" on="1"/>
        <pt x="1215" y="1128" on="1"/>
        <pt x="1050" y="1170" on="1"/>
        <pt x="1065" y="1246" on="1"/>
        <pt x="1521" y="1246" on="1"/>
        <pt x="1505" y="1170" on="1"/>
        <pt x="1337" y="1132" on="1"/>
        <pt x="1233" y="500" on="1"/>
        <pt x="1144" y="-26" on="0"/>
        <pt x="659" y="-26" on="1"/>
        <pt x="544" y="-26" on="0"/>
        <pt x="456" y="15" on="1"/>
        <pt x="400" y="41" on="0"/>
        <pt x="325" y="122" on="0"/>
        <pt x="301" y="187" on="1"/>
        <pt x="275" y="254" on="0"/>
        <pt x="275" y="344" on="1"/>
        <pt x="275" y="400" on="0"/>
        <pt x="285" y="470" on="1"/>
        <pt x="390" y="1128" on="1"/>
        <pt x="219" y="1170" on="1"/>
        <pt x="237" y="1246" on="1"/>
        <pt x="754" y="1246" on="1"/>
        <pt x="739" y="1170" on="1"/>
        <pt x="570" y="1132" on="1"/>
      </contour>
      <contour>
        <pt x="1117" y="1661" on="1"/>
        <pt x="934" y="1343" on="1"/>
        <pt x="883" y="1375" on="1"/>
        <pt x="1005" y="1701" on="1"/>
      </contour>
    </TTGlyph>
    <TTGlyph name="Ucaron" xMin="219" yMin="-26" xMax="1521" yMax="1586">
      <contour>
        <pt x="471" y="495" on="1"/>
        <pt x="461" y="433" on="0"/>
        <pt x="461" y="384" on="1"/>
        <pt x="461" y="238" on="0"/>
        <pt x="606" y="93" on="0"/>
        <pt x="740" y="93" on="1"/>
        <pt x="857" y="93" on="0"/>
        <pt x="935" y="142" on="1"/>
        <pt x="1003" y="184" on="0"/>
        <pt x="1046" y="263" on="1"/>
        <pt x="1079" y="325" on="0"/>
        <pt x="1099" y="410" on="1"/>
        <pt x="1105" y="436" on="0"/>
        <pt x="1113" y="481" on="1"/>
        <pt x="1215" y="1128" on="1"/>
        <pt x="1050" y="1170" on="1"/>
        <pt x="1065" y="1246" on="1"/>
        <pt x="1521" y="1246" on="1"/>
        <pt x="1505" y="1170" on="1"/>
        <pt x="1337" y="1132" on="1"/>
        <pt x="1233" y="500" on="1"/>
        <pt x="1144" y="-26" on="0"/>
        <pt x="659" y="-26" on="1"/>
        <pt x="544" y="-26" on="0"/>
        <pt x="456" y="15" on="1"/>
        <pt x="400" y="41" on="0"/>
        <pt x="325" y="122" on="0"/>
        <pt x="301" y="187" on="1"/>
        <pt x="275" y="254" on="0"/>
        <pt x="275" y="344" on="1"/>
        <pt x="275" y="400" on="0"/>
        <pt x="285" y="470" on="1"/>
        <pt x="390" y="1128" on="1"/>
        <pt x="219" y="1170" on="1"/>
        <pt x="237" y="1246" on="1"/>
        <pt x="754" y="1246" on="1"/>
        <pt x="739" y="1170" on="1"/>
        <pt x="570" y="1132" on="1"/>
      </contour>
      <contour>
        <pt x="931" y="1360" on="1"/>
        <pt x="751" y="1525" on="1"/>
        <pt x="832" y="1586" on="1"/>
        <pt x="981" y="1443" on="1"/>
        <pt x="991" y="1443" on="1"/>
        <pt x="1115" y="1583" on="1"/>
        <pt x="1158" y="1553" on="1"/>
        <pt x="986" y="1373" on="1"/>
      </contour>
    </TTGlyph>
    <TTGlyph name="Ucircumflex" xMin="219" yMin="-26" xMax="1521" yMax="1583">
      <contour>
        <pt x="471" y="495" on="1"/>
        <pt x="461" y="433" on="0"/>
        <pt x="461" y="384" on="1"/>
        <pt x="461" y="238" on="0"/>
        <pt x="606" y="93" on="0"/>
        <pt x="740" y="93" on="1"/>
        <pt x="857" y="93" on="0"/>
        <pt x="935" y="142" on="1"/>
        <pt x="1003" y="184" on="0"/>
        <pt x="1046" y="263" on="1"/>
        <pt x="1079" y="325" on="0"/>
        <pt x="1099" y="410" on="1"/>
        <pt x="1105" y="436" on="0"/>
        <pt x="1113" y="481" on="1"/>
        <pt x="1215" y="1128" on="1"/>
        <pt x="1050" y="1170" on="1"/>
        <pt x="1065" y="1246" on="1"/>
        <pt x="1521" y="1246" on="1"/>
        <pt x="1505" y="1170" on="1"/>
        <pt x="1337" y="1132" on="1"/>
        <pt x="1233" y="500" on="1"/>
        <pt x="1144" y="-26" on="0"/>
        <pt x="659" y="-26" on="1"/>
        <pt x="544" y="-26" on="0"/>
        <pt x="456" y="15" on="1"/>
        <pt x="400" y="41" on="0"/>
        <pt x="325" y="122" on="0"/>
        <pt x="301" y="187" on="1"/>
        <pt x="275" y="254" on="0"/>
        <pt x="275" y="344" on="1"/>
        <pt x="275" y="400" on="0"/>
        <pt x="285" y="470" on="1"/>
        <pt x="390" y="1128" on="1"/>
        <pt x="219" y="1170" on="1"/>
        <pt x="237" y="1246" on="1"/>
        <pt x="754" y="1246" on="1"/>
        <pt x="739" y="1170" on="1"/>
        <pt x="570" y="1132" on="1"/>
      </contour>
      <contour>
        <pt x="947" y="1583" on="1"/>
        <pt x="1126" y="1397" on="1"/>
        <pt x="1076" y="1361" on="1"/>
        <pt x="912" y="1471" on="1"/>
        <pt x="902" y="1471" on="1"/>
        <pt x="762" y="1360" on="1"/>
        <pt x="724" y="1390" on="1"/>
        <pt x="892" y="1570" on="1"/>
      </contour>
    </TTGlyph>
    <TTGlyph name="Udieresis" xMin="219" yMin="-26" xMax="1521" yMax="1545">
      <contour>
        <pt x="471" y="495" on="1"/>
        <pt x="461" y="433" on="0"/>
        <pt x="461" y="384" on="1"/>
        <pt x="461" y="238" on="0"/>
        <pt x="606" y="93" on="0"/>
        <pt x="740" y="93" on="1"/>
        <pt x="857" y="93" on="0"/>
        <pt x="935" y="142" on="1"/>
        <pt x="1003" y="184" on="0"/>
        <pt x="1046" y="263" on="1"/>
        <pt x="1079" y="325" on="0"/>
        <pt x="1099" y="410" on="1"/>
        <pt x="1105" y="436" on="0"/>
        <pt x="1113" y="481" on="1"/>
        <pt x="1215" y="1128" on="1"/>
        <pt x="1050" y="1170" on="1"/>
        <pt x="1065" y="1246" on="1"/>
        <pt x="1521" y="1246" on="1"/>
        <pt x="1505" y="1170" on="1"/>
        <pt x="1337" y="1132" on="1"/>
        <pt x="1233" y="500" on="1"/>
        <pt x="1144" y="-26" on="0"/>
        <pt x="659" y="-26" on="1"/>
        <pt x="544" y="-26" on="0"/>
        <pt x="456" y="15" on="1"/>
        <pt x="400" y="41" on="0"/>
        <pt x="325" y="122" on="0"/>
        <pt x="301" y="187" on="1"/>
        <pt x="275" y="254" on="0"/>
        <pt x="275" y="344" on="1"/>
        <pt x="275" y="400" on="0"/>
        <pt x="285" y="470" on="1"/>
        <pt x="390" y="1128" on="1"/>
        <pt x="219" y="1170" on="1"/>
        <pt x="237" y="1246" on="1"/>
        <pt x="754" y="1246" on="1"/>
        <pt x="739" y="1170" on="1"/>
        <pt x="570" y="1132" on="1"/>
      </contour>
      <contour>
        <pt x="1146" y="1467" on="1"/>
        <pt x="1146" y="1432" on="0"/>
        <pt x="1093" y="1386" on="0"/>
        <pt x="1023" y="1386" on="0"/>
        <pt x="974" y="1433" on="0"/>
        <pt x="974" y="1501" on="0"/>
        <pt x="1024" y="1545" on="0"/>
        <pt x="1058" y="1545" on="1"/>
        <pt x="1094" y="1545" on="0"/>
        <pt x="1146" y="1500" on="0"/>
      </contour>
      <contour>
        <pt x="876" y="1467" on="1"/>
        <pt x="876" y="1432" on="0"/>
        <pt x="825" y="1386" on="0"/>
        <pt x="755" y="1386" on="0"/>
        <pt x="706" y="1433" on="0"/>
        <pt x="706" y="1501" on="0"/>
        <pt x="756" y="1545" on="0"/>
        <pt x="790" y="1545" on="1"/>
        <pt x="826" y="1545" on="0"/>
        <pt x="876" y="1500" on="0"/>
      </contour>
    </TTGlyph>
    <TTGlyph name="Udieresisacute" xMin="219" yMin="-26" xMax="1521" yMax="1927">
      <contour>
        <pt x="1173" y="1888" on="1"/>
        <pt x="989" y="1570" on="1"/>
        <pt x="938" y="1601" on="1"/>
        <pt x="1060" y="1927" on="1"/>
      </contour>
      <contour>
        <pt x="471" y="495" on="1"/>
        <pt x="461" y="433" on="0"/>
        <pt x="461" y="384" on="1"/>
        <pt x="461" y="238" on="0"/>
        <pt x="606" y="93" on="0"/>
        <pt x="740" y="93" on="1"/>
        <pt x="857" y="93" on="0"/>
        <pt x="935" y="142" on="1"/>
        <pt x="1003" y="184" on="0"/>
        <pt x="1046" y="263" on="1"/>
        <pt x="1079" y="325" on="0"/>
        <pt x="1099" y="410" on="1"/>
        <pt x="1105" y="436" on="0"/>
        <pt x="1113" y="481" on="1"/>
        <pt x="1215" y="1128" on="1"/>
        <pt x="1050" y="1170" on="1"/>
        <pt x="1065" y="1246" on="1"/>
        <pt x="1521" y="1246" on="1"/>
        <pt x="1505" y="1170" on="1"/>
        <pt x="1337" y="1132" on="1"/>
        <pt x="1233" y="500" on="1"/>
        <pt x="1144" y="-26" on="0"/>
        <pt x="659" y="-26" on="1"/>
        <pt x="544" y="-26" on="0"/>
        <pt x="456" y="15" on="1"/>
        <pt x="400" y="41" on="0"/>
        <pt x="325" y="122" on="0"/>
        <pt x="301" y="187" on="1"/>
        <pt x="275" y="254" on="0"/>
        <pt x="275" y="344" on="1"/>
        <pt x="275" y="400" on="0"/>
        <pt x="285" y="470" on="1"/>
        <pt x="390" y="1128" on="1"/>
        <pt x="219" y="1170" on="1"/>
        <pt x="237" y="1246" on="1"/>
        <pt x="754" y="1246" on="1"/>
        <pt x="739" y="1170" on="1"/>
        <pt x="570" y="1132" on="1"/>
      </contour>
      <contour>
        <pt x="1175" y="1467" on="1"/>
        <pt x="1175" y="1432" on="0"/>
        <pt x="1122" y="1386" on="0"/>
        <pt x="1052" y="1386" on="0"/>
        <pt x="1002" y="1433" on="0"/>
        <pt x="1002" y="1501" on="0"/>
        <pt x="1053" y="1545" on="0"/>
        <pt x="1087" y="1545" on="1"/>
        <pt x="1123" y="1545" on="0"/>
        <pt x="1175" y="1500" on="0"/>
      </contour>
      <contour>
        <pt x="905" y="1467" on="1"/>
        <pt x="905" y="1432" on="0"/>
        <pt x="854" y="1386" on="0"/>
        <pt x="784" y="1386" on="0"/>
        <pt x="735" y="1433" on="0"/>
        <pt x="735" y="1501" on="0"/>
        <pt x="785" y="1545" on="0"/>
        <pt x="819" y="1545" on="1"/>
        <pt x="855" y="1545" on="0"/>
        <pt x="905" y="1500" on="0"/>
      </contour>
    </TTGlyph>
    <TTGlyph name="Udieresiscaron" xMin="219" yMin="-26" xMax="1521" yMax="1816">
      <contour>
        <pt x="948" y="1590" on="1"/>
        <pt x="768" y="1755" on="1"/>
        <pt x="849" y="1816" on="1"/>
        <pt x="998" y="1672" on="1"/>
        <pt x="1007" y="1672" on="1"/>
        <pt x="1132" y="1813" on="1"/>
        <pt x="1175" y="1783" on="1"/>
        <pt x="1002" y="1603" on="1"/>
      </contour>
      <contour>
        <pt x="471" y="495" on="1"/>
        <pt x="461" y="433" on="0"/>
        <pt x="461" y="384" on="1"/>
        <pt x="461" y="238" on="0"/>
        <pt x="606" y="93" on="0"/>
        <pt x="740" y="93" on="1"/>
        <pt x="857" y="93" on="0"/>
        <pt x="935" y="142" on="1"/>
        <pt x="1003" y="184" on="0"/>
        <pt x="1046" y="263" on="1"/>
        <pt x="1079" y="325" on="0"/>
        <pt x="1099" y="410" on="1"/>
        <pt x="1105" y="436" on="0"/>
        <pt x="1113" y="481" on="1"/>
        <pt x="1215" y="1128" on="1"/>
        <pt x="1050" y="1170" on="1"/>
        <pt x="1065" y="1246" on="1"/>
        <pt x="1521" y="1246" on="1"/>
        <pt x="1505" y="1170" on="1"/>
        <pt x="1337" y="1132" on="1"/>
        <pt x="1233" y="500" on="1"/>
        <pt x="1144" y="-26" on="0"/>
        <pt x="659" y="-26" on="1"/>
        <pt x="544" y="-26" on="0"/>
        <pt x="456" y="15" on="1"/>
        <pt x="400" y="41" on="0"/>
        <pt x="325" y="122" on="0"/>
        <pt x="301" y="187" on="1"/>
        <pt x="275" y="254" on="0"/>
        <pt x="275" y="344" on="1"/>
        <pt x="275" y="400" on="0"/>
        <pt x="285" y="470" on="1"/>
        <pt x="390" y="1128" on="1"/>
        <pt x="219" y="1170" on="1"/>
        <pt x="237" y="1246" on="1"/>
        <pt x="754" y="1246" on="1"/>
        <pt x="739" y="1170" on="1"/>
        <pt x="570" y="1132" on="1"/>
      </contour>
      <contour>
        <pt x="1175" y="1467" on="1"/>
        <pt x="1175" y="1432" on="0"/>
        <pt x="1122" y="1386" on="0"/>
        <pt x="1052" y="1386" on="0"/>
        <pt x="1002" y="1433" on="0"/>
        <pt x="1002" y="1501" on="0"/>
        <pt x="1053" y="1545" on="0"/>
        <pt x="1087" y="1545" on="1"/>
        <pt x="1123" y="1545" on="0"/>
        <pt x="1175" y="1500" on="0"/>
      </contour>
      <contour>
        <pt x="905" y="1467" on="1"/>
        <pt x="905" y="1432" on="0"/>
        <pt x="854" y="1386" on="0"/>
        <pt x="784" y="1386" on="0"/>
        <pt x="735" y="1433" on="0"/>
        <pt x="735" y="1501" on="0"/>
        <pt x="785" y="1545" on="0"/>
        <pt x="819" y="1545" on="1"/>
        <pt x="855" y="1545" on="0"/>
        <pt x="905" y="1500" on="0"/>
      </contour>
    </TTGlyph>
    <TTGlyph name="Udieresisgrave" xMin="219" yMin="-26" xMax="1521" yMax="1926">
      <contour>
        <pt x="731" y="1888" on="1"/>
        <pt x="847" y="1926" on="1"/>
        <pt x="979" y="1592" on="1"/>
        <pt x="921" y="1558" on="1"/>
      </contour>
      <contour>
        <pt x="1175" y="1467" on="1"/>
        <pt x="1175" y="1432" on="0"/>
        <pt x="1122" y="1386" on="0"/>
        <pt x="1052" y="1386" on="0"/>
        <pt x="1002" y="1433" on="0"/>
        <pt x="1002" y="1501" on="0"/>
        <pt x="1053" y="1545" on="0"/>
        <pt x="1087" y="1545" on="1"/>
        <pt x="1123" y="1545" on="0"/>
        <pt x="1175" y="1500" on="0"/>
      </contour>
      <contour>
        <pt x="905" y="1467" on="1"/>
        <pt x="905" y="1432" on="0"/>
        <pt x="854" y="1386" on="0"/>
        <pt x="784" y="1386" on="0"/>
        <pt x="735" y="1433" on="0"/>
        <pt x="735" y="1501" on="0"/>
        <pt x="785" y="1545" on="0"/>
        <pt x="819" y="1545" on="1"/>
        <pt x="855" y="1545" on="0"/>
        <pt x="905" y="1500" on="0"/>
      </contour>
      <contour>
        <pt x="471" y="495" on="1"/>
        <pt x="461" y="433" on="0"/>
        <pt x="461" y="384" on="1"/>
        <pt x="461" y="238" on="0"/>
        <pt x="606" y="93" on="0"/>
        <pt x="740" y="93" on="1"/>
        <pt x="857" y="93" on="0"/>
        <pt x="935" y="142" on="1"/>
        <pt x="1003" y="184" on="0"/>
        <pt x="1046" y="263" on="1"/>
        <pt x="1079" y="325" on="0"/>
        <pt x="1099" y="410" on="1"/>
        <pt x="1105" y="436" on="0"/>
        <pt x="1113" y="481" on="1"/>
        <pt x="1215" y="1128" on="1"/>
        <pt x="1050" y="1170" on="1"/>
        <pt x="1065" y="1246" on="1"/>
        <pt x="1521" y="1246" on="1"/>
        <pt x="1505" y="1170" on="1"/>
        <pt x="1337" y="1132" on="1"/>
        <pt x="1233" y="500" on="1"/>
        <pt x="1144" y="-26" on="0"/>
        <pt x="659" y="-26" on="1"/>
        <pt x="544" y="-26" on="0"/>
        <pt x="456" y="15" on="1"/>
        <pt x="400" y="41" on="0"/>
        <pt x="325" y="122" on="0"/>
        <pt x="301" y="187" on="1"/>
        <pt x="275" y="254" on="0"/>
        <pt x="275" y="344" on="1"/>
        <pt x="275" y="400" on="0"/>
        <pt x="285" y="470" on="1"/>
        <pt x="390" y="1128" on="1"/>
        <pt x="219" y="1170" on="1"/>
        <pt x="237" y="1246" on="1"/>
        <pt x="754" y="1246" on="1"/>
        <pt x="739" y="1170" on="1"/>
        <pt x="570" y="1132" on="1"/>
      </contour>
    </TTGlyph>
    <TTGlyph name="Udieresismacron" xMin="219" yMin="-26" xMax="1521" yMax="1706">
      <contour>
        <pt x="763" y="1706" on="1"/>
        <pt x="1205" y="1706" on="1"/>
        <pt x="1192" y="1605" on="1"/>
        <pt x="750" y="1605" on="1"/>
      </contour>
      <contour>
        <pt x="471" y="495" on="1"/>
        <pt x="461" y="433" on="0"/>
        <pt x="461" y="384" on="1"/>
        <pt x="461" y="238" on="0"/>
        <pt x="606" y="93" on="0"/>
        <pt x="740" y="93" on="1"/>
        <pt x="857" y="93" on="0"/>
        <pt x="935" y="142" on="1"/>
        <pt x="1003" y="184" on="0"/>
        <pt x="1046" y="263" on="1"/>
        <pt x="1079" y="325" on="0"/>
        <pt x="1099" y="410" on="1"/>
        <pt x="1105" y="436" on="0"/>
        <pt x="1113" y="481" on="1"/>
        <pt x="1215" y="1128" on="1"/>
        <pt x="1050" y="1170" on="1"/>
        <pt x="1065" y="1246" on="1"/>
        <pt x="1521" y="1246" on="1"/>
        <pt x="1505" y="1170" on="1"/>
        <pt x="1337" y="1132" on="1"/>
        <pt x="1233" y="500" on="1"/>
        <pt x="1144" y="-26" on="0"/>
        <pt x="659" y="-26" on="1"/>
        <pt x="544" y="-26" on="0"/>
        <pt x="456" y="15" on="1"/>
        <pt x="400" y="41" on="0"/>
        <pt x="325" y="122" on="0"/>
        <pt x="301" y="187" on="1"/>
        <pt x="275" y="254" on="0"/>
        <pt x="275" y="344" on="1"/>
        <pt x="275" y="400" on="0"/>
        <pt x="285" y="470" on="1"/>
        <pt x="390" y="1128" on="1"/>
        <pt x="219" y="1170" on="1"/>
        <pt x="237" y="1246" on="1"/>
        <pt x="754" y="1246" on="1"/>
        <pt x="739" y="1170" on="1"/>
        <pt x="570" y="1132" on="1"/>
      </contour>
      <contour>
        <pt x="1175" y="1467" on="1"/>
        <pt x="1175" y="1432" on="0"/>
        <pt x="1122" y="1386" on="0"/>
        <pt x="1052" y="1386" on="0"/>
        <pt x="1002" y="1433" on="0"/>
        <pt x="1002" y="1501" on="0"/>
        <pt x="1053" y="1545" on="0"/>
        <pt x="1087" y="1545" on="1"/>
        <pt x="1123" y="1545" on="0"/>
        <pt x="1175" y="1500" on="0"/>
      </contour>
      <contour>
        <pt x="905" y="1467" on="1"/>
        <pt x="905" y="1432" on="0"/>
        <pt x="854" y="1386" on="0"/>
        <pt x="784" y="1386" on="0"/>
        <pt x="735" y="1433" on="0"/>
        <pt x="735" y="1501" on="0"/>
        <pt x="785" y="1545" on="0"/>
        <pt x="819" y="1545" on="1"/>
        <pt x="855" y="1545" on="0"/>
        <pt x="905" y="1500" on="0"/>
      </contour>
    </TTGlyph>
    <TTGlyph name="Ugrave" xMin="219" yMin="-26" xMax="1521" yMax="1701">
      <contour>
        <pt x="471" y="495" on="1"/>
        <pt x="461" y="433" on="0"/>
        <pt x="461" y="384" on="1"/>
        <pt x="461" y="238" on="0"/>
        <pt x="606" y="93" on="0"/>
        <pt x="740" y="93" on="1"/>
        <pt x="857" y="93" on="0"/>
        <pt x="935" y="142" on="1"/>
        <pt x="1003" y="184" on="0"/>
        <pt x="1046" y="263" on="1"/>
        <pt x="1079" y="325" on="0"/>
        <pt x="1099" y="410" on="1"/>
        <pt x="1105" y="436" on="0"/>
        <pt x="1113" y="481" on="1"/>
        <pt x="1215" y="1128" on="1"/>
        <pt x="1050" y="1170" on="1"/>
        <pt x="1065" y="1246" on="1"/>
        <pt x="1521" y="1246" on="1"/>
        <pt x="1505" y="1170" on="1"/>
        <pt x="1337" y="1132" on="1"/>
        <pt x="1233" y="500" on="1"/>
        <pt x="1144" y="-26" on="0"/>
        <pt x="659" y="-26" on="1"/>
        <pt x="544" y="-26" on="0"/>
        <pt x="456" y="15" on="1"/>
        <pt x="400" y="41" on="0"/>
        <pt x="325" y="122" on="0"/>
        <pt x="301" y="187" on="1"/>
        <pt x="275" y="254" on="0"/>
        <pt x="275" y="344" on="1"/>
        <pt x="275" y="400" on="0"/>
        <pt x="285" y="470" on="1"/>
        <pt x="390" y="1128" on="1"/>
        <pt x="219" y="1170" on="1"/>
        <pt x="237" y="1246" on="1"/>
        <pt x="754" y="1246" on="1"/>
        <pt x="739" y="1170" on="1"/>
        <pt x="570" y="1132" on="1"/>
      </contour>
      <contour>
        <pt x="801" y="1663" on="1"/>
        <pt x="917" y="1701" on="1"/>
        <pt x="1050" y="1366" on="1"/>
        <pt x="992" y="1332" on="1"/>
      </contour>
    </TTGlyph>
    <TTGlyph name="Uhungarumlaut" xMin="219" yMin="-26" xMax="1521" yMax="1620">
      <contour>
        <pt x="471" y="495" on="1"/>
        <pt x="461" y="433" on="0"/>
        <pt x="461" y="384" on="1"/>
        <pt x="461" y="238" on="0"/>
        <pt x="606" y="93" on="0"/>
        <pt x="740" y="93" on="1"/>
        <pt x="857" y="93" on="0"/>
        <pt x="935" y="142" on="1"/>
        <pt x="1003" y="184" on="0"/>
        <pt x="1046" y="263" on="1"/>
        <pt x="1079" y="325" on="0"/>
        <pt x="1099" y="410" on="1"/>
        <pt x="1105" y="436" on="0"/>
        <pt x="1113" y="481" on="1"/>
        <pt x="1215" y="1128" on="1"/>
        <pt x="1050" y="1170" on="1"/>
        <pt x="1065" y="1246" on="1"/>
        <pt x="1521" y="1246" on="1"/>
        <pt x="1505" y="1170" on="1"/>
        <pt x="1337" y="1132" on="1"/>
        <pt x="1233" y="500" on="1"/>
        <pt x="1144" y="-26" on="0"/>
        <pt x="659" y="-26" on="1"/>
        <pt x="544" y="-26" on="0"/>
        <pt x="456" y="15" on="1"/>
        <pt x="400" y="41" on="0"/>
        <pt x="325" y="122" on="0"/>
        <pt x="301" y="187" on="1"/>
        <pt x="275" y="254" on="0"/>
        <pt x="275" y="344" on="1"/>
        <pt x="275" y="400" on="0"/>
        <pt x="285" y="470" on="1"/>
        <pt x="390" y="1128" on="1"/>
        <pt x="219" y="1170" on="1"/>
        <pt x="237" y="1246" on="1"/>
        <pt x="754" y="1246" on="1"/>
        <pt x="739" y="1170" on="1"/>
        <pt x="570" y="1132" on="1"/>
      </contour>
      <contour>
        <pt x="1329" y="1529" on="1"/>
        <pt x="1038" y="1361" on="1"/>
        <pt x="1010" y="1411" on="1"/>
        <pt x="1256" y="1611" on="1"/>
      </contour>
      <contour>
        <pt x="1127" y="1534" on="1"/>
        <pt x="826" y="1361" on="1"/>
        <pt x="798" y="1411" on="1"/>
        <pt x="1053" y="1620" on="1"/>
      </contour>
    </TTGlyph>
    <TTGlyph name="Umacron" xMin="219" yMin="-26" xMax="1521" yMax="1481">
      <contour>
        <pt x="471" y="495" on="1"/>
        <pt x="461" y="433" on="0"/>
        <pt x="461" y="384" on="1"/>
        <pt x="461" y="238" on="0"/>
        <pt x="606" y="93" on="0"/>
        <pt x="740" y="93" on="1"/>
        <pt x="857" y="93" on="0"/>
        <pt x="935" y="142" on="1"/>
        <pt x="1003" y="184" on="0"/>
        <pt x="1046" y="263" on="1"/>
        <pt x="1079" y="325" on="0"/>
        <pt x="1099" y="410" on="1"/>
        <pt x="1105" y="436" on="0"/>
        <pt x="1113" y="481" on="1"/>
        <pt x="1215" y="1128" on="1"/>
        <pt x="1050" y="1170" on="1"/>
        <pt x="1065" y="1246" on="1"/>
        <pt x="1521" y="1246" on="1"/>
        <pt x="1505" y="1170" on="1"/>
        <pt x="1337" y="1132" on="1"/>
        <pt x="1233" y="500" on="1"/>
        <pt x="1144" y="-26" on="0"/>
        <pt x="659" y="-26" on="1"/>
        <pt x="544" y="-26" on="0"/>
        <pt x="456" y="15" on="1"/>
        <pt x="400" y="41" on="0"/>
        <pt x="325" y="122" on="0"/>
        <pt x="301" y="187" on="1"/>
        <pt x="275" y="254" on="0"/>
        <pt x="275" y="344" on="1"/>
        <pt x="275" y="400" on="0"/>
        <pt x="285" y="470" on="1"/>
        <pt x="390" y="1128" on="1"/>
        <pt x="219" y="1170" on="1"/>
        <pt x="237" y="1246" on="1"/>
        <pt x="754" y="1246" on="1"/>
        <pt x="739" y="1170" on="1"/>
        <pt x="570" y="1132" on="1"/>
      </contour>
      <contour>
        <pt x="711" y="1481" on="1"/>
        <pt x="1152" y="1481" on="1"/>
        <pt x="1139" y="1381" on="1"/>
        <pt x="697" y="1381" on="1"/>
      </contour>
    </TTGlyph>
    <TTGlyph name="Uogonek" xMin="219" yMin="-374" xMax="1521" yMax="1246">
      <contour>
        <pt x="792" y="-136" on="1"/>
        <pt x="792" y="-251" on="0"/>
        <pt x="916" y="-323" on="1"/>
        <pt x="881" y="-374" on="1"/>
        <pt x="776" y="-363" on="0"/>
        <pt x="643" y="-262" on="0"/>
        <pt x="643" y="-195" on="1"/>
        <pt x="643" y="-154" on="0"/>
        <pt x="683" y="-78" on="0"/>
        <pt x="739" y="-23" on="1"/>
        <pt x="703" y="-26" on="0"/>
        <pt x="659" y="-26" on="1"/>
        <pt x="544" y="-26" on="0"/>
        <pt x="456" y="15" on="1"/>
        <pt x="400" y="41" on="0"/>
        <pt x="325" y="122" on="0"/>
        <pt x="301" y="187" on="1"/>
        <pt x="275" y="254" on="0"/>
        <pt x="275" y="344" on="1"/>
        <pt x="275" y="400" on="0"/>
        <pt x="285" y="470" on="1"/>
        <pt x="390" y="1128" on="1"/>
        <pt x="219" y="1170" on="1"/>
        <pt x="237" y="1246" on="1"/>
        <pt x="754" y="1246" on="1"/>
        <pt x="739" y="1170" on="1"/>
        <pt x="570" y="1132" on="1"/>
        <pt x="471" y="495" on="1"/>
        <pt x="461" y="432" on="0"/>
        <pt x="461" y="384" on="1"/>
        <pt x="461" y="238" on="0"/>
        <pt x="606" y="93" on="0"/>
        <pt x="740" y="93" on="1"/>
        <pt x="857" y="93" on="0"/>
        <pt x="935" y="142" on="1"/>
        <pt x="1003" y="184" on="0"/>
        <pt x="1046" y="263" on="1"/>
        <pt x="1079" y="325" on="0"/>
        <pt x="1099" y="410" on="1"/>
        <pt x="1102" y="423" on="0"/>
        <pt x="1113" y="481" on="1"/>
        <pt x="1215" y="1128" on="1"/>
        <pt x="1050" y="1170" on="1"/>
        <pt x="1065" y="1246" on="1"/>
        <pt x="1521" y="1246" on="1"/>
        <pt x="1505" y="1170" on="1"/>
        <pt x="1337" y="1132" on="1"/>
        <pt x="1233" y="500" on="1"/>
        <pt x="1164" y="79" on="0"/>
        <pt x="840" y="-5" on="1"/>
        <pt x="792" y="-86" on="0"/>
      </contour>
    </TTGlyph>
    <TTGlyph name="Uring" xMin="219" yMin="-26" xMax="1521" yMax="1702">
      <contour>
        <pt x="471" y="495" on="1"/>
        <pt x="461" y="433" on="0"/>
        <pt x="461" y="384" on="1"/>
        <pt x="461" y="238" on="0"/>
        <pt x="606" y="93" on="0"/>
        <pt x="740" y="93" on="1"/>
        <pt x="857" y="93" on="0"/>
        <pt x="935" y="142" on="1"/>
        <pt x="1003" y="184" on="0"/>
        <pt x="1046" y="263" on="1"/>
        <pt x="1079" y="325" on="0"/>
        <pt x="1099" y="410" on="1"/>
        <pt x="1105" y="436" on="0"/>
        <pt x="1113" y="481" on="1"/>
        <pt x="1215" y="1128" on="1"/>
        <pt x="1050" y="1170" on="1"/>
        <pt x="1065" y="1246" on="1"/>
        <pt x="1521" y="1246" on="1"/>
        <pt x="1505" y="1170" on="1"/>
        <pt x="1337" y="1132" on="1"/>
        <pt x="1233" y="500" on="1"/>
        <pt x="1144" y="-26" on="0"/>
        <pt x="659" y="-26" on="1"/>
        <pt x="544" y="-26" on="0"/>
        <pt x="456" y="15" on="1"/>
        <pt x="400" y="41" on="0"/>
        <pt x="325" y="122" on="0"/>
        <pt x="301" y="187" on="1"/>
        <pt x="275" y="254" on="0"/>
        <pt x="275" y="344" on="1"/>
        <pt x="275" y="400" on="0"/>
        <pt x="285" y="470" on="1"/>
        <pt x="390" y="1128" on="1"/>
        <pt x="219" y="1170" on="1"/>
        <pt x="237" y="1246" on="1"/>
        <pt x="754" y="1246" on="1"/>
        <pt x="739" y="1170" on="1"/>
        <pt x="570" y="1132" on="1"/>
      </contour>
      <contour>
        <pt x="835" y="1542" on="1"/>
        <pt x="835" y="1489" on="0"/>
        <pt x="887" y="1413" on="0"/>
        <pt x="931" y="1413" on="1"/>
        <pt x="972" y="1413" on="0"/>
        <pt x="1017" y="1472" on="0"/>
        <pt x="1017" y="1527" on="1"/>
        <pt x="1017" y="1581" on="0"/>
        <pt x="964" y="1654" on="0"/>
        <pt x="921" y="1654" on="1"/>
        <pt x="880" y="1654" on="0"/>
        <pt x="835" y="1591" on="0"/>
      </contour>
      <contour>
        <pt x="1088" y="1613" on="0"/>
        <pt x="1088" y="1467" on="0"/>
        <pt x="992" y="1365" on="0"/>
        <pt x="919" y="1365" on="1"/>
        <pt x="849" y="1365" on="0"/>
        <pt x="763" y="1454" on="0"/>
        <pt x="763" y="1530" on="1"/>
        <pt x="763" y="1600" on="0"/>
        <pt x="863" y="1702" on="0"/>
        <pt x="932" y="1702" on="1"/>
        <pt x="1003" y="1702" on="0"/>
      </contour>
    </TTGlyph>
    <TTGlyph name="V" xMin="157" yMin="-25" xMax="1381" yMax="1246">
      <contour>
        <pt x="510" y="-25" on="1"/>
        <pt x="288" y="1128" on="1"/>
        <pt x="157" y="1170" on="1"/>
        <pt x="174" y="1246" on="1"/>
        <pt x="680" y="1246" on="1"/>
        <pt x="665" y="1170" on="1"/>
        <pt x="496" y="1132" on="1"/>
        <pt x="657" y="251" on="1"/>
        <pt x="1098" y="1128" on="1"/>
        <pt x="931" y="1170" on="1"/>
        <pt x="946" y="1246" on="1"/>
        <pt x="1381" y="1246" on="1"/>
        <pt x="1366" y="1170" on="1"/>
        <pt x="1236" y="1132" on="1"/>
        <pt x="650" y="5" on="1"/>
      </contour>
    </TTGlyph>
    <TTGlyph name="W" xMin="167" yMin="-25" xMax="1907" yMax="1246">
      <contour>
        <pt x="1095" y="-25" on="1"/>
        <pt x="1006" y="953" on="1"/>
        <pt x="576" y="5" on="1"/>
        <pt x="425" y="-25" on="1"/>
        <pt x="291" y="1128" on="1"/>
        <pt x="167" y="1170" on="1"/>
        <pt x="182" y="1246" on="1"/>
        <pt x="667" y="1246" on="1"/>
        <pt x="647" y="1170" on="1"/>
        <pt x="480" y="1132" on="1"/>
        <pt x="577" y="273" on="1"/>
        <pt x="999" y="1196" on="1"/>
        <pt x="1165" y="1221" on="1"/>
        <pt x="1246" y="288" on="1"/>
        <pt x="1626" y="1128" on="1"/>
        <pt x="1462" y="1170" on="1"/>
        <pt x="1479" y="1246" on="1"/>
        <pt x="1907" y="1246" on="1"/>
        <pt x="1891" y="1170" on="1"/>
        <pt x="1767" y="1132" on="1"/>
        <pt x="1241" y="5" on="1"/>
      </contour>
    </TTGlyph>
    <TTGlyph name="Wacute" xMin="167" yMin="-25" xMax="1907" yMax="1709">
      <contour>
        <pt x="1095" y="-25" on="1"/>
        <pt x="1006" y="953" on="1"/>
        <pt x="576" y="5" on="1"/>
        <pt x="425" y="-25" on="1"/>
        <pt x="291" y="1128" on="1"/>
        <pt x="167" y="1170" on="1"/>
        <pt x="182" y="1246" on="1"/>
        <pt x="667" y="1246" on="1"/>
        <pt x="647" y="1170" on="1"/>
        <pt x="480" y="1132" on="1"/>
        <pt x="577" y="273" on="1"/>
        <pt x="999" y="1196" on="1"/>
        <pt x="1165" y="1221" on="1"/>
        <pt x="1246" y="288" on="1"/>
        <pt x="1626" y="1128" on="1"/>
        <pt x="1462" y="1170" on="1"/>
        <pt x="1479" y="1246" on="1"/>
        <pt x="1907" y="1246" on="1"/>
        <pt x="1891" y="1170" on="1"/>
        <pt x="1767" y="1132" on="1"/>
        <pt x="1241" y="5" on="1"/>
      </contour>
      <contour>
        <pt x="1317" y="1669" on="1"/>
        <pt x="1133" y="1352" on="1"/>
        <pt x="1082" y="1383" on="1"/>
        <pt x="1204" y="1709" on="1"/>
      </contour>
    </TTGlyph>
    <TTGlyph name="Wcircumflex" xMin="167" yMin="-25" xMax="1907" yMax="1583">
      <contour>
        <pt x="1095" y="-25" on="1"/>
        <pt x="1006" y="953" on="1"/>
        <pt x="576" y="5" on="1"/>
        <pt x="425" y="-25" on="1"/>
        <pt x="291" y="1128" on="1"/>
        <pt x="167" y="1170" on="1"/>
        <pt x="182" y="1246" on="1"/>
        <pt x="667" y="1246" on="1"/>
        <pt x="647" y="1170" on="1"/>
        <pt x="480" y="1132" on="1"/>
        <pt x="577" y="273" on="1"/>
        <pt x="999" y="1196" on="1"/>
        <pt x="1165" y="1221" on="1"/>
        <pt x="1246" y="288" on="1"/>
        <pt x="1626" y="1128" on="1"/>
        <pt x="1462" y="1170" on="1"/>
        <pt x="1479" y="1246" on="1"/>
        <pt x="1907" y="1246" on="1"/>
        <pt x="1891" y="1170" on="1"/>
        <pt x="1767" y="1132" on="1"/>
        <pt x="1241" y="5" on="1"/>
      </contour>
      <contour>
        <pt x="1121" y="1583" on="1"/>
        <pt x="1299" y="1397" on="1"/>
        <pt x="1250" y="1361" on="1"/>
        <pt x="1086" y="1471" on="1"/>
        <pt x="1076" y="1471" on="1"/>
        <pt x="935" y="1360" on="1"/>
        <pt x="897" y="1390" on="1"/>
        <pt x="1066" y="1570" on="1"/>
      </contour>
    </TTGlyph>
    <TTGlyph name="Wdieresis" xMin="167" yMin="-25" xMax="1907" yMax="1545">
      <contour>
        <pt x="1095" y="-25" on="1"/>
        <pt x="1006" y="953" on="1"/>
        <pt x="576" y="5" on="1"/>
        <pt x="425" y="-25" on="1"/>
        <pt x="291" y="1128" on="1"/>
        <pt x="167" y="1170" on="1"/>
        <pt x="182" y="1246" on="1"/>
        <pt x="667" y="1246" on="1"/>
        <pt x="647" y="1170" on="1"/>
        <pt x="480" y="1132" on="1"/>
        <pt x="577" y="273" on="1"/>
        <pt x="999" y="1196" on="1"/>
        <pt x="1165" y="1221" on="1"/>
        <pt x="1246" y="288" on="1"/>
        <pt x="1626" y="1128" on="1"/>
        <pt x="1462" y="1170" on="1"/>
        <pt x="1479" y="1246" on="1"/>
        <pt x="1907" y="1246" on="1"/>
        <pt x="1891" y="1170" on="1"/>
        <pt x="1767" y="1132" on="1"/>
        <pt x="1241" y="5" on="1"/>
      </contour>
      <contour>
        <pt x="1318" y="1467" on="1"/>
        <pt x="1318" y="1432" on="0"/>
        <pt x="1266" y="1386" on="0"/>
        <pt x="1196" y="1386" on="0"/>
        <pt x="1146" y="1433" on="0"/>
        <pt x="1146" y="1501" on="0"/>
        <pt x="1197" y="1545" on="0"/>
        <pt x="1231" y="1545" on="1"/>
        <pt x="1267" y="1545" on="0"/>
        <pt x="1318" y="1500" on="0"/>
      </contour>
      <contour>
        <pt x="1049" y="1467" on="1"/>
        <pt x="1049" y="1432" on="0"/>
        <pt x="998" y="1386" on="0"/>
        <pt x="928" y="1386" on="0"/>
        <pt x="878" y="1433" on="0"/>
        <pt x="878" y="1501" on="0"/>
        <pt x="929" y="1545" on="0"/>
        <pt x="963" y="1545" on="1"/>
        <pt x="999" y="1545" on="0"/>
        <pt x="1049" y="1500" on="0"/>
      </contour>
    </TTGlyph>
    <TTGlyph name="Wgrave" xMin="167" yMin="-25" xMax="1907" yMax="1701">
      <contour>
        <pt x="1095" y="-25" on="1"/>
        <pt x="1006" y="953" on="1"/>
        <pt x="576" y="5" on="1"/>
        <pt x="425" y="-25" on="1"/>
        <pt x="291" y="1128" on="1"/>
        <pt x="167" y="1170" on="1"/>
        <pt x="182" y="1246" on="1"/>
        <pt x="667" y="1246" on="1"/>
        <pt x="647" y="1170" on="1"/>
        <pt x="480" y="1132" on="1"/>
        <pt x="577" y="273" on="1"/>
        <pt x="999" y="1196" on="1"/>
        <pt x="1165" y="1221" on="1"/>
        <pt x="1246" y="288" on="1"/>
        <pt x="1626" y="1128" on="1"/>
        <pt x="1462" y="1170" on="1"/>
        <pt x="1479" y="1246" on="1"/>
        <pt x="1907" y="1246" on="1"/>
        <pt x="1891" y="1170" on="1"/>
        <pt x="1767" y="1132" on="1"/>
        <pt x="1241" y="5" on="1"/>
      </contour>
      <contour>
        <pt x="875" y="1663" on="1"/>
        <pt x="991" y="1701" on="1"/>
        <pt x="1123" y="1366" on="1"/>
        <pt x="1065" y="1332" on="1"/>
      </contour>
    </TTGlyph>
    <TTGlyph name="X" xMin="12" yMin="0" xMax="1315" yMax="1246">
      <contour>
        <pt x="774" y="652" on="1"/>
        <pt x="1016" y="114" on="1"/>
        <pt x="1145" y="81" on="1"/>
        <pt x="1123" y="0" on="1"/>
        <pt x="640" y="0" on="1"/>
        <pt x="660" y="74" on="1"/>
        <pt x="825" y="121" on="1"/>
        <pt x="637" y="523" on="1"/>
        <pt x="291" y="114" on="1"/>
        <pt x="462" y="81" on="1"/>
        <pt x="443" y="0" on="1"/>
        <pt x="12" y="0" on="1"/>
        <pt x="31" y="74" on="1"/>
        <pt x="152" y="121" on="1"/>
        <pt x="581" y="609" on="1"/>
        <pt x="334" y="1120" on="1"/>
        <pt x="217" y="1170" on="1"/>
        <pt x="235" y="1246" on="1"/>
        <pt x="731" y="1246" on="1"/>
        <pt x="713" y="1170" on="1"/>
        <pt x="548" y="1123" on="1"/>
        <pt x="718" y="744" on="1"/>
        <pt x="1037" y="1128" on="1"/>
        <pt x="865" y="1170" on="1"/>
        <pt x="883" y="1246" on="1"/>
        <pt x="1315" y="1246" on="1"/>
        <pt x="1300" y="1170" on="1"/>
        <pt x="1173" y="1132" on="1"/>
      </contour>
    </TTGlyph>
    <TTGlyph name="Y" xMin="156" yMin="0" xMax="1270" yMax="1246">
      <contour>
        <pt x="706" y="529" on="1"/>
        <pt x="640" y="114" on="1"/>
        <pt x="794" y="81" on="1"/>
        <pt x="776" y="0" on="1"/>
        <pt x="291" y="0" on="1"/>
        <pt x="308" y="74" on="1"/>
        <pt x="458" y="121" on="1"/>
        <pt x="519" y="506" on="1"/>
        <pt x="278" y="1128" on="1"/>
        <pt x="156" y="1170" on="1"/>
        <pt x="175" y="1246" on="1"/>
        <pt x="653" y="1246" on="1"/>
        <pt x="635" y="1170" on="1"/>
        <pt x="478" y="1132" on="1"/>
        <pt x="670" y="639" on="1"/>
        <pt x="998" y="1128" on="1"/>
        <pt x="832" y="1170" on="1"/>
        <pt x="847" y="1246" on="1"/>
        <pt x="1270" y="1246" on="1"/>
        <pt x="1256" y="1170" on="1"/>
        <pt x="1130" y="1132" on="1"/>
      </contour>
    </TTGlyph>
    <TTGlyph name="Yacute" xMin="156" yMin="0" xMax="1270" yMax="1709">
      <contour>
        <pt x="706" y="529" on="1"/>
        <pt x="640" y="114" on="1"/>
        <pt x="794" y="81" on="1"/>
        <pt x="776" y="0" on="1"/>
        <pt x="291" y="0" on="1"/>
        <pt x="308" y="74" on="1"/>
        <pt x="458" y="121" on="1"/>
        <pt x="519" y="506" on="1"/>
        <pt x="278" y="1128" on="1"/>
        <pt x="156" y="1170" on="1"/>
        <pt x="175" y="1246" on="1"/>
        <pt x="653" y="1246" on="1"/>
        <pt x="635" y="1170" on="1"/>
        <pt x="478" y="1132" on="1"/>
        <pt x="670" y="639" on="1"/>
        <pt x="998" y="1128" on="1"/>
        <pt x="832" y="1170" on="1"/>
        <pt x="847" y="1246" on="1"/>
        <pt x="1270" y="1246" on="1"/>
        <pt x="1256" y="1170" on="1"/>
        <pt x="1130" y="1132" on="1"/>
      </contour>
      <contour>
        <pt x="991" y="1669" on="1"/>
        <pt x="807" y="1352" on="1"/>
        <pt x="756" y="1383" on="1"/>
        <pt x="878" y="1709" on="1"/>
      </contour>
    </TTGlyph>
    <TTGlyph name="Ycircumflex" xMin="156" yMin="0" xMax="1270" yMax="1583">
      <contour>
        <pt x="706" y="529" on="1"/>
        <pt x="640" y="114" on="1"/>
        <pt x="794" y="81" on="1"/>
        <pt x="776" y="0" on="1"/>
        <pt x="291" y="0" on="1"/>
        <pt x="308" y="74" on="1"/>
        <pt x="458" y="121" on="1"/>
        <pt x="519" y="506" on="1"/>
        <pt x="278" y="1128" on="1"/>
        <pt x="156" y="1170" on="1"/>
        <pt x="175" y="1246" on="1"/>
        <pt x="653" y="1246" on="1"/>
        <pt x="635" y="1170" on="1"/>
        <pt x="478" y="1132" on="1"/>
        <pt x="670" y="639" on="1"/>
        <pt x="998" y="1128" on="1"/>
        <pt x="832" y="1170" on="1"/>
        <pt x="847" y="1246" on="1"/>
        <pt x="1270" y="1246" on="1"/>
        <pt x="1256" y="1170" on="1"/>
        <pt x="1130" y="1132" on="1"/>
      </contour>
      <contour>
        <pt x="786" y="1583" on="1"/>
        <pt x="964" y="1397" on="1"/>
        <pt x="915" y="1361" on="1"/>
        <pt x="751" y="1471" on="1"/>
        <pt x="741" y="1471" on="1"/>
        <pt x="601" y="1360" on="1"/>
        <pt x="562" y="1390" on="1"/>
        <pt x="731" y="1570" on="1"/>
      </contour>
    </TTGlyph>
    <TTGlyph name="Ydieresis" xMin="156" yMin="0" xMax="1270" yMax="1545">
      <contour>
        <pt x="706" y="529" on="1"/>
        <pt x="640" y="114" on="1"/>
        <pt x="794" y="81" on="1"/>
        <pt x="776" y="0" on="1"/>
        <pt x="291" y="0" on="1"/>
        <pt x="308" y="74" on="1"/>
        <pt x="458" y="121" on="1"/>
        <pt x="519" y="506" on="1"/>
        <pt x="278" y="1128" on="1"/>
        <pt x="156" y="1170" on="1"/>
        <pt x="175" y="1246" on="1"/>
        <pt x="653" y="1246" on="1"/>
        <pt x="635" y="1170" on="1"/>
        <pt x="478" y="1132" on="1"/>
        <pt x="670" y="639" on="1"/>
        <pt x="998" y="1128" on="1"/>
        <pt x="832" y="1170" on="1"/>
        <pt x="847" y="1246" on="1"/>
        <pt x="1270" y="1246" on="1"/>
        <pt x="1256" y="1170" on="1"/>
        <pt x="1130" y="1132" on="1"/>
      </contour>
      <contour>
        <pt x="983" y="1467" on="1"/>
        <pt x="983" y="1432" on="0"/>
        <pt x="931" y="1386" on="0"/>
        <pt x="861" y="1386" on="0"/>
        <pt x="811" y="1433" on="0"/>
        <pt x="811" y="1501" on="0"/>
        <pt x="862" y="1545" on="0"/>
        <pt x="896" y="1545" on="1"/>
        <pt x="932" y="1545" on="0"/>
        <pt x="983" y="1500" on="0"/>
      </contour>
      <contour>
        <pt x="714" y="1467" on="1"/>
        <pt x="714" y="1432" on="0"/>
        <pt x="663" y="1386" on="0"/>
        <pt x="593" y="1386" on="0"/>
        <pt x="543" y="1433" on="0"/>
        <pt x="543" y="1501" on="0"/>
        <pt x="594" y="1545" on="0"/>
        <pt x="628" y="1545" on="1"/>
        <pt x="664" y="1545" on="0"/>
        <pt x="714" y="1500" on="0"/>
      </contour>
    </TTGlyph>
    <TTGlyph name="Ygrave" xMin="156" yMin="0" xMax="1270" yMax="1701">
      <contour>
        <pt x="706" y="529" on="1"/>
        <pt x="640" y="114" on="1"/>
        <pt x="794" y="81" on="1"/>
        <pt x="776" y="0" on="1"/>
        <pt x="291" y="0" on="1"/>
        <pt x="308" y="74" on="1"/>
        <pt x="458" y="121" on="1"/>
        <pt x="519" y="506" on="1"/>
        <pt x="278" y="1128" on="1"/>
        <pt x="156" y="1170" on="1"/>
        <pt x="175" y="1246" on="1"/>
        <pt x="653" y="1246" on="1"/>
        <pt x="635" y="1170" on="1"/>
        <pt x="478" y="1132" on="1"/>
        <pt x="670" y="639" on="1"/>
        <pt x="998" y="1128" on="1"/>
        <pt x="832" y="1170" on="1"/>
        <pt x="847" y="1246" on="1"/>
        <pt x="1270" y="1246" on="1"/>
        <pt x="1256" y="1170" on="1"/>
        <pt x="1130" y="1132" on="1"/>
      </contour>
      <contour>
        <pt x="540" y="1663" on="1"/>
        <pt x="656" y="1701" on="1"/>
        <pt x="788" y="1366" on="1"/>
        <pt x="730" y="1332" on="1"/>
      </contour>
    </TTGlyph>
    <TTGlyph name="Z" xMin="86" yMin="0" xMax="1208" yMax="1246">
      <contour>
        <pt x="291" y="1246" on="1"/>
        <pt x="1208" y="1246" on="1"/>
        <pt x="1196" y="1170" on="1"/>
        <pt x="298" y="101" on="1"/>
        <pt x="832" y="101" on="1"/>
        <pt x="974" y="351" on="1"/>
        <pt x="1065" y="336" on="1"/>
        <pt x="983" y="0" on="1"/>
        <pt x="86" y="0" on="1"/>
        <pt x="93" y="104" on="1"/>
        <pt x="969" y="1151" on="1"/>
        <pt x="432" y="1151" on="1"/>
        <pt x="341" y="905" on="1"/>
        <pt x="253" y="923" on="1"/>
      </contour>
    </TTGlyph>
</ttFont>
